<svg width="34" height="14" viewBox="0 0 34 14" fill="none" xmlns="http://www.w3.org/2000/svg">
<g clip-path="url(#clip0_500_44)">
<path d="M14.3555 5.01855H0V7.26342H15.7782L14.3555 5.01855Z" fill="#F9BF58"/>
<path d="M14.3555 0.527832H0V2.7734H15.7782L14.3555 0.527832Z" fill="#F9BF58"/>
<path d="M14.3555 9.50879H0V11.7537H15.7782L14.3555 9.50879Z" fill="#F9BF58"/>
<path d="M28.4397 0.527832L23.586 8.29155L18.7307 0.527832H16.0273L23.586 12.6123L31.1431 0.527832H28.4397Z" fill="#F9BF58"/>
<path d="M32.0225 0.146312H32.2479V0.857374H32.4037V0.146312H32.6284V0H32.0225V0.146312Z" fill="#F9BF58"/>
<path d="M33.2394 0L33.0821 0.528702L32.9248 0H32.7197V0.857374H32.8611V0.24456L33.0133 0.716009H33.151L33.3032 0.233251V0.857374H33.4445V0H33.2394Z" fill="#F9BF58"/>
<path d="M0.497443 13.4662H0.779378V13.4853C0.779378 13.5503 0.767782 13.6061 0.745314 13.6528C0.722846 13.6987 0.689507 13.7348 0.648195 13.7595C0.606158 13.7835 0.556149 13.7963 0.501067 13.7963C0.445984 13.7963 0.393801 13.7842 0.35104 13.7609C0.308278 13.7376 0.274214 13.7037 0.251022 13.662C0.227829 13.6196 0.215508 13.5694 0.215508 13.5121V13.1177C0.215508 13.0548 0.227104 12.9997 0.249572 12.9523C0.272765 12.9057 0.305379 12.8689 0.347416 12.8428C0.389452 12.8166 0.438737 12.8039 0.494544 12.8039C0.532957 12.8039 0.570645 12.8124 0.606158 12.8286C0.641672 12.8449 0.673562 12.8696 0.700378 12.9014C0.727195 12.9332 0.746039 12.9714 0.75691 13.0152L0.763433 13.0569L0.985212 13.0541L0.983763 13.0089C0.967818 12.9276 0.936653 12.8555 0.890992 12.794C0.845332 12.7325 0.788075 12.6844 0.719222 12.6505C0.651094 12.6166 0.575718 12.5996 0.495269 12.5996C0.397425 12.5996 0.309728 12.6208 0.235802 12.6639C0.16115 12.7063 0.102444 12.7671 0.0618571 12.8449C0.0212701 12.9219 0.000976562 13.0131 0.000976562 13.1142V13.5142C0.000976562 13.6104 0.0219949 13.6959 0.0633067 13.7687C0.104618 13.8415 0.164049 13.8987 0.239425 13.939C0.314077 13.9793 0.402498 13.9991 0.501792 13.9991C0.601085 13.9991 0.686608 13.9779 0.761259 13.9348C0.83591 13.8924 0.894616 13.8316 0.935203 13.7538C0.97579 13.6761 0.996084 13.5856 0.996084 13.4838V13.2605H0.498168V13.4655L0.497443 13.4662Z" fill="#F9BF58"/>
<path d="M3.46533 12.7996H3.86613V13.9998H4.08139V12.7996H4.48218V12.5996H3.46533V12.7996Z" fill="#F9BF58"/>
<path d="M6.02731 12.7996V12.5996H5.09961V13.9998H6.02731V13.7998H5.31414V13.4047H5.92005V13.2046H5.31414V12.7996H6.02731Z" fill="#F9BF58"/>
<path d="M2.32255 12.5996H2.13846L1.613 13.9892L1.60938 13.9991H1.8413L1.94857 13.6945H2.51171L2.6168 13.9942L2.61825 13.9991H2.85018L2.32327 12.6046L2.3211 12.5996H2.32255ZM2.44141 13.4944H2.01887L2.22978 12.8951L2.44068 13.4944H2.44141Z" fill="#F9BF58"/>
</g>
<defs>
<clipPath id="clip0_500_44">
<rect width="33.4444" height="14" fill="white"/>
</clipPath>
</defs>
</svg>
