<svg width="39" height="16" viewBox="0 0 39 16" fill="none" xmlns="http://www.w3.org/2000/svg">
<g clip-path="url(#clip0_500_45)">
<path d="M16.4063 5.73535H0V8.30091H18.0322L16.4063 5.73535Z" fill="#F9BF58"/>
<path d="M16.4063 0.603516H0V3.16988H18.0322L16.4063 0.603516Z" fill="#F9BF58"/>
<path d="M16.4063 10.8672H0V13.4327H18.0322L16.4063 10.8672Z" fill="#F9BF58"/>
<path d="M32.503 0.603516L26.9558 9.47634L21.407 0.603516H18.3174L26.9558 14.4144L35.5926 0.603516H32.503Z" fill="#F9BF58"/>
<path d="M36.5972 0.167214H36.8548V0.979855H37.0329V0.167214H37.2896V0H36.5972V0.167214Z" fill="#F9BF58"/>
<path d="M37.9879 0L37.8082 0.604231L37.6285 0H37.394V0.979855H37.5556V0.279497L37.7295 0.818296H37.8869L38.0608 0.266572V0.979855H38.2223V0H37.9879Z" fill="#F9BF58"/>
<path d="M0.568367 15.3903H0.890578V15.4121C0.890578 15.4864 0.877325 15.5502 0.851648 15.6035C0.82597 15.656 0.787868 15.6972 0.740655 15.7255C0.692613 15.753 0.63546 15.7675 0.572508 15.7675C0.509557 15.7675 0.449919 15.7538 0.401049 15.7271C0.352179 15.7005 0.313248 15.6617 0.286742 15.614C0.260237 15.5656 0.246155 15.5082 0.246155 15.4428V14.992C0.246155 14.9201 0.259408 14.8571 0.285086 14.803C0.311592 14.7497 0.348865 14.7077 0.396907 14.6778C0.444949 14.6479 0.501274 14.6334 0.565054 14.6334C0.608954 14.6334 0.652026 14.643 0.692613 14.6616C0.7332 14.6802 0.769645 14.7085 0.800293 14.7448C0.83094 14.7812 0.852476 14.8248 0.864901 14.8749L0.872355 14.9225L1.12582 14.9193L1.12416 14.8676C1.10594 14.7747 1.07032 14.6923 1.01814 14.622C0.965954 14.5518 0.900518 14.4968 0.821829 14.4581C0.743968 14.4193 0.657824 14.3999 0.565882 14.3999C0.45406 14.3999 0.353835 14.4241 0.269348 14.4734C0.184032 14.5219 0.11694 14.5913 0.0705543 14.6802C0.0241692 14.7683 0.000976562 14.8725 0.000976562 14.988V15.4452C0.000976562 15.555 0.0249975 15.6528 0.072211 15.736C0.119424 15.8192 0.187346 15.8846 0.27349 15.9307C0.358805 15.9767 0.459859 15.9993 0.573337 15.9993C0.686815 15.9993 0.784555 15.9751 0.86987 15.9258C0.955186 15.8774 1.02228 15.8079 1.06866 15.719C1.11505 15.6302 1.13824 15.5268 1.13824 15.4105V15.1552H0.569195V15.3895L0.568367 15.3903Z" fill="#F9BF58"/>
<path d="M3.96045 14.6285H4.4185V16.0001H4.66451V14.6285H5.12256V14.3999H3.96045V14.6285Z" fill="#F9BF58"/>
<path d="M6.88836 14.6285V14.3999H5.82812V16.0001H6.88836V15.7715H6.0733V15.32H6.76577V15.0914H6.0733V14.6285H6.88836Z" fill="#F9BF58"/>
<path d="M2.65392 14.3999H2.44353L1.84301 15.988L1.83887 15.9993H2.10393L2.22651 15.6512H2.87011L2.99021 15.9937L2.99187 15.9993H3.25693L2.65475 14.4056L2.65226 14.3999H2.65392ZM2.78976 15.4226H2.30686L2.5479 14.7376L2.78893 15.4226H2.78976Z" fill="#F9BF58"/>
</g>
<defs>
<clipPath id="clip0_500_45">
<rect width="38.2222" height="16" fill="white"/>
</clipPath>
</defs>
</svg>
