<svg width="43" height="18" viewBox="0 0 43 18" fill="none" xmlns="http://www.w3.org/2000/svg">
<g clip-path="url(#clip0_500_43)">
<path d="M18.4571 6.45215H0V9.3384H20.2863L18.4571 6.45215Z" fill="#F9BF58"/>
<path d="M18.4571 0.678711H0V3.56587H20.2863L18.4571 0.678711Z" fill="#F9BF58"/>
<path d="M18.4571 12.2256H0V15.1118H20.2863L18.4571 12.2256Z" fill="#F9BF58"/>
<path d="M36.5657 0.678711L30.3251 10.6606L24.0827 0.678711H20.6069L30.3251 16.2159L40.0415 0.678711H36.5657Z" fill="#F9BF58"/>
<path d="M41.1719 0.188115H41.4617V1.10234H41.662V0.188115H41.9509V0H41.1719V0.188115Z" fill="#F9BF58"/>
<path d="M42.7365 0L42.5343 0.67976L42.3321 0H42.0684V1.10234H42.2501V0.314434L42.4458 0.920584H42.6228L42.8185 0.299894V1.10234H43.0002V0H42.7365Z" fill="#F9BF58"/>
<path d="M0.639291 17.3139H1.00178V17.3384C1.00178 17.422 0.986869 17.4938 0.957982 17.5538C0.929094 17.6128 0.88623 17.6592 0.833114 17.691C0.779067 17.7219 0.71477 17.7383 0.64395 17.7383C0.57313 17.7383 0.506037 17.7228 0.451058 17.6928C0.396079 17.6628 0.352282 17.6192 0.322463 17.5656C0.292644 17.5111 0.276803 17.4465 0.276803 17.3729V16.8658C0.276803 16.785 0.291712 16.7141 0.3206 16.6532C0.350419 16.5932 0.392352 16.5459 0.446399 16.5123C0.500446 16.4787 0.563811 16.4623 0.635563 16.4623C0.684951 16.4623 0.733407 16.4732 0.779067 16.4941C0.824728 16.5151 0.865729 16.5469 0.900207 16.5878C0.934686 16.6286 0.958913 16.6777 0.972891 16.7341L0.981278 16.7877L1.26642 16.784L1.26456 16.7259C1.24406 16.6214 1.20399 16.5287 1.14528 16.4496C1.08658 16.3706 1.01296 16.3088 0.924435 16.2651C0.836842 16.2215 0.73993 16.1997 0.636495 16.1997C0.510696 16.1997 0.397943 16.227 0.302894 16.2824C0.206914 16.3369 0.131435 16.4151 0.0792516 16.5151C0.0270682 16.6141 0.000976562 16.7313 0.000976562 16.8613V17.3757C0.000976562 17.4992 0.0280001 17.6092 0.0811153 17.7028C0.13423 17.7964 0.210642 17.87 0.307554 17.9218C0.403534 17.9736 0.517219 17.9991 0.644882 17.9991C0.772544 17.9991 0.882502 17.9718 0.978482 17.9164C1.07446 17.8618 1.14994 17.7837 1.20213 17.6837C1.25431 17.5838 1.2804 17.4674 1.2804 17.3366V17.0494H0.640222V17.3129L0.639291 17.3139Z" fill="#F9BF58"/>
<path d="M4.45508 16.4569H4.97039V18H5.24715V16.4569H5.76246V16.1997H4.45508V16.4569Z" fill="#F9BF58"/>
<path d="M7.7494 16.4569V16.1997H6.55664V18H7.7494V17.7428H6.83247V17.2348H7.61149V16.9776H6.83247V16.4569H7.7494Z" fill="#F9BF58"/>
<path d="M2.98578 16.1997H2.74909L2.07351 17.9863L2.06885 17.9991H2.36704L2.50495 17.6074H3.22899L3.36411 17.9927L3.36598 17.9991H3.66417L2.98671 16.2061L2.98392 16.1997H2.98578ZM3.13861 17.3502H2.59534L2.86651 16.5796L3.13767 17.3502H3.13861Z" fill="#F9BF58"/>
</g>
<defs>
<clipPath id="clip0_500_43">
<rect width="43" height="18" fill="white"/>
</clipPath>
</defs>
</svg>
