<svg width="38" height="40" viewBox="0 0 38 40" fill="none" xmlns="http://www.w3.org/2000/svg">
<path d="M24.0303 37.6501H25.4303V37.8801H24.3003V38.5301H25.3603V38.7601H24.3003V39.4601H25.4403V39.6901H24.0303V37.6601V37.6501Z" fill="#191970"/>
<path d="M25.8101 37.6501H26.0501V39.6801H25.8101V37.6501Z" fill="#191970"/>
<path d="M27.7404 39.2202C27.7104 39.3802 27.6404 39.5101 27.5304 39.5901C27.4204 39.6801 27.2804 39.7202 27.1104 39.7202C26.9904 39.7202 26.8904 39.7002 26.8004 39.6602C26.7104 39.6202 26.6404 39.5702 26.5804 39.5002C26.5204 39.4302 26.4804 39.3502 26.4504 39.2602C26.4204 39.1702 26.4004 39.0602 26.4004 38.9502C26.4004 38.8402 26.4204 38.7402 26.4504 38.6402C26.4804 38.5502 26.5304 38.4602 26.5904 38.4002C26.6504 38.3302 26.7204 38.2802 26.8104 38.2402C26.8904 38.2002 26.9904 38.1802 27.0904 38.1802C27.2204 38.1802 27.3304 38.2102 27.4204 38.2602C27.5104 38.3102 27.5804 38.3802 27.6304 38.4702C27.6804 38.5602 27.7204 38.6402 27.7404 38.7402C27.7604 38.8402 27.7704 38.9302 27.7604 39.0202H26.6604C26.6604 39.0802 26.6604 39.1502 26.6804 39.2002C26.7004 39.2602 26.7204 39.3102 26.7604 39.3502C26.8004 39.3902 26.8504 39.4302 26.9104 39.4602C26.9704 39.4902 27.0404 39.5002 27.1204 39.5002C27.2204 39.5002 27.3004 39.4802 27.3704 39.4302C27.4404 39.3802 27.4804 39.3102 27.5004 39.2102H27.7404V39.2202ZM27.5004 38.8102C27.5004 38.7502 27.4804 38.7002 27.4604 38.6502C27.4404 38.6002 27.4104 38.5502 27.3704 38.5202C27.3304 38.4902 27.2904 38.4502 27.2404 38.4302C27.1904 38.4102 27.1304 38.4002 27.0704 38.4002C27.0104 38.4002 26.9504 38.4102 26.9004 38.4302C26.8504 38.4502 26.8104 38.4802 26.7704 38.5202C26.7304 38.5602 26.7104 38.6002 26.6804 38.6502C26.6504 38.7002 26.6504 38.7502 26.6404 38.8102H27.4904H27.5004Z" fill="#191970"/>
<path d="M29.0705 38.6802C29.0505 38.5902 29.0105 38.5102 28.9505 38.4602C28.8905 38.4102 28.8105 38.3802 28.7105 38.3802C28.6205 38.3802 28.5505 38.4002 28.4905 38.4302C28.4305 38.4602 28.3805 38.5002 28.3505 38.5602C28.3205 38.6202 28.2905 38.6702 28.2705 38.7402C28.2505 38.8102 28.2505 38.8802 28.2505 38.9602C28.2505 39.0302 28.2505 39.0902 28.2705 39.1602C28.2905 39.2202 28.3105 39.2802 28.3505 39.3302C28.3805 39.3802 28.4305 39.4202 28.4805 39.4502C28.5305 39.4802 28.6005 39.5002 28.6805 39.5002C28.8005 39.5002 28.8905 39.4702 28.9605 39.4002C29.0305 39.3402 29.0705 39.2502 29.0905 39.1402H29.3405C29.3105 39.3202 29.2405 39.4602 29.1305 39.5602C29.0205 39.6602 28.8705 39.7102 28.6905 39.7102C28.5805 39.7102 28.4805 39.6902 28.3905 39.6502C28.3005 39.6102 28.2305 39.5602 28.1705 39.4902C28.1105 39.4202 28.0705 39.3402 28.0405 39.2502C28.0105 39.1602 28.0005 39.0602 28.0005 38.9502C28.0005 38.8402 28.0105 38.7402 28.0405 38.6402C28.0705 38.5402 28.1105 38.4602 28.1705 38.3902C28.2305 38.3202 28.3005 38.2602 28.3905 38.2202C28.4805 38.1802 28.5805 38.1602 28.7005 38.1602C28.7805 38.1602 28.8605 38.1602 28.9305 38.1902C29.0005 38.2102 29.0705 38.2402 29.1305 38.2802C29.1905 38.3202 29.2305 38.3702 29.2705 38.4402C29.3105 38.5002 29.3305 38.5802 29.3405 38.6702H29.0905L29.0705 38.6802Z" fill="#191970"/>
<path d="M29.9902 38.21H30.2802V38.42H29.9902V39.33C29.9902 39.33 29.9902 39.38 29.9902 39.4C29.9902 39.42 30.0002 39.43 30.0202 39.44C30.0302 39.44 30.0502 39.46 30.0802 39.46C30.1002 39.46 30.1302 39.46 30.1702 39.46H30.2802V39.67H30.0902C30.0302 39.67 29.9702 39.67 29.9302 39.66C29.8902 39.65 29.8502 39.64 29.8202 39.61C29.7902 39.59 29.7702 39.56 29.7602 39.51C29.7502 39.47 29.7402 39.41 29.7402 39.34V38.4H29.4902V38.19H29.7402V37.75H29.9802V38.19L29.9902 38.21Z" fill="#191970"/>
<path d="M30.6003 38.2102H30.8303V38.5202C30.8903 38.4002 30.9603 38.3102 31.0503 38.2602C31.1403 38.2102 31.2403 38.1802 31.3703 38.1802V38.4402C31.2703 38.4402 31.1903 38.4502 31.1203 38.4802C31.0503 38.5102 31.0003 38.5502 30.9503 38.6002C30.9003 38.6502 30.8803 38.7102 30.8603 38.7902C30.8403 38.8602 30.8303 38.9502 30.8303 39.0402V39.7002H30.5903V38.2302L30.6003 38.2102Z" fill="#191970"/>
<path d="M31.8704 37.9501H31.6304V37.6501H31.8704V37.9501ZM31.6304 38.2101H31.8704V39.6801H31.6304V38.2101Z" fill="#191970"/>
<path d="M33.3005 38.6802C33.2805 38.5902 33.2405 38.5102 33.1805 38.4602C33.1205 38.4102 33.0405 38.3802 32.9405 38.3802C32.8505 38.3802 32.7805 38.4002 32.7205 38.4302C32.6605 38.4602 32.6105 38.5002 32.5805 38.5602C32.5505 38.6202 32.5205 38.6702 32.5005 38.7402C32.4805 38.8102 32.4805 38.8802 32.4805 38.9602C32.4805 39.0302 32.4805 39.0902 32.5005 39.1602C32.5205 39.2202 32.5405 39.2802 32.5805 39.3302C32.6105 39.3802 32.6605 39.4202 32.7105 39.4502C32.7605 39.4802 32.8305 39.5002 32.9105 39.5002C33.0305 39.5002 33.1205 39.4702 33.1905 39.4002C33.2605 39.3402 33.3005 39.2502 33.3205 39.1402H33.5705C33.5405 39.3202 33.4705 39.4602 33.3605 39.5602C33.2505 39.6602 33.1005 39.7102 32.9205 39.7102C32.8105 39.7102 32.7105 39.6902 32.6205 39.6502C32.5305 39.6102 32.4605 39.5602 32.4005 39.4902C32.3405 39.4202 32.3005 39.3402 32.2705 39.2502C32.2405 39.1602 32.2305 39.0602 32.2305 38.9502C32.2305 38.8402 32.2405 38.7402 32.2705 38.6402C32.3005 38.5402 32.3405 38.4602 32.4005 38.3902C32.4605 38.3202 32.5305 38.2602 32.6205 38.2202C32.7105 38.1802 32.8105 38.1602 32.9305 38.1602C33.0105 38.1602 33.0905 38.1602 33.1605 38.1902C33.2305 38.2102 33.3005 38.2402 33.3605 38.2802C33.4205 38.3202 33.4605 38.3702 33.5005 38.4402C33.5405 38.5002 33.5605 38.5802 33.5705 38.6702H33.3205L33.3005 38.6802Z" fill="#191970"/>
<path d="M35.2001 39.6802C35.2001 39.6802 35.1001 39.7202 35.0301 39.7202C34.9701 39.7202 34.9201 39.7002 34.8801 39.6702C34.8401 39.6302 34.8201 39.5802 34.8201 39.5002C34.7501 39.5802 34.6801 39.6402 34.5901 39.6702C34.5001 39.7102 34.4101 39.7202 34.3001 39.7202C34.2301 39.7202 34.1701 39.7202 34.1101 39.7002C34.0501 39.6802 34.0001 39.6602 33.9501 39.6302C33.9001 39.6002 33.8701 39.5502 33.8501 39.5002C33.8201 39.4502 33.8101 39.3802 33.8101 39.3102C33.8101 39.2302 33.8201 39.1602 33.8501 39.1002C33.8801 39.0502 33.9201 39.0002 33.9601 38.9702C34.0101 38.9402 34.0601 38.9102 34.1201 38.8902C34.1801 38.8702 34.2401 38.8602 34.3001 38.8502C34.3701 38.8402 34.4301 38.8302 34.4901 38.8202C34.5501 38.8202 34.6001 38.8002 34.6501 38.7902C34.7001 38.7802 34.7301 38.7602 34.7601 38.7402C34.7901 38.7202 34.8001 38.6802 34.8001 38.6402C34.8001 38.5902 34.7901 38.5402 34.7701 38.5102C34.7501 38.4802 34.7201 38.4502 34.6901 38.4402C34.6601 38.4202 34.6201 38.4102 34.5801 38.4102C34.5401 38.4102 34.5001 38.4102 34.4601 38.4102C34.3601 38.4102 34.2701 38.4302 34.2001 38.4702C34.1301 38.5102 34.0901 38.5802 34.0901 38.6902H33.8501C33.8501 38.6002 33.8701 38.5202 33.9101 38.4602C33.9501 38.4002 33.9901 38.3502 34.0501 38.3102C34.1101 38.2702 34.1701 38.2402 34.2501 38.2302C34.3201 38.2102 34.4001 38.2002 34.4801 38.2002C34.5501 38.2002 34.6101 38.2002 34.6801 38.2102C34.7501 38.2102 34.8001 38.2402 34.8601 38.2702C34.9101 38.3002 34.9601 38.3402 34.9901 38.3902C35.0201 38.4402 35.0401 38.5102 35.0401 38.6002V39.3602C35.0401 39.4202 35.0401 39.4602 35.0401 39.4902C35.0401 39.5202 35.0701 39.5302 35.1101 39.5302C35.1301 39.5302 35.1601 39.5302 35.1801 39.5202V39.7102L35.2001 39.6802ZM34.8001 38.9202C34.8001 38.9202 34.7501 38.9502 34.7101 38.9602C34.6801 38.9602 34.6401 38.9802 34.6001 38.9802C34.5601 38.9802 34.5201 38.9902 34.4801 39.0002C34.4401 39.0002 34.4001 39.0102 34.3601 39.0202C34.3201 39.0302 34.2801 39.0402 34.2501 39.0502C34.2101 39.0602 34.1801 39.0802 34.1601 39.1002C34.1301 39.1202 34.1101 39.1502 34.1001 39.1802C34.0801 39.2102 34.0801 39.2502 34.0801 39.2902C34.0801 39.3302 34.0801 39.3602 34.1001 39.3902C34.1201 39.4202 34.1401 39.4402 34.1601 39.4602C34.1901 39.4802 34.2201 39.4902 34.2501 39.5002C34.2801 39.5102 34.3201 39.5102 34.3601 39.5102C34.4401 39.5102 34.5101 39.5002 34.5701 39.4802C34.6301 39.4602 34.6701 39.4302 34.7101 39.4002C34.7501 39.3702 34.7701 39.3302 34.7901 39.2902C34.8101 39.2502 34.8201 39.2102 34.8201 39.1802V38.9302L34.8001 38.9202Z" fill="#191970"/>
<path d="M35.4902 37.6501H35.7302V39.6801H35.4902V37.6501Z" fill="#191970"/>
<path d="M7.3904 30.1701C7.0304 29.9601 6.6404 29.7801 6.2104 29.6501C5.7804 29.5201 5.36039 29.4001 4.95039 29.3101C4.51039 29.2001 4.14039 29.0901 3.84039 28.9801C3.54039 28.8701 3.32039 28.7301 3.18039 28.5801C3.04039 28.4301 2.9704 28.2301 2.9704 27.9901C2.9704 27.6601 3.1304 27.3901 3.4404 27.2001C3.7504 27.0101 4.1404 26.9101 4.6104 26.9101C5.1004 26.9101 5.56039 27.0101 5.98039 27.2101C6.40039 27.4101 6.74039 27.7301 7.01039 28.1701L8.23039 27.2301C7.88039 26.6201 7.4004 26.1501 6.7704 25.8401C6.1404 25.5301 5.4504 25.3701 4.6904 25.3701C3.6204 25.3701 2.77039 25.6301 2.12039 26.1401C1.47039 26.6501 1.15039 27.3301 1.15039 28.1701C1.15039 28.6501 1.2504 29.0501 1.4404 29.3801C1.6304 29.7101 1.89039 29.9701 2.20039 30.1801C2.51039 30.3901 2.8604 30.5601 3.2504 30.6901C3.6404 30.8201 4.0204 30.9401 4.3904 31.0501C4.8004 31.1401 5.1804 31.2501 5.5304 31.3801C5.8804 31.5101 6.16039 31.6701 6.37039 31.8601C6.58039 32.0501 6.6904 32.3101 6.6904 32.6301C6.6904 33.0301 6.52039 33.3501 6.18039 33.6001C5.84039 33.8501 5.38039 33.9701 4.79039 33.9701C4.12039 33.9701 3.5504 33.8101 3.0804 33.4801C2.6104 33.1501 2.2404 32.7601 1.9904 32.3101L0.650391 33.4701C0.880391 33.8201 1.18039 34.1501 1.56039 34.4801C1.94039 34.8101 2.40039 35.0701 2.93039 35.2801C3.46039 35.4901 4.0804 35.5901 4.7704 35.5901C5.5404 35.5901 6.22039 35.4601 6.79039 35.1901C7.36039 34.9201 7.8104 34.5501 8.1304 34.0801C8.4504 33.6101 8.6104 33.0601 8.6104 32.4301C8.6104 31.8601 8.5004 31.3901 8.2704 31.0301C8.0404 30.6701 7.7504 30.3801 7.3904 30.1701Z" fill="#191970"/>
<path d="M14.4902 25.3701C13.6502 25.3701 12.8702 25.5101 12.1602 25.8001C11.4502 26.0901 10.8002 26.5401 10.2102 27.1501L11.4302 28.4101C11.8702 27.9301 12.3302 27.5801 12.8202 27.3701C13.3102 27.1601 13.8202 27.0501 14.3502 27.0501C15.1102 27.0501 15.6902 27.2401 16.0902 27.6101C16.4902 27.9801 16.6902 28.5201 16.6902 29.2101V29.5301H13.7302C13.2402 29.5301 12.7702 29.5701 12.3402 29.6601C11.9102 29.7501 11.5202 29.9001 11.1902 30.1101C10.8302 30.3201 10.5402 30.6301 10.3102 31.0201C10.0802 31.4101 9.97021 31.8801 9.97021 32.4301C9.97021 33.0601 10.1202 33.6101 10.4302 34.0801C10.7402 34.5501 11.1702 34.9201 11.7302 35.1901C12.2902 35.4601 12.9402 35.5901 13.6702 35.5901C14.3102 35.5901 14.8902 35.4601 15.4002 35.1901C15.9102 34.9201 16.3402 34.5301 16.6902 34.0201C16.7002 34.0001 16.7102 33.9801 16.7202 33.9601V35.5901H18.6502V29.2101C18.6502 28.0001 18.2902 27.0501 17.5602 26.3801C16.8302 25.7101 15.8102 25.3701 14.4902 25.3701ZM16.6902 31.2901C16.6902 31.8101 16.5602 32.2701 16.3102 32.6801C16.0602 33.0901 15.7202 33.4101 15.3002 33.6401C14.8802 33.8701 14.4202 33.9901 13.9102 33.9901C13.3102 33.9901 12.8302 33.8501 12.4702 33.5701C12.1102 33.2901 11.9302 32.9201 11.9302 32.4501C11.9302 32.2101 11.9802 32.0001 12.0702 31.8201C12.1602 31.6401 12.2902 31.4901 12.4502 31.3701C12.6502 31.2201 12.8902 31.1301 13.1802 31.0801C13.4702 31.0301 13.7402 31.0101 14.0102 31.0101H16.6902V31.2901Z" fill="#191970"/>
<path d="M26.5503 26.0301C26.2603 25.8601 25.9703 25.7301 25.6803 25.6601C25.3903 25.5901 25.0903 25.5501 24.7703 25.5501C24.3203 25.5501 23.8603 25.6701 23.3903 25.9201C22.9203 26.1701 22.5203 26.5101 22.1803 26.9401C22.1103 27.0301 22.0503 27.1201 21.9903 27.2201V25.4001H20.0103V35.5901H21.9903V31.0901C21.9903 30.5701 22.0103 30.1601 22.0403 29.8601C22.0703 29.5601 22.1203 29.3201 22.1703 29.1301C22.2903 28.7401 22.4703 28.4301 22.7003 28.1901C22.9303 27.9501 23.2003 27.7801 23.4903 27.6701C23.7803 27.5601 24.0803 27.5101 24.3903 27.5101C24.5903 27.5101 24.8003 27.5401 25.0303 27.5901C25.2603 27.6401 25.4403 27.7101 25.5903 27.7901L26.5503 26.0301Z" fill="#191970"/>
<path d="M34.8405 26.3901C34.1105 25.7201 33.0905 25.3801 31.7705 25.3801C31.7705 25.3801 31.7605 25.3801 31.7505 25.3801C31.7505 25.3801 31.7505 25.3801 31.7405 25.3801C30.9005 25.3801 30.1205 25.5201 29.4105 25.8101C28.7005 26.1001 28.0505 26.5501 27.4605 27.1601L28.6805 28.4201C28.6805 28.4201 28.6905 28.4101 28.7005 28.4001L28.7205 28.4201C29.1605 27.9401 29.6205 27.5901 30.1105 27.3801C30.5905 27.1701 31.1005 27.0601 31.6305 27.0601C32.3805 27.0601 32.9505 27.2501 33.3505 27.6201C33.7505 27.9901 33.9505 28.5301 33.9505 29.2201V29.5401H30.9905C30.5005 29.5401 30.0305 29.5801 29.6005 29.6701C29.1705 29.7601 28.7805 29.9101 28.4505 30.1201C28.0905 30.3301 27.8005 30.6401 27.5705 31.0301C27.3405 31.4201 27.2305 31.8901 27.2305 32.4401C27.2305 33.0701 27.3805 33.6201 27.6905 34.0901C28.0005 34.5601 28.4305 34.9301 28.9905 35.2001C29.5505 35.4701 30.2005 35.6001 30.9305 35.6001C30.9305 35.6001 30.9305 35.6001 30.9405 35.6001C30.9405 35.6001 30.9505 35.6001 30.9605 35.6001C31.6005 35.6001 32.1805 35.4701 32.6905 35.2001C33.2005 34.9301 33.6305 34.5401 33.9805 34.0301L34.0105 34.3501V35.6101H35.9405V29.2301C35.9405 28.0201 35.5805 27.0701 34.8505 26.4001L34.8405 26.3901ZM33.9405 31.0101V31.2901C33.9405 31.8101 33.8105 32.2701 33.5605 32.6801C33.3105 33.0901 32.9705 33.4101 32.5505 33.6401C32.1305 33.8701 31.6805 33.9901 31.1805 33.9901C30.5905 33.9901 30.1105 33.8501 29.7605 33.5701C29.4005 33.2901 29.2205 32.9201 29.2205 32.4501C29.2205 32.2101 29.2705 32.0001 29.3605 31.8201C29.4505 31.6401 29.5805 31.4901 29.7405 31.3701C29.9405 31.2201 30.1805 31.1301 30.4705 31.0801C30.7605 31.0301 31.0305 31.0101 31.3005 31.0101H33.9505H33.9405Z" fill="#191970"/>
<path d="M37.7002 25.3701L37.4502 26.0901L37.1902 25.3701H36.9302V26.3901H37.0902V25.5401L37.3902 26.3201H37.5002L37.8002 25.5501V26.3901H37.9602V25.3701H37.7002Z" fill="#191970"/>
<path d="M35.9302 25.5301H36.2302V26.3901H36.4002V25.5301H36.7002V25.3701H35.9302V25.5301Z" fill="#191970"/>
<path d="M13.3438 8.51968L11.6963 10.1672L18.2865 16.7575L19.9341 15.1099L13.3438 8.51968Z" fill="#FF0000"/>
<path d="M24.8807 16.7601L18.2907 23.3501L11.7007 16.7601L13.3507 15.1101L18.2907 20.0501L23.2307 15.1101L24.8807 16.7601Z" fill="#FF0000"/>
<path d="M24.8807 6.87003L23.2307 8.52002L18.2907 3.58003L13.3507 8.52002L11.7007 6.87003L18.2907 0.280029L24.8807 6.87003Z" fill="#FF0000"/>
<path d="M18.2892 6.87958L16.6431 8.52856L23.239 15.113L24.8852 13.4641L18.2892 6.87958Z" fill="#FF0000"/>
</svg>
