<svg width="34" height="42" viewBox="0 0 34 42" fill="none" xmlns="http://www.w3.org/2000/svg">
<path d="M26.9896 30.6V29.13C26.9896 28.81 26.7296 28.55 26.4096 28.55H22.4596C22.1396 28.55 21.8796 28.81 21.8796 29.13V30.6M19.3496 34.39V36.17M29.5196 34.39V36.17M11.3596 31.11H9.79958M24.1396 22.99V26.95M21.9696 26.95V22.41M8.34958 37.25V29.46H20.0496M9.58957 29.48V23.01M11.7596 22.42V29.48M6.59958 34.32H4.02957M6.59958 32.8H4.02957M6.59958 31.29H4.02957M4.31958 22.27V26.22M3.11957 29.71C3.18957 29.04 3.19958 28.15 3.09958 27.79L2.43957 27.38V26.22H6.20958V27.38L5.54958 27.79C5.46958 28.1 5.45957 28.87 5.50957 29.41M6.08957 35.67C6.01957 36.82 5.63957 37.89 4.47957 37.91H4.14957C2.99957 37.89 2.60957 36.83 2.53957 35.67M6.25957 24.61C7.40957 23.72 8.93957 23.05 10.5396 22.65C11.4196 22.43 12.3496 22.26 13.2996 22.14L16.8796 25.94L20.4596 22.14C21.4096 22.26 22.3396 22.43 23.2196 22.65C26.3796 23.44 29.2396 25.27 29.5596 27.82L29.8196 30.21M22.9296 11.56C23.4696 11.63 23.8696 12.14 23.8696 12.82C23.8696 13.63 23.3096 14.37 22.6196 14.49C22.4496 15.61 22.1896 16.65 21.8596 17.26C19.7696 21.07 14.0096 21.07 11.9196 17.26C11.5796 16.65 11.3296 15.61 11.1596 14.49C10.4696 14.37 9.90958 13.63 9.90958 12.82C9.90958 12.14 10.3096 11.63 10.8496 11.56M20.9796 2.95003C22.6996 4.21003 23.9496 6.21003 24.1496 8.48003C24.1696 9.02003 24.6396 8.70001 24.7496 9.78001C24.7996 10.3 24.8196 10.8 24.8096 11.31C24.7996 11.42 24.7696 11.51 24.7196 11.58H9.04958C8.99958 11.51 8.96958 11.42 8.95958 11.31C8.93958 10.8 8.95958 10.3 9.01958 9.78001C9.12958 8.70001 9.59957 9.03003 9.61957 8.48003C9.80957 6.21003 11.0696 4.21003 12.7896 2.95003M14.8296 8.16002L13.7396 2.16002C14.0196 0.64002 19.7496 0.64002 20.0296 2.16002L18.9396 8.16002M16.2996 34.39H32.5696V40.16C32.5696 40.64 32.1796 41.03 31.6996 41.03H17.1696C16.6896 41.03 16.2996 40.64 16.2996 40.16V34.39ZM33.1696 34.39V32.12C33.1696 31.87 32.9596 31.67 32.7196 31.67H16.1496C15.9096 31.67 15.6996 31.88 15.6996 32.12V34.39H33.1696ZM1.06958 29.29L2.85957 27.71L2.87958 29.83H6.13957C6.45957 29.86 6.59958 30.05 6.59958 30.36V34.99C6.59958 35.88 5.33957 35.96 3.43957 35.96C2.72957 35.96 1.85957 36.04 1.43957 35.55C0.229575 34.05 0.73957 29.68 1.05957 29.29H1.06958ZM3.76958 22.27L3.08957 20.96C2.95957 20.48 3.25957 19.22 3.33957 18.62H5.30957C5.38957 19.22 5.67957 20.49 5.55957 20.96L4.87958 22.27H3.77957H3.76958Z" stroke="white" stroke-width="0.75" stroke-miterlimit="10"/>
</svg>
