<svg width="37" height="40" viewBox="0 0 37 40" fill="none" xmlns="http://www.w3.org/2000/svg">
<path d="M4.50049 8.50999V0" stroke="#191970" stroke-miterlimit="10"/>
<path d="M13.0103 8.50999V0" stroke="#191970" stroke-miterlimit="10"/>
<path d="M1.0903 8.51001V12.77C1.0903 13.61 3.64032 14.44 3.64032 14.44V18.73C3.64032 20.61 5.16031 22.13 7.04031 22.13H10.4403C12.3203 22.13 13.8403 20.61 13.8403 18.73V14.44C13.8403 14.44 16.3903 13.6 16.3903 12.77V8.51001H1.07031H1.0903Z" stroke="#191970" stroke-miterlimit="10"/>
<path d="M6.2002 14.47H11.3002" stroke="#191970" stroke-miterlimit="10"/>
<path d="M6.2002 17.8701H11.3002" stroke="#191970" stroke-miterlimit="10"/>
<path d="M8.75049 22.1299V30.6399C8.75049 34.3999 11.8005 37.4499 15.5605 37.4499C19.3205 37.4499 22.3705 34.3999 22.3705 30.6399V10.2099C22.3705 6.4499 25.4205 3.3999 29.1805 3.3999C32.9405 3.3999 35.9905 6.4499 35.9905 10.2099V39.9999" stroke="#191970" stroke-miterlimit="10"/>
</svg>
