<svg width="37" height="34" viewBox="0 0 37 34" fill="none" xmlns="http://www.w3.org/2000/svg">
<path d="M34.2304 0.48999H2.0704C1.28616 0.48999 0.650391 1.12573 0.650391 1.90997V32.14C0.650391 32.9242 1.28616 33.56 2.0704 33.56H34.2304C35.0147 33.56 35.6504 32.9242 35.6504 32.14V1.90997C35.6504 1.12573 35.0147 0.48999 34.2304 0.48999Z" stroke="white" stroke-width="0.75" stroke-miterlimit="10"/>
<path d="M30.2103 3.79004H21.2403C20.445 3.79004 19.8003 4.43475 19.8003 5.23004V28.81C19.8003 29.6053 20.445 30.25 21.2403 30.25H30.2103C31.0056 30.25 31.6503 29.6053 31.6503 28.81V5.23004C31.6503 4.43475 31.0056 3.79004 30.2103 3.79004Z" stroke="white" stroke-width="0.75" stroke-miterlimit="10"/>
<path d="M31.6503 9.39014H19.8003V17.6701H31.6503V9.39014Z" stroke="white" stroke-width="0.75" stroke-miterlimit="10"/>
<path d="M6.10025 30.25H15.0703C15.8655 30.25 16.5103 29.6053 16.5103 28.81L16.5103 5.23001C16.5103 4.43472 15.8655 3.79001 15.0703 3.79001H6.10025C5.30496 3.79001 4.66025 4.43472 4.66025 5.23001L4.66025 28.81C4.66025 29.6053 5.30496 30.25 6.10025 30.25Z" stroke="white" stroke-width="0.75" stroke-miterlimit="10"/>
<path d="M4.66025 24.6401H16.5103V16.3601H4.66025L4.66025 24.6401Z" stroke="white" stroke-width="0.75" stroke-miterlimit="10"/>
</svg>
