<svg width="37" height="34" viewBox="0 0 37 34" fill="none" xmlns="http://www.w3.org/2000/svg">
<path d="M34.8495 0.469971H2.68951C1.90527 0.469971 1.26953 1.10572 1.26953 1.88997V32.1199C1.26953 32.9042 1.90527 33.54 2.68951 33.54H34.8495C35.6337 33.54 36.2695 32.9042 36.2695 32.1199V1.88997C36.2695 1.10572 35.6337 0.469971 34.8495 0.469971Z" stroke="#191970" stroke-width="0.75" stroke-miterlimit="10"/>
<path d="M25.8292 10.5601H28.7191C29.5091 10.5601 30.1591 11.2101 30.1591 12.0001V21.4201H24.3892V12.0001C24.3892 11.2101 25.0392 10.5601 25.8292 10.5601Z" stroke="#191970" stroke-width="0.75" stroke-miterlimit="10"/>
<path d="M29.7191 21.4202H24.8291C24.2768 21.4202 23.8291 21.8679 23.8291 22.4202V22.4302C23.8291 22.9825 24.2768 23.4302 24.8291 23.4302H29.7191C30.2713 23.4302 30.7191 22.9825 30.7191 22.4302V22.4202C30.7191 21.8679 30.2713 21.4202 29.7191 21.4202Z" stroke="#191970" stroke-width="0.75" stroke-miterlimit="10"/>
<path d="M17.3292 10.5601H20.2191C21.0091 10.5601 21.6591 11.2101 21.6591 12.0001V21.4201H15.8892V12.0001C15.8892 11.2101 16.5392 10.5601 17.3292 10.5601Z" stroke="#191970" stroke-width="0.75" stroke-miterlimit="10"/>
<path d="M21.2191 21.4202H16.3291C15.7768 21.4202 15.3291 21.8679 15.3291 22.4202V22.4302C15.3291 22.9825 15.7768 23.4302 16.3291 23.4302H21.2191C21.7713 23.4302 22.2191 22.9825 22.2191 22.4302V22.4202C22.2191 21.8679 21.7713 21.4202 21.2191 21.4202Z" stroke="#191970" stroke-width="0.75" stroke-miterlimit="10"/>
<path d="M8.8194 10.5601H11.7094C12.4994 10.5601 13.1494 11.2101 13.1494 12.0001V21.4201H7.37939V12.0001C7.37939 11.2101 8.0294 10.5601 8.8194 10.5601Z" stroke="#191970" stroke-width="0.75" stroke-miterlimit="10"/>
<path d="M12.7094 21.4202H7.81934C7.26705 21.4202 6.81934 21.8679 6.81934 22.4202V22.4302C6.81934 22.9825 7.26705 23.4302 7.81934 23.4302H12.7094C13.2616 23.4302 13.7094 22.9825 13.7094 22.4302V22.4202C13.7094 21.8679 13.2616 21.4202 12.7094 21.4202Z" stroke="#191970" stroke-width="0.75" stroke-miterlimit="10"/>
<path d="M36.2695 6.60986H1.26953V27.3999H36.2695V6.60986Z" stroke="#191970" stroke-width="0.75" stroke-miterlimit="10"/>
</svg>
