<svg width="41" height="42" viewBox="0 0 41 42" fill="none" xmlns="http://www.w3.org/2000/svg">
<path fill-rule="evenodd" clip-rule="evenodd" d="M22.58 4.91008C23.34 5.01008 23.86 4.66006 24.25 3.83006L25.0499 2.12007C25.3399 1.50007 26.05 1.31007 26.7 1.52007C28.3 2.04007 29.82 2.74006 31.25 3.64006C31.83 4.00006 32.1399 4.67005 31.8499 5.29005L31.0499 7.00008C30.6699 7.83008 30.7299 8.45008 31.2999 8.97008C32.0299 9.63008 32.72 10.3801 33.32 11.1701C33.78 11.7801 34.4 11.9001 35.26 11.5901L37.0399 10.9401C37.6799 10.7101 38.32 11.0701 38.63 11.6801C39.39 13.1701 39.9699 14.7401 40.3499 16.4001C40.4999 17.0701 40.2499 17.7601 39.6099 17.9901L37.83 18.6401C36.97 18.9501 36.5799 19.4401 36.6099 20.2101C36.6599 21.2001 36.6099 22.2101 36.4799 23.1901C36.3799 23.9501 36.73 24.4701 37.56 24.8601L39.27 25.6601C39.89 25.9501 40.08 26.6601 39.87 27.3101C39.35 28.9101 38.65 30.4301 37.75 31.8601C37.39 32.4401 36.7199 32.7501 36.0999 32.4601L34.39 31.6601C33.56 31.2801 32.9399 31.3401 32.4199 31.9101C31.7599 32.6401 31.0099 33.3301 30.2199 33.9301C29.6099 34.3901 29.4899 35.0101 29.7999 35.8701L30.45 37.6501C30.68 38.2901 30.32 38.9301 29.71 39.2401C28.22 40.0001 26.6499 40.5801 24.9899 40.9601C24.3199 41.1101 23.63 40.8601 23.4 40.2201L22.75 38.4401C22.44 37.5801 21.95 37.1901 21.18 37.2201C20.19 37.2701 19.18 37.2201 18.2 37.0901C17.44 36.9901 16.92 37.3401 16.53 38.1701L15.7299 39.8801C15.4399 40.5001 14.73 40.6901 14.08 40.4801C12.48 39.9601 10.96 39.2601 9.52999 38.3601C8.94999 38.0001 8.63995 37.3301 8.92995 36.7101L9.72994 35.0001C10.1099 34.1701 10.0499 33.5501 9.47994 33.0301C8.74994 32.3701 8.05998 31.6201 7.45998 30.8301C6.99998 30.2201 6.37998 30.1001 5.51998 30.4101L3.73995 31.0601C3.09995 31.2901 2.45998 30.9301 2.14998 30.3201C1.38998 28.8301 0.80995 27.2601 0.42995 25.6001C0.27995 24.9301 0.52994 24.2401 1.16994 24.0101L2.94997 23.3601C3.80997 23.0501 4.19994 22.5601 4.16994 21.7901C4.11994 20.8001 4.16994 19.7901 4.29994 18.8101C4.39994 18.0501 4.04993 17.5301 3.21993 17.1401L1.50997 16.3401C0.889967 16.0501 0.69993 15.3401 0.90993 14.6901C1.42993 13.0901 2.12999 11.5701 3.02999 10.1401C3.38999 9.56006 4.05995 9.25005 4.67995 9.54005L6.38997 10.3401C7.21997 10.7201 7.83994 10.6601 8.35994 10.0901C9.01994 9.36007 9.76995 8.67005 10.56 8.07005C11.17 7.61005 11.2899 6.99008 10.9799 6.13008L10.33 4.35005C10.1 3.71005 10.46 3.07006 11.07 2.76006C12.56 2.00006 14.1299 1.42005 15.7899 1.04005C16.4599 0.890054 17.15 1.14008 17.38 1.78008L18.03 3.56007C18.34 4.42007 18.8299 4.81008 19.5999 4.78008C20.5899 4.73008 21.6 4.78008 22.58 4.91008Z" stroke="white" stroke-width="0.75" stroke-miterlimit="10"/>
<path d="M12.1801 29.91C16.9401 34.29 24.3501 34.18 28.9601 29.56C33.2301 25.29 33.6501 18.62 30.2101 13.88M28.35 11.84C23.59 7.69 16.3501 7.88001 11.8201 12.41C7.63007 16.6 7.15007 23.1 10.3801 27.82" stroke="white" stroke-width="0.75" stroke-miterlimit="10"/>
<path d="M30.2202 13.8799L29.0502 15.0499L29.3802 20.9999L27.5303 22.8699" stroke="white" stroke-width="0.75" stroke-miterlimit="10"/>
<path d="M28.3502 11.8401L25.9003 14.3001L26.0303 18.1401L20.4902 23.7001" stroke="white" stroke-width="0.75" stroke-miterlimit="10"/>
<path d="M12.1802 29.9099L14.5702 27.5299L14.6102 23.6099L20.3302 17.9299" stroke="white" stroke-width="0.75" stroke-miterlimit="10"/>
<path d="M10.4102 27.8001L11.3702 26.8501L11.5502 20.6801L13.1502 19.0801" stroke="white" stroke-width="0.75" stroke-miterlimit="10"/>
<path fill-rule="evenodd" clip-rule="evenodd" d="M27.3303 23.0601C26.6203 22.3501 25.4603 22.3501 24.7503 23.0601C24.0403 23.7701 24.0403 24.9301 24.7503 25.6401C25.4603 26.3501 26.6203 26.3501 27.3303 25.6401C28.0403 24.9301 28.0403 23.7701 27.3303 23.0601Z" stroke="white" stroke-width="0.75" stroke-miterlimit="10"/>
<path fill-rule="evenodd" clip-rule="evenodd" d="M20.3801 23.8201C19.6701 23.1101 18.5101 23.1101 17.8001 23.8201C17.0901 24.5301 17.0901 25.6901 17.8001 26.4001C18.5101 27.1101 19.6701 27.1101 20.3801 26.4001C21.0901 25.6901 21.0901 24.5301 20.3801 23.8201Z" stroke="white" stroke-width="0.75" stroke-miterlimit="10"/>
<path fill-rule="evenodd" clip-rule="evenodd" d="M23.0002 15.26C22.2902 14.55 21.1302 14.55 20.4202 15.26C19.7102 15.97 19.7102 17.1301 20.4202 17.8401C21.1302 18.5501 22.2902 18.5501 23.0002 17.8401C23.7102 17.1301 23.7102 15.97 23.0002 15.26Z" stroke="white" stroke-width="0.75" stroke-miterlimit="10"/>
<path fill-rule="evenodd" clip-rule="evenodd" d="M15.7902 16.44C15.0802 15.73 13.9202 15.73 13.2102 16.44C12.5002 17.15 12.5002 18.31 13.2102 19.02C13.9202 19.73 15.0802 19.73 15.7902 19.02C16.5002 18.31 16.5002 17.15 15.7902 16.44Z" stroke="white" stroke-width="0.75" stroke-miterlimit="10"/>
</svg>
