<svg width="38" height="40" viewBox="0 0 38 40" fill="none" xmlns="http://www.w3.org/2000/svg">
<path d="M7.55957 37.3701H8.95959V37.6001H7.82959V38.2501H8.88959V38.4801H7.82959V39.1801H8.96954V39.4101H7.55957V37.3801V37.3701Z" fill="#191970"/>
<path d="M9.31958 37.9301H9.54956V38.1601C9.59956 38.0701 9.66957 38.0001 9.74957 37.9601C9.82957 37.9201 9.9196 37.8901 10.0296 37.8901C10.1296 37.8901 10.2096 37.9001 10.2696 37.9301C10.3296 37.9601 10.3896 37.9901 10.4296 38.0401C10.4696 38.0901 10.4996 38.1401 10.5096 38.2101C10.5196 38.2801 10.5296 38.3501 10.5296 38.4301V39.4001H10.2896V38.4001C10.2896 38.3101 10.2596 38.2401 10.2096 38.1801C10.1596 38.1301 10.0796 38.1001 9.98956 38.1001C9.91956 38.1001 9.84956 38.1101 9.79956 38.1301C9.74956 38.1501 9.69955 38.1901 9.65955 38.2301C9.61955 38.2701 9.59959 38.3201 9.57959 38.3801C9.55959 38.4401 9.54956 38.5001 9.54956 38.5601V39.3901H9.30957V37.9201L9.31958 37.9301Z" fill="#191970"/>
<path d="M12.2294 39.2801C12.2294 39.5201 12.1694 39.7001 12.0594 39.8201C11.9494 39.9401 11.7794 40.0001 11.5394 40.0001C11.4694 40.0001 11.3994 40.0001 11.3294 39.9801C11.2594 39.9601 11.1894 39.9401 11.1394 39.9101C11.0794 39.8801 11.0294 39.8301 10.9994 39.7801C10.9694 39.7301 10.9394 39.6601 10.9394 39.5801H11.1794C11.1794 39.5801 11.1994 39.6601 11.2194 39.6901C11.2494 39.7201 11.2794 39.7501 11.3094 39.7601C11.3494 39.7801 11.3894 39.7901 11.4294 39.8001C11.4694 39.8001 11.5194 39.8101 11.5594 39.8101C11.6394 39.8101 11.7094 39.8001 11.7594 39.7701C11.8094 39.7401 11.8594 39.7001 11.8994 39.6601C11.9394 39.6101 11.9594 39.5501 11.9794 39.4801C11.9994 39.4101 11.9994 39.3401 11.9994 39.2501V39.1501C11.9994 39.1501 11.9494 39.2401 11.9194 39.2701C11.8894 39.3001 11.8494 39.3301 11.8094 39.3501C11.7694 39.3701 11.7294 39.3901 11.6794 39.4001C11.6294 39.4101 11.5894 39.4201 11.5394 39.4201C11.4294 39.4201 11.3294 39.4001 11.2494 39.3601C11.1694 39.3201 11.0994 39.2701 11.0394 39.2001C10.9794 39.1301 10.9394 39.0501 10.9194 38.9601C10.8994 38.8701 10.8794 38.7701 10.8794 38.6701C10.8794 38.5801 10.8894 38.4901 10.9094 38.4001C10.9294 38.3101 10.9694 38.2301 11.0194 38.1501C11.0694 38.0701 11.1394 38.0101 11.2294 37.9601C11.3194 37.9101 11.4194 37.8901 11.5494 37.8901C11.6394 37.8901 11.7294 37.9101 11.8094 37.9501C11.8894 37.9901 11.9494 38.0501 11.9894 38.1301V37.9201H12.2194V39.2701L12.2294 39.2801ZM11.5594 39.2101C11.6394 39.2101 11.7094 39.1901 11.7594 39.1601C11.8194 39.1301 11.8594 39.0801 11.8994 39.0301C11.9294 38.9801 11.9594 38.9101 11.9794 38.8501C11.9994 38.7801 11.9994 38.7101 11.9994 38.6401C11.9994 38.5801 11.9994 38.5101 11.9794 38.4501C11.9594 38.3901 11.9394 38.3301 11.9094 38.2801C11.8794 38.2301 11.8294 38.1901 11.7794 38.1601C11.7294 38.1301 11.6594 38.1101 11.5894 38.1101C11.5194 38.1101 11.4494 38.1201 11.3894 38.1501C11.3294 38.1801 11.2894 38.2201 11.2494 38.2701C11.2094 38.3201 11.1894 38.3801 11.1694 38.4401C11.1494 38.5001 11.1494 38.5701 11.1494 38.6401C11.1494 38.7101 11.1494 38.7701 11.1694 38.8401C11.1794 38.9101 11.2094 38.9701 11.2394 39.0201C11.2694 39.0701 11.3094 39.1201 11.3694 39.1501C11.4194 39.1801 11.4894 39.2001 11.5694 39.2001L11.5594 39.2101Z" fill="#191970"/>
<path d="M12.9094 37.6601H12.6694V37.3601H12.9094V37.6601ZM12.6694 37.9301H12.9094V39.4001H12.6694V37.9301Z" fill="#191970"/>
<path d="M13.3396 37.9301H13.5696V38.1601C13.6196 38.0701 13.6896 38.0001 13.7696 37.9601C13.8496 37.9201 13.9396 37.8901 14.0496 37.8901C14.1496 37.8901 14.2296 37.9001 14.2896 37.9301C14.3496 37.9601 14.4096 37.9901 14.4496 38.0401C14.4896 38.0901 14.5196 38.1401 14.5296 38.2101C14.5396 38.2801 14.5496 38.3501 14.5496 38.4301V39.4001H14.3096V38.4001C14.3096 38.3101 14.2796 38.2401 14.2296 38.1801C14.1796 38.1301 14.0996 38.1001 14.0096 38.1001C13.9396 38.1001 13.8696 38.1101 13.8196 38.1301C13.7696 38.1501 13.7196 38.1901 13.6796 38.2301C13.6396 38.2701 13.6195 38.3201 13.5995 38.3801C13.5795 38.4401 13.5696 38.5001 13.5696 38.5601V39.3901H13.3296V37.9201L13.3396 37.9301Z" fill="#191970"/>
<path d="M16.2394 38.9401C16.2094 39.1001 16.1394 39.2301 16.0294 39.3101C15.9194 39.4001 15.7794 39.4401 15.6094 39.4401C15.4894 39.4401 15.3894 39.4201 15.2994 39.3801C15.2094 39.3401 15.1394 39.2901 15.0794 39.2201C15.0194 39.1501 14.9794 39.0701 14.9494 38.9801C14.9194 38.8901 14.8994 38.7801 14.8994 38.6701C14.8994 38.5601 14.9194 38.4601 14.9494 38.3601C14.9794 38.2701 15.0294 38.1801 15.0894 38.1201C15.1494 38.0501 15.2194 38.0001 15.3094 37.9601C15.3894 37.9201 15.4894 37.9001 15.5894 37.9001C15.7194 37.9001 15.8294 37.9301 15.9194 37.9801C16.0094 38.0301 16.0794 38.1001 16.1294 38.1901C16.1794 38.2801 16.2194 38.3601 16.2394 38.4601C16.2594 38.5601 16.2694 38.6501 16.2594 38.7401H15.1594C15.1594 38.8001 15.1594 38.8701 15.1794 38.9201C15.1994 38.9801 15.2194 39.0301 15.2594 39.0701C15.2994 39.1101 15.3494 39.1501 15.4094 39.1801C15.4694 39.2101 15.5394 39.2201 15.6194 39.2201C15.7194 39.2201 15.7994 39.2001 15.8694 39.1501C15.9394 39.1001 15.9794 39.0301 15.9994 38.9301H16.2394V38.9401ZM16.0094 38.5301C16.0094 38.4701 15.9894 38.4201 15.9694 38.3701C15.9494 38.3201 15.9194 38.2701 15.8794 38.2401C15.8394 38.2101 15.7994 38.1701 15.7494 38.1501C15.6994 38.1301 15.6394 38.1201 15.5794 38.1201C15.5194 38.1201 15.4594 38.1301 15.4094 38.1501C15.3594 38.1701 15.3194 38.2001 15.2794 38.2401C15.2394 38.2801 15.2194 38.3201 15.1894 38.3701C15.1594 38.4201 15.1594 38.4701 15.1494 38.5301H15.9994H16.0094Z" fill="#191970"/>
<path d="M17.8298 38.9401C17.7998 39.1001 17.7298 39.2301 17.6198 39.3101C17.5098 39.4001 17.3698 39.4401 17.1998 39.4401C17.0798 39.4401 16.9798 39.4201 16.8898 39.3801C16.7998 39.3401 16.7297 39.2901 16.6697 39.2201C16.6097 39.1501 16.5697 39.0701 16.5397 38.9801C16.5097 38.8901 16.4897 38.7801 16.4897 38.6701C16.4897 38.5601 16.5097 38.4601 16.5397 38.3601C16.5697 38.2701 16.6197 38.1801 16.6797 38.1201C16.7397 38.0501 16.8098 38.0001 16.8998 37.9601C16.9798 37.9201 17.0797 37.9001 17.1797 37.9001C17.3097 37.9001 17.4198 37.9301 17.5098 37.9801C17.5998 38.0301 17.6697 38.1001 17.7197 38.1901C17.7697 38.2801 17.8098 38.3601 17.8298 38.4601C17.8498 38.5601 17.8597 38.6501 17.8497 38.7401H16.7498C16.7498 38.8001 16.7498 38.8701 16.7698 38.9201C16.7898 38.9801 16.8097 39.0301 16.8497 39.0701C16.8897 39.1101 16.9398 39.1501 16.9998 39.1801C17.0598 39.2101 17.1298 39.2201 17.2098 39.2201C17.3098 39.2201 17.3898 39.2001 17.4598 39.1501C17.5298 39.1001 17.5698 39.0301 17.5898 38.9301H17.8298V38.9401ZM17.5898 38.5301C17.5898 38.4701 17.5697 38.4201 17.5497 38.3701C17.5297 38.3201 17.4998 38.2701 17.4598 38.2401C17.4198 38.2101 17.3798 38.1701 17.3298 38.1501C17.2798 38.1301 17.2197 38.1201 17.1597 38.1201C17.0997 38.1201 17.0397 38.1301 16.9897 38.1501C16.9397 38.1701 16.8997 38.2001 16.8597 38.2401C16.8197 38.2801 16.7998 38.3201 16.7698 38.3701C16.7398 38.4201 16.7397 38.4701 16.7297 38.5301H17.5798H17.5898Z" fill="#191970"/>
<path d="M18.1497 37.9301H18.3796V38.2401C18.4396 38.1201 18.5096 38.0301 18.5996 37.9801C18.6896 37.9301 18.7896 37.9001 18.9196 37.9001V38.1601C18.8196 38.1601 18.7396 38.1701 18.6696 38.2001C18.5996 38.2301 18.5496 38.2701 18.4996 38.3201C18.4496 38.3701 18.4296 38.4301 18.4096 38.5101C18.3896 38.5801 18.3796 38.6701 18.3796 38.7601V39.4201H18.1396V37.9501L18.1497 37.9301Z" fill="#191970"/>
<path d="M19.4197 37.6601H19.1797V37.3601H19.4197V37.6601ZM19.1797 37.9301H19.4197V39.4001H19.1797V37.9301Z" fill="#191970"/>
<path d="M19.8498 37.9301H20.0798V38.1601C20.1298 38.0701 20.1998 38.0001 20.2798 37.9601C20.3598 37.9201 20.4498 37.8901 20.5598 37.8901C20.6598 37.8901 20.7398 37.9001 20.7998 37.9301C20.8598 37.9601 20.9198 37.9901 20.9598 38.0401C20.9998 38.0901 21.0298 38.1401 21.0398 38.2101C21.0498 38.2801 21.0598 38.3501 21.0598 38.4301V39.4001H20.8198V38.4001C20.8198 38.3101 20.7898 38.2401 20.7398 38.1801C20.6898 38.1301 20.6098 38.1001 20.5198 38.1001C20.4498 38.1001 20.3798 38.1101 20.3298 38.1301C20.2798 38.1501 20.2298 38.1901 20.1898 38.2301C20.1498 38.2701 20.1298 38.3201 20.1098 38.3801C20.0898 38.4401 20.0798 38.5001 20.0798 38.5601V39.3901H19.8398V37.9201L19.8498 37.9301Z" fill="#191970"/>
<path d="M22.7597 39.2801C22.7597 39.5201 22.6997 39.7001 22.5897 39.8201C22.4797 39.9401 22.3097 40.0001 22.0697 40.0001C21.9997 40.0001 21.9297 40.0001 21.8597 39.9801C21.7897 39.9601 21.7197 39.9401 21.6697 39.9101C21.6097 39.8801 21.5597 39.8301 21.5297 39.7801C21.4997 39.7301 21.4697 39.6601 21.4697 39.5801H21.7097C21.7097 39.5801 21.7297 39.6601 21.7497 39.6901C21.7797 39.7201 21.8097 39.7501 21.8397 39.7601C21.8797 39.7801 21.9197 39.7901 21.9597 39.8001C21.9997 39.8001 22.0497 39.8101 22.0897 39.8101C22.1697 39.8101 22.2397 39.8001 22.2897 39.7701C22.3397 39.7401 22.3897 39.7001 22.4297 39.6601C22.4697 39.6101 22.4897 39.5501 22.5097 39.4801C22.5297 39.4101 22.5297 39.3401 22.5297 39.2501V39.1501C22.5297 39.1501 22.4797 39.2401 22.4497 39.2701C22.4197 39.3001 22.3797 39.3301 22.3397 39.3501C22.2997 39.3701 22.2597 39.3901 22.2097 39.4001C22.1597 39.4101 22.1197 39.4201 22.0697 39.4201C21.9597 39.4201 21.8597 39.4001 21.7797 39.3601C21.6997 39.3201 21.6297 39.2701 21.5697 39.2001C21.5097 39.1301 21.4697 39.0501 21.4497 38.9601C21.4297 38.8701 21.4097 38.7701 21.4097 38.6701C21.4097 38.5801 21.4197 38.4901 21.4397 38.4001C21.4597 38.3101 21.4997 38.2301 21.5497 38.1501C21.5997 38.0701 21.6697 38.0101 21.7597 37.9601C21.8497 37.9101 21.9497 37.8901 22.0797 37.8901C22.1697 37.8901 22.2597 37.9101 22.3397 37.9501C22.4197 37.9901 22.4797 38.0501 22.5197 38.1301V37.9201H22.7497V39.2701L22.7597 39.2801ZM22.0897 39.2101C22.1697 39.2101 22.2397 39.1901 22.2897 39.1601C22.3497 39.1301 22.3897 39.0801 22.4297 39.0301C22.4597 38.9801 22.4897 38.9101 22.5097 38.8501C22.5297 38.7801 22.5297 38.7101 22.5297 38.6401C22.5297 38.5801 22.5297 38.5101 22.5097 38.4501C22.4897 38.3901 22.4697 38.3301 22.4397 38.2801C22.4097 38.2301 22.3597 38.1901 22.3097 38.1601C22.2597 38.1301 22.1897 38.1101 22.1197 38.1101C22.0497 38.1101 21.9797 38.1201 21.9197 38.1501C21.8597 38.1801 21.8197 38.2201 21.7797 38.2701C21.7397 38.3201 21.7197 38.3801 21.6997 38.4401C21.6797 38.5001 21.6797 38.5701 21.6797 38.6401C21.6797 38.7101 21.6797 38.7701 21.6997 38.8401C21.7097 38.9101 21.7397 38.9701 21.7697 39.0201C21.7997 39.0701 21.8397 39.1201 21.8997 39.1501C21.9497 39.1801 22.0197 39.2001 22.0997 39.2001L22.0897 39.2101Z" fill="#191970"/>
<path d="M25.1597 39.1501C25.1597 39.1501 25.0897 39.2401 25.0497 39.2801C25.0097 39.3201 24.9597 39.3501 24.9097 39.3701C24.8597 39.3901 24.8097 39.4101 24.7497 39.4201C24.6897 39.4301 24.6397 39.4401 24.5797 39.4401C24.4397 39.4401 24.3297 39.4201 24.2497 39.3801C24.1697 39.3401 24.0997 39.2901 24.0597 39.2301C24.0097 39.1701 23.9797 39.1101 23.9697 39.0501C23.9597 38.9901 23.9497 38.9401 23.9497 38.8901C23.9497 38.8101 23.9597 38.7401 23.9897 38.6801C24.0197 38.6201 24.0497 38.5601 24.0897 38.5201C24.1297 38.4801 24.1797 38.4301 24.2397 38.3901C24.2997 38.3501 24.3597 38.3101 24.4197 38.2801C24.3897 38.2401 24.3597 38.2001 24.3397 38.1701C24.3097 38.1301 24.2897 38.1001 24.2697 38.0601C24.2497 38.0201 24.2297 37.9901 24.2197 37.9401C24.2097 37.8901 24.1997 37.8501 24.1997 37.8001C24.1997 37.7501 24.1997 37.6901 24.2297 37.6401C24.2497 37.5901 24.2797 37.5501 24.3197 37.5101C24.3597 37.4701 24.4097 37.4401 24.4597 37.4201C24.5197 37.4001 24.5797 37.3901 24.6597 37.3901C24.7197 37.3901 24.7797 37.3901 24.8397 37.4201C24.8997 37.4401 24.9497 37.4601 24.9997 37.5001C25.0497 37.5401 25.0797 37.5801 25.1097 37.6301C25.1397 37.6801 25.1497 37.7401 25.1497 37.8101C25.1497 37.8701 25.1397 37.9301 25.1197 37.9801C25.0997 38.0301 25.0697 38.0801 25.0297 38.1201C24.9897 38.1601 24.9497 38.2001 24.9097 38.2401C24.8597 38.2801 24.8197 38.3101 24.7697 38.3401L25.1397 38.7901C25.1797 38.6901 25.1997 38.5801 25.2097 38.4701H25.4397C25.4397 38.5301 25.4297 38.5801 25.4197 38.6301C25.4197 38.6701 25.3997 38.7101 25.3897 38.7501C25.3797 38.7901 25.3697 38.8201 25.3497 38.8601C25.3297 38.9001 25.3197 38.9401 25.2997 38.9801L25.6997 39.4401H25.3797L25.1597 39.1901V39.1501ZM24.5597 38.4201C24.5597 38.4201 24.4697 38.4701 24.4197 38.5001C24.3797 38.5301 24.3397 38.5601 24.3097 38.6001C24.2797 38.6401 24.2497 38.6801 24.2297 38.7201C24.2097 38.7601 24.1997 38.8201 24.1997 38.8801C24.1997 38.9301 24.2097 38.9801 24.2297 39.0201C24.2497 39.0601 24.2797 39.1001 24.3197 39.1301C24.3597 39.1601 24.3997 39.1801 24.4397 39.2001C24.4797 39.2201 24.5297 39.2301 24.5797 39.2301C24.6697 39.2301 24.7597 39.2101 24.8297 39.1601C24.8997 39.1101 24.9597 39.0601 25.0097 38.9801L24.5397 38.4201H24.5597ZM24.6297 38.1501C24.6297 38.1501 24.6897 38.1101 24.7197 38.0901C24.7497 38.0701 24.7797 38.0401 24.8097 38.0101C24.8397 37.9801 24.8597 37.9501 24.8797 37.9101C24.8997 37.8701 24.9097 37.8401 24.9097 37.7901C24.9097 37.7301 24.8897 37.6801 24.8497 37.6401C24.8097 37.6001 24.7497 37.5801 24.6797 37.5801C24.6197 37.5801 24.5697 37.6001 24.5197 37.6301C24.4697 37.6601 24.4497 37.7201 24.4497 37.7901C24.4497 37.8201 24.4497 37.8501 24.4697 37.8801C24.4797 37.9101 24.4997 37.9401 24.5197 37.9701C24.5397 38.0001 24.5597 38.0301 24.5797 38.0601C24.5997 38.0901 24.6297 38.1201 24.6497 38.1501H24.6297Z" fill="#191970"/>
<path d="M26.7695 37.3701H28.1695V37.6001H27.0395V38.2501H28.0995V38.4801H27.0395V39.1801H28.1795V39.4101H26.7695V37.3801V37.3701Z" fill="#191970"/>
<path d="M28.5295 37.9301H28.7595V38.1601C28.8095 38.0701 28.8795 38.0001 28.9595 37.9601C29.0395 37.9201 29.1295 37.8901 29.2395 37.8901C29.3395 37.8901 29.4195 37.9001 29.4795 37.9301C29.5395 37.9601 29.5995 37.9901 29.6395 38.0401C29.6795 38.0901 29.7095 38.1401 29.7195 38.2101C29.7295 38.2801 29.7395 38.3501 29.7395 38.4301V39.4001H29.4995V38.4001C29.4995 38.3101 29.4695 38.2401 29.4195 38.1801C29.3695 38.1301 29.2895 38.1001 29.1995 38.1001C29.1295 38.1001 29.0595 38.1101 29.0095 38.1301C28.9595 38.1501 28.9095 38.1901 28.8695 38.2301C28.8295 38.2701 28.8095 38.3201 28.7895 38.3801C28.7695 38.4401 28.7595 38.5001 28.7595 38.5601V39.3901H28.5195V37.9201L28.5295 37.9301Z" fill="#191970"/>
<path d="M31.4298 38.9401C31.3998 39.1001 31.3298 39.2301 31.2198 39.3101C31.1098 39.4001 30.9698 39.4401 30.7998 39.4401C30.6798 39.4401 30.5798 39.4201 30.4898 39.3801C30.3998 39.3401 30.3298 39.2901 30.2698 39.2201C30.2098 39.1501 30.1698 39.0701 30.1398 38.9801C30.1098 38.8901 30.0898 38.7801 30.0898 38.6701C30.0898 38.5601 30.1098 38.4601 30.1398 38.3601C30.1698 38.2701 30.2198 38.1801 30.2798 38.1201C30.3398 38.0501 30.4098 38.0001 30.4998 37.9601C30.5798 37.9201 30.6798 37.9001 30.7798 37.9001C30.9098 37.9001 31.0198 37.9301 31.1098 37.9801C31.1998 38.0301 31.2698 38.1001 31.3198 38.1901C31.3698 38.2801 31.4098 38.3601 31.4298 38.4601C31.4498 38.5601 31.4598 38.6501 31.4498 38.7401H30.3498C30.3498 38.8001 30.3498 38.8701 30.3698 38.9201C30.3898 38.9801 30.4098 39.0301 30.4498 39.0701C30.4898 39.1101 30.5398 39.1501 30.5998 39.1801C30.6598 39.2101 30.7298 39.2201 30.8098 39.2201C30.9098 39.2201 30.9898 39.2001 31.0598 39.1501C31.1298 39.1001 31.1698 39.0301 31.1898 38.9301H31.4298V38.9401ZM31.1998 38.5301C31.1998 38.4701 31.1798 38.4201 31.1598 38.3701C31.1398 38.3201 31.1098 38.2701 31.0698 38.2401C31.0298 38.2101 30.9898 38.1701 30.9398 38.1501C30.8898 38.1301 30.8298 38.1201 30.7698 38.1201C30.7098 38.1201 30.6498 38.1301 30.5998 38.1501C30.5498 38.1701 30.5098 38.2001 30.4698 38.2401C30.4298 38.2801 30.4098 38.3201 30.3798 38.3701C30.3498 38.4201 30.3498 38.4701 30.3398 38.5301H31.1898H31.1998Z" fill="#191970"/>
<path d="M31.7498 37.9301H31.9797V38.2401C32.0397 38.1201 32.1098 38.0301 32.1998 37.9801C32.2898 37.9301 32.3898 37.9001 32.5198 37.9001V38.1601C32.4198 38.1601 32.3398 38.1701 32.2698 38.2001C32.1998 38.2301 32.1497 38.2701 32.0997 38.3201C32.0497 38.3701 32.0298 38.4301 32.0098 38.5101C31.9898 38.5801 31.9797 38.6701 31.9797 38.7601V39.4201H31.7397V37.9501L31.7498 37.9301Z" fill="#191970"/>
<path d="M33.9594 39.2801C33.9594 39.5201 33.8994 39.7001 33.7894 39.8201C33.6794 39.9401 33.5094 40.0001 33.2694 40.0001C33.1994 40.0001 33.1294 40.0001 33.0594 39.9801C32.9894 39.9601 32.9194 39.9401 32.8694 39.9101C32.8094 39.8801 32.7594 39.8301 32.7294 39.7801C32.6994 39.7301 32.6694 39.6601 32.6694 39.5801H32.9094C32.9094 39.5801 32.9294 39.6601 32.9494 39.6901C32.9794 39.7201 33.0094 39.7501 33.0394 39.7601C33.0794 39.7801 33.1194 39.7901 33.1594 39.8001C33.1994 39.8001 33.2494 39.8101 33.2894 39.8101C33.3694 39.8101 33.4394 39.8001 33.4894 39.7701C33.5394 39.7401 33.5894 39.7001 33.6294 39.6601C33.6694 39.6101 33.6894 39.5501 33.7094 39.4801C33.7294 39.4101 33.7294 39.3401 33.7294 39.2501V39.1501C33.7294 39.1501 33.6794 39.2401 33.6494 39.2701C33.6194 39.3001 33.5794 39.3301 33.5394 39.3501C33.4994 39.3701 33.4594 39.3901 33.4094 39.4001C33.3594 39.4101 33.3194 39.4201 33.2694 39.4201C33.1594 39.4201 33.0594 39.4001 32.9794 39.3601C32.8994 39.3201 32.8294 39.2701 32.7694 39.2001C32.7094 39.1301 32.6694 39.0501 32.6494 38.9601C32.6294 38.8701 32.6094 38.7701 32.6094 38.6701C32.6094 38.5801 32.6194 38.4901 32.6394 38.4001C32.6594 38.3101 32.6994 38.2301 32.7494 38.1501C32.7994 38.0701 32.8694 38.0101 32.9594 37.9601C33.0494 37.9101 33.1494 37.8901 33.2794 37.8901C33.3694 37.8901 33.4594 37.9101 33.5394 37.9501C33.6194 37.9901 33.6794 38.0501 33.7194 38.1301V37.9201H33.9494V39.2701L33.9594 39.2801ZM33.2794 39.2101C33.3594 39.2101 33.4294 39.1901 33.4794 39.1601C33.5394 39.1301 33.5794 39.0801 33.6194 39.0301C33.6494 38.9801 33.6794 38.9101 33.6994 38.8501C33.7194 38.7801 33.7194 38.7101 33.7194 38.6401C33.7194 38.5801 33.7194 38.5101 33.6994 38.4501C33.6794 38.3901 33.6594 38.3301 33.6294 38.2801C33.5994 38.2301 33.5494 38.1901 33.4994 38.1601C33.4494 38.1301 33.3794 38.1101 33.3094 38.1101C33.2394 38.1101 33.1694 38.1201 33.1094 38.1501C33.0494 38.1801 33.0094 38.2201 32.9694 38.2701C32.9294 38.3201 32.9094 38.3801 32.8894 38.4401C32.8694 38.5001 32.8694 38.5701 32.8694 38.6401C32.8694 38.7101 32.8694 38.7701 32.8894 38.8401C32.8994 38.9101 32.9294 38.9701 32.9594 39.0201C32.9894 39.0701 33.0294 39.1201 33.0894 39.1501C33.1394 39.1801 33.2094 39.2001 33.2894 39.2001L33.2794 39.2101Z" fill="#191970"/>
<path d="M34.9595 39.6002C34.9295 39.6702 34.8995 39.7302 34.8795 39.7802C34.8495 39.8302 34.8195 39.8702 34.7895 39.9002C34.7595 39.9302 34.7195 39.9502 34.6795 39.9702C34.6395 39.9802 34.5895 39.9902 34.5395 39.9902C34.5095 39.9902 34.4795 39.9902 34.4495 39.9902C34.4195 39.9902 34.3895 39.9802 34.3695 39.9702V39.7502C34.3695 39.7502 34.4195 39.7702 34.4395 39.7702C34.4595 39.7702 34.4895 39.7802 34.5095 39.7802C34.5595 39.7802 34.5995 39.7702 34.6295 39.7502C34.6595 39.7302 34.6895 39.6902 34.7095 39.6502L34.8095 39.4002L34.2295 37.9402H34.4995L34.9295 39.1502L35.3395 37.9402H35.5995L34.9595 39.6102V39.6002Z" fill="#191970"/>
<path d="M7.07983 29.8901C6.71983 29.6801 6.32984 29.5001 5.89984 29.3701C5.46984 29.2401 5.04983 29.1201 4.63983 29.0301C4.19983 28.9201 3.82985 28.8101 3.52985 28.7001C3.22985 28.5901 3.00981 28.4501 2.86981 28.3001C2.72981 28.1501 2.65979 27.9501 2.65979 27.7101C2.65979 27.3801 2.81982 27.1101 3.12982 26.9201C3.43982 26.7301 3.8298 26.6301 4.2998 26.6301C4.7898 26.6301 5.2498 26.7301 5.6698 26.9301C6.0898 27.1301 6.42983 27.4501 6.69983 27.8901L7.9198 26.9501C7.5698 26.3401 7.08984 25.8701 6.45984 25.5601C5.82984 25.2501 5.13982 25.0901 4.37982 25.0901C3.30982 25.0901 2.45981 25.3501 1.80981 25.8601C1.15981 26.3701 0.839844 27.0501 0.839844 27.8901C0.839844 28.3701 0.939822 28.7701 1.12982 29.1001C1.31982 29.4301 1.57983 29.6901 1.88983 29.9001C2.19983 30.1101 2.54982 30.2801 2.93982 30.4101C3.32982 30.5401 3.70983 30.6601 4.07983 30.7701C4.48983 30.8601 4.86979 30.9701 5.21979 31.1001C5.56979 31.2301 5.84981 31.3901 6.05981 31.5801C6.26981 31.7701 6.37982 32.0301 6.37982 32.3501C6.37982 32.7501 6.20981 33.0701 5.86981 33.3201C5.52981 33.5701 5.0698 33.6901 4.4798 33.6901C3.8098 33.6901 3.23984 33.5301 2.76984 33.2001C2.29984 32.8701 1.92981 32.4801 1.67981 32.0301L0.339844 33.1901C0.569844 33.5401 0.869817 33.8701 1.24982 34.2001C1.62982 34.5301 2.08981 34.7901 2.61981 35.0001C3.14981 35.2101 3.76984 35.3101 4.45984 35.3101C5.22984 35.3101 5.9098 35.1801 6.4798 34.9101C7.0498 34.6401 7.49982 34.2701 7.81982 33.8001C8.13982 33.3301 8.2998 32.7801 8.2998 32.1501C8.2998 31.5801 8.18984 31.1101 7.95984 30.7501C7.72984 30.3901 7.43983 30.1001 7.07983 29.8901Z" fill="#191970"/>
<path d="M14.1797 25.0901C13.3397 25.0901 12.5597 25.2301 11.8497 25.5201C11.1397 25.8101 10.4897 26.2601 9.89972 26.8701L11.1197 28.1301C11.5597 27.6501 12.0197 27.3001 12.5097 27.0901C12.9997 26.8801 13.5097 26.7701 14.0397 26.7701C14.7997 26.7701 15.3797 26.9601 15.7797 27.3301C16.1797 27.7001 16.3797 28.2401 16.3797 28.9301V29.2501H13.4197C12.9297 29.2501 12.4597 29.2901 12.0297 29.3801C11.5997 29.4701 11.2097 29.6201 10.8797 29.8301C10.5197 30.0401 10.2297 30.3501 9.99969 30.7401C9.76969 31.1301 9.65967 31.6001 9.65967 32.1501C9.65967 32.7801 9.80969 33.3301 10.1197 33.8001C10.4297 34.2701 10.8597 34.6401 11.4197 34.9101C11.9797 35.1801 12.6297 35.3101 13.3597 35.3101C13.9997 35.3101 14.5797 35.1801 15.0897 34.9101C15.5997 34.6401 16.0297 34.2501 16.3797 33.7401C16.3897 33.7201 16.3997 33.7001 16.4097 33.6801V35.3101H18.3397V28.9301C18.3397 27.7201 17.9797 26.7701 17.2497 26.1001C16.5197 25.4301 15.4997 25.0901 14.1797 25.0901ZM16.3797 31.0101C16.3797 31.5301 16.2497 31.9901 15.9997 32.4001C15.7497 32.8101 15.4097 33.1301 14.9897 33.3601C14.5697 33.5901 14.1097 33.7101 13.5997 33.7101C12.9997 33.7101 12.5197 33.5701 12.1597 33.2901C11.7997 33.0101 11.6197 32.6401 11.6197 32.1701C11.6197 31.9301 11.6697 31.7201 11.7597 31.5401C11.8497 31.3601 11.9797 31.2101 12.1397 31.0901C12.3397 30.9401 12.5797 30.8501 12.8697 30.8001C13.1597 30.7501 13.4297 30.7301 13.6997 30.7301H16.3797V31.0101Z" fill="#191970"/>
<path d="M26.2397 25.7501C25.9497 25.5801 25.6597 25.4501 25.3697 25.3801C25.0797 25.3101 24.7797 25.2701 24.4597 25.2701C24.0097 25.2701 23.5497 25.3901 23.0797 25.6401C22.6097 25.8901 22.2097 26.2301 21.8697 26.6601C21.7997 26.7501 21.7397 26.8401 21.6797 26.9401V25.1201H19.6997V35.3101H21.6797V30.8101C21.6797 30.2901 21.6997 29.8801 21.7297 29.5801C21.7597 29.2801 21.8097 29.0401 21.8597 28.8501C21.9797 28.4601 22.1597 28.1501 22.3897 27.9101C22.6197 27.6701 22.8897 27.5001 23.1797 27.3901C23.4697 27.2801 23.7697 27.2301 24.0797 27.2301C24.2797 27.2301 24.4897 27.2601 24.7197 27.3101C24.9497 27.3601 25.1297 27.4301 25.2797 27.5101L26.2397 25.7501Z" fill="#191970"/>
<path d="M34.53 26.1001C33.8 25.4301 32.78 25.0901 31.46 25.0901C31.46 25.0901 31.4499 25.0901 31.4399 25.0901C31.4399 25.0901 31.4399 25.0901 31.4299 25.0901C30.5899 25.0901 29.8099 25.2301 29.0999 25.5201C28.3899 25.8101 27.74 26.2601 27.15 26.8701L28.3699 28.1301C28.3699 28.1301 28.38 28.1201 28.39 28.1101L28.4099 28.1301C28.8499 27.6501 29.3099 27.3001 29.7999 27.0901C30.2799 26.8801 30.7899 26.7701 31.3199 26.7701C32.0699 26.7701 32.6399 26.9601 33.0399 27.3301C33.4399 27.7001 33.64 28.2401 33.64 28.9301V29.2501H30.6799C30.1899 29.2501 29.7199 29.2901 29.2899 29.3801C28.8599 29.4701 28.47 29.6201 28.14 29.8301C27.78 30.0401 27.4899 30.3501 27.2599 30.7401C27.0299 31.1301 26.9199 31.6001 26.9199 32.1501C26.9199 32.7801 27.0699 33.3301 27.3799 33.8001C27.6899 34.2701 28.1199 34.6401 28.6799 34.9101C29.2399 35.1801 29.8899 35.3101 30.6199 35.3101C30.6199 35.3101 30.6199 35.3101 30.6299 35.3101C30.6299 35.3101 30.64 35.3101 30.65 35.3101C31.29 35.3101 31.8699 35.1801 32.3799 34.9101C32.8899 34.6401 33.3199 34.2501 33.6699 33.7401L33.7 34.0601V35.3201H35.6299V28.9401C35.6299 27.7301 35.2699 26.7801 34.5399 26.1101L34.53 26.1001ZM33.6299 30.7301V31.0101C33.6299 31.5301 33.4999 31.9901 33.2499 32.4001C32.9999 32.8101 32.6599 33.1301 32.2399 33.3601C31.8199 33.5901 31.3699 33.7101 30.8699 33.7101C30.2799 33.7101 29.8 33.5701 29.45 33.2901C29.09 33.0101 28.9099 32.6401 28.9099 32.1701C28.9099 31.9301 28.9599 31.7201 29.0499 31.5401C29.1399 31.3601 29.2699 31.2101 29.4299 31.0901C29.6299 30.9401 29.8699 30.8501 30.1599 30.8001C30.4499 30.7501 30.7199 30.7301 30.9899 30.7301H33.64H33.6299Z" fill="#191970"/>
<path d="M37.3896 25.0901L37.1396 25.8001L36.8796 25.0901H36.6196V26.1101H36.7797V25.2601L37.0797 26.0401H37.1896L37.4896 25.2701V26.1101H37.6497V25.0901H37.3896Z" fill="#191970"/>
<path d="M35.6196 25.2401H35.9196V26.1101H36.0897V25.2401H36.3896V25.0901H35.6196V25.2401Z" fill="#191970"/>
<path d="M13.0397 8.22719L11.3921 9.87476L17.9823 16.465L19.6299 14.8174L13.0397 8.22719Z" fill="#80C804"/>
<path d="M24.5696 16.4701L17.9796 23.0601L11.3896 16.4701L13.0396 14.8301L17.9796 19.7701L22.9296 14.8301L24.5696 16.4701Z" fill="#80C804"/>
<path d="M24.5696 6.59L22.9296 8.23999L17.9796 3.29999L13.0396 8.23999L11.3896 6.59L17.9796 0L24.5696 6.59Z" fill="#80C804"/>
<path d="M17.9874 6.61393L16.3413 8.26294L22.9373 14.8474L24.5834 13.1984L17.9874 6.61393Z" fill="#80C804"/>
</svg>
