<svg width="40" height="30" viewBox="0 0 40 30" fill="none" xmlns="http://www.w3.org/2000/svg">
<path d="M12.0771 4.55887V13.6515L19.9516 18.2104L27.8385 13.6515V4.55887L19.9516 0L12.0771 4.55887Z" fill="#242424"/>
<path d="M15.1542 13.0237L13.7476 12.6595V5.62649L19.7005 2.2356L20.8182 3.20263L15.1542 6.44282V13.0237Z" fill="#EDC74A"/>
<path d="M19.3866 8.45214L18.3442 7.44743L23.1166 4.49609L24.2595 5.43801L19.3866 8.45214Z" fill="#EDC74A"/>
<path d="M26.1554 12.6093L24.7614 13.0237V9.64541L19.8383 12.534L14.124 9.4947L14.7771 8.26393L19.8132 10.9264L26.1554 7.20898V12.6093Z" fill="#EDC74A"/>
<path d="M19.8638 16.3896L16.812 15.096L17.1888 13.7396L19.7885 14.8323L22.4133 13.4382L22.9156 14.7569L19.8638 16.3896Z" fill="#EDC74A"/>
<path d="M4.2449 26.2893V27.4949C4.2449 28.2234 4.06908 28.7885 3.70487 29.1778C3.35322 29.5672 2.81319 29.7681 2.12245 29.7681C1.43171 29.7681 0.891679 29.5672 0.54003 29.1778C0.188382 28.7885 0 28.2234 0 27.4949V22.7854C0 22.0569 0.175823 21.4918 0.54003 21.1025C0.891679 20.7132 1.43171 20.5122 2.12245 20.5122C2.81319 20.5122 3.35322 20.7132 3.70487 21.1025C4.05652 21.4918 4.2449 22.0569 4.2449 22.7854V23.6645H2.9011V22.6975C2.9011 22.3709 2.83831 22.1449 2.70016 22.0067C2.56201 21.8686 2.38618 21.8058 2.16012 21.8058C1.93406 21.8058 1.75824 21.8686 1.62009 22.0067C1.48195 22.1449 1.41915 22.3709 1.41915 22.6975V27.5829C1.41915 27.9094 1.48195 28.1354 1.62009 28.2736C1.75824 28.3992 1.93406 28.462 2.16012 28.462C2.38618 28.462 2.56201 28.3992 2.70016 28.2736C2.83831 28.148 2.9011 27.9219 2.9011 27.5829V26.2893H4.2449Z" fill="#242424"/>
<path d="M6.53048 29.6677H5.11133V20.6128H6.53048V24.4935H8.15058V20.6128H9.59485V29.6677H8.15058V25.7871H6.53048V29.6677Z" fill="#242424"/>
<path d="M15.2339 29.6677H13.8022L13.551 28.0225H11.8054L11.5542 29.6677H10.248L11.6923 20.6128H13.7771L15.2339 29.6677ZM11.9812 26.7918H13.3501L12.6594 22.2203L11.9812 26.7918Z" fill="#242424"/>
<path d="M18.8635 29.6677C18.851 29.6049 18.8258 29.5547 18.8133 29.5045C18.8007 29.4542 18.7756 29.3915 18.7631 29.3161C18.7505 29.2407 18.7379 29.1403 18.7379 29.0147C18.7379 28.8891 18.7254 28.7384 18.7254 28.5626V27.1434C18.7254 26.7164 18.65 26.4276 18.4993 26.2517C18.3486 26.0759 18.11 25.988 17.7835 25.988H17.2937V29.6677H15.8745V20.6128H18.0221C18.7631 20.6128 19.3031 20.7886 19.6296 21.1277C19.9561 21.4668 20.132 21.9943 20.132 22.6976V23.4134C20.132 24.3428 19.818 24.9582 19.2026 25.247C19.5668 25.3977 19.818 25.6363 19.9436 25.9629C20.0817 26.2894 20.1445 26.7039 20.1445 27.1685V28.5626C20.1445 28.7886 20.1571 28.977 20.1696 29.1528C20.1822 29.3161 20.2324 29.4919 20.2952 29.6677H18.8635ZM17.3062 21.9064V24.6819H17.8588C18.1225 24.6819 18.336 24.6191 18.4868 24.4809C18.6375 24.3428 18.7128 24.0916 18.7128 23.7274V22.8357C18.7128 22.5092 18.65 22.2706 18.537 22.1199C18.424 21.9692 18.2356 21.8938 17.9844 21.8938H17.3062V21.9064Z" fill="#242424"/>
<path d="M20.6719 20.6128H25.0675V21.9064H23.5855V29.6677H22.1664V21.9064H20.6844V20.6128H20.6719Z" fill="#242424"/>
<path d="M28.6972 27.0429L29.6643 20.6128H31.6486V29.6677H30.3048V23.1748L29.3252 29.6677H27.9814L26.9264 23.2627V29.6677H25.6831V20.6128H27.6674L28.6972 27.0429Z" fill="#242424"/>
<path d="M32.6782 20.6128H34.0974V29.6677H32.6782V20.6128Z" fill="#242424"/>
<path d="M39.8869 20.6128L38.405 25.0084L39.9999 29.6677H38.5054L37.3375 26.0885L36.1569 29.6677H34.8257L36.4207 25.0084L34.9387 20.6128H36.4081L37.4756 23.9535L38.5808 20.6128H39.8869Z" fill="#242424"/>
</svg>
