<svg width="42" height="34" viewBox="0 0 42 34" fill="none" xmlns="http://www.w3.org/2000/svg">
<path d="M1.22998 22.5298V33.5998" stroke="white" stroke-width="0.75" stroke-miterlimit="10"/>
<path d="M11.4399 22.5298V33.5998" stroke="white" stroke-width="0.75" stroke-miterlimit="10"/>
<path d="M6.34003 27.6399C9.1622 27.6399 11.45 25.3521 11.45 22.5299C11.45 19.7077 9.1622 17.4199 6.34003 17.4199C3.51785 17.4199 1.22998 19.7077 1.22998 22.5299C1.22998 25.3521 3.51785 27.6399 6.34003 27.6399Z" stroke="white" stroke-width="0.75" stroke-miterlimit="10"/>
<path d="M26.7598 8.05981V14.0198H31.8698V8.05981" stroke="white" stroke-width="0.75" stroke-miterlimit="10"/>
<path d="M29.3201 8.91991C31.6728 8.91991 33.5801 7.01263 33.5801 4.6599C33.5801 2.30716 31.6728 0.399902 29.3201 0.399902C26.9673 0.399902 25.0601 2.30716 25.0601 4.6599C25.0601 7.01263 26.9673 8.91991 29.3201 8.91991Z" stroke="white" stroke-width="0.75" stroke-miterlimit="10"/>
<path d="M31.8701 14.02H32.7201L35.2701 16.58L32.7201 19.98" stroke="white" stroke-width="0.75" stroke-miterlimit="10"/>
<path d="M26.7599 14.02H25.9099L23.3599 16.58L25.9099 19.98" stroke="white" stroke-width="0.75" stroke-miterlimit="10"/>
<path d="M11.4402 9.76999C13.7929 9.76999 15.7002 7.86273 15.7002 5.50999C15.7002 3.15726 13.7929 1.25 11.4402 1.25C9.08745 1.25 7.18018 3.15726 7.18018 5.50999C7.18018 7.86273 9.08745 9.76999 11.4402 9.76999Z" stroke="white" stroke-width="0.75" stroke-miterlimit="10"/>
<path d="M25.91 2.10986H14" stroke="white" stroke-width="0.75" stroke-miterlimit="10"/>
<path d="M25.9102 7.20996H15.7002" stroke="white" stroke-width="0.75" stroke-miterlimit="10"/>
<path d="M13.1498 9.77002L10.5898 19.13" stroke="white" stroke-width="0.75" stroke-miterlimit="10"/>
<path d="M7.19025 7.20996L3.78027 17.43" stroke="white" stroke-width="0.75" stroke-miterlimit="10"/>
<path d="M30.1699 22.5298H24.21V25.9298H30.1699V22.5298Z" stroke="white" stroke-width="0.75" stroke-miterlimit="10"/>
<path d="M20.8102 22.5298H15.7002V25.9298H20.8102V22.5298Z" stroke="white" stroke-width="0.75" stroke-miterlimit="10"/>
<path d="M39.5298 22.5298H33.5698V25.9298H39.5298V22.5298Z" stroke="white" stroke-width="0.75" stroke-miterlimit="10"/>
<path d="M13.1499 25.9399H41.2299" stroke="white" stroke-width="0.75" stroke-miterlimit="10"/>
</svg>
