<svg width="38" height="41" viewBox="0 0 38 41" fill="none" xmlns="http://www.w3.org/2000/svg">
<path d="M27.4001 37.6702H28.1001C28.4101 37.6702 28.6501 37.7502 28.8201 37.9102C28.9901 38.0702 29.0701 38.3102 29.0701 38.6402C29.0701 38.8102 29.0501 38.9601 29.0101 39.0901C28.9701 39.2201 28.9101 39.3302 28.8301 39.4202C28.7501 39.5102 28.6502 39.5802 28.5302 39.6302C28.4102 39.6802 28.2601 39.7002 28.0901 39.7002H27.3901V37.6702H27.4001ZM27.6801 39.4802H28.1301C28.1301 39.4802 28.2001 39.4802 28.2401 39.4802C28.2901 39.4802 28.3301 39.4602 28.3901 39.4502C28.4401 39.4302 28.4901 39.4101 28.5401 39.3701C28.5901 39.3401 28.6401 39.2902 28.6801 39.2302C28.7201 39.1702 28.7502 39.1002 28.7802 39.0102C28.8102 38.9202 28.8201 38.8102 28.8201 38.6902C28.8201 38.5702 28.8102 38.4602 28.7802 38.3602C28.7602 38.2602 28.7201 38.1801 28.6601 38.1201C28.6101 38.0501 28.5401 38.0002 28.4501 37.9702C28.3601 37.9302 28.2601 37.9202 28.1301 37.9202H27.6701V39.5002L27.6801 39.4802Z" fill="#191970"/>
<path d="M29.6799 37.9702H29.4399V37.6702H29.6799V37.9702ZM29.4399 38.2302H29.6799V39.7002H29.4399V38.2302Z" fill="#191970"/>
<path d="M31.3901 39.5802C31.3901 39.8202 31.33 40.0002 31.22 40.1202C31.11 40.2402 30.9401 40.3002 30.7001 40.3002C30.6301 40.3002 30.5601 40.3002 30.4901 40.2802C30.4201 40.2602 30.35 40.2402 30.3 40.2102C30.24 40.1802 30.19 40.1302 30.16 40.0802C30.13 40.0302 30.1 39.9602 30.1 39.8802H30.3401C30.3401 39.8802 30.3601 39.9602 30.3801 39.9902C30.4101 40.0202 30.44 40.0502 30.47 40.0602C30.51 40.0802 30.5501 40.0902 30.5901 40.1002C30.6301 40.1002 30.68 40.1102 30.72 40.1102C30.8 40.1102 30.87 40.1002 30.92 40.0702C30.97 40.0402 31.0201 40.0002 31.0601 39.9602C31.1001 39.9102 31.1201 39.8502 31.1401 39.7802C31.1601 39.7102 31.16 39.6402 31.16 39.5502V39.4502C31.16 39.4502 31.1101 39.5402 31.0801 39.5702C31.0501 39.6002 31.01 39.6302 30.97 39.6502C30.93 39.6702 30.8901 39.6902 30.8401 39.7002C30.7901 39.7102 30.7501 39.7202 30.7001 39.7202C30.5901 39.7202 30.49 39.7002 30.41 39.6602C30.33 39.6202 30.2601 39.5702 30.2001 39.5002C30.1401 39.4302 30.1001 39.3502 30.0801 39.2602C30.0601 39.1702 30.04 39.0702 30.04 38.9702C30.04 38.8802 30.0501 38.7902 30.0701 38.7002C30.0901 38.6102 30.1301 38.5302 30.1801 38.4502C30.2301 38.3702 30.3001 38.3102 30.3901 38.2602C30.4801 38.2102 30.5801 38.1902 30.7101 38.1902C30.8001 38.1902 30.89 38.2102 30.97 38.2502C31.05 38.2902 31.1101 38.3502 31.1501 38.4302V38.2202H31.3801V39.5702L31.3901 39.5802ZM30.7101 39.5102C30.7901 39.5102 30.86 39.4902 30.91 39.4602C30.97 39.4302 31.01 39.3802 31.05 39.3302C31.08 39.2802 31.1101 39.2102 31.1301 39.1502C31.1501 39.0802 31.1501 39.0102 31.1501 38.9402C31.1501 38.8802 31.1501 38.8102 31.1301 38.7502C31.1101 38.6902 31.0901 38.6302 31.0601 38.5802C31.0301 38.5302 30.9801 38.4902 30.9301 38.4602C30.8801 38.4302 30.8101 38.4102 30.7401 38.4102C30.6701 38.4102 30.6 38.4202 30.54 38.4502C30.48 38.4802 30.4401 38.5202 30.4001 38.5702C30.3601 38.6202 30.3401 38.6802 30.3201 38.7402C30.3001 38.8002 30.3 38.8702 30.3 38.9402C30.3 39.0102 30.3001 39.0702 30.3201 39.1402C30.3301 39.2102 30.3601 39.2702 30.3901 39.3202C30.4201 39.3702 30.4601 39.4202 30.5201 39.4502C30.5701 39.4802 30.64 39.5002 30.72 39.5002L30.7101 39.5102Z" fill="#191970"/>
<path d="M32.0703 37.9702H31.8303V37.6702H32.0703V37.9702ZM31.8203 38.2302H32.0603V39.7002H31.8203V38.2302Z" fill="#191970"/>
<path d="M32.8301 38.2303H33.1201V38.4402H32.8301V39.3503C32.8301 39.3503 32.8301 39.4003 32.8301 39.4203C32.8301 39.4403 32.84 39.4503 32.86 39.4603C32.87 39.4603 32.89 39.4803 32.92 39.4803C32.94 39.4803 32.9701 39.4803 33.0101 39.4803H33.1201V39.6902H32.9301C32.8701 39.6902 32.8101 39.6903 32.7701 39.6803C32.7301 39.6703 32.69 39.6602 32.66 39.6302C32.63 39.6102 32.61 39.5802 32.6 39.5302C32.59 39.4902 32.5801 39.4303 32.5801 39.3603V38.4203H32.3301V38.2103H32.5801V37.7703H32.8201V38.2103L32.8301 38.2303Z" fill="#191970"/>
<path d="M34.7601 39.7002C34.7601 39.7002 34.6601 39.7402 34.5901 39.7402C34.5301 39.7402 34.4801 39.7202 34.4401 39.6902C34.4001 39.6502 34.3801 39.6002 34.3801 39.5202C34.3101 39.6002 34.2401 39.6602 34.1501 39.6902C34.0601 39.7302 33.9701 39.7402 33.8601 39.7402C33.7901 39.7402 33.7301 39.7402 33.6701 39.7202C33.6101 39.7002 33.5601 39.6802 33.5101 39.6502C33.4601 39.6202 33.4301 39.5702 33.4101 39.5202C33.3801 39.4702 33.3701 39.4002 33.3701 39.3302C33.3701 39.2502 33.3801 39.1802 33.4101 39.1202C33.4401 39.0702 33.4801 39.0202 33.5201 38.9902C33.5701 38.9602 33.6201 38.9302 33.6801 38.9102C33.7401 38.8902 33.8001 38.8802 33.8601 38.8702C33.9301 38.8602 33.9901 38.8502 34.0501 38.8402C34.1101 38.8402 34.1601 38.8202 34.2101 38.8102C34.2601 38.8002 34.2901 38.7802 34.3201 38.7602C34.3501 38.7402 34.3601 38.7002 34.3601 38.6602C34.3601 38.6102 34.3501 38.5602 34.3301 38.5302C34.3101 38.5002 34.2801 38.4702 34.2501 38.4602C34.2201 38.4402 34.1801 38.4302 34.1401 38.4302C34.1001 38.4302 34.0601 38.4302 34.0201 38.4302C33.9201 38.4302 33.8301 38.4502 33.7601 38.4902C33.6901 38.5302 33.6501 38.6002 33.6501 38.7102H33.4101C33.4101 38.6202 33.4301 38.5402 33.4701 38.4802C33.5101 38.4202 33.5501 38.3702 33.6101 38.3302C33.6701 38.2902 33.7301 38.2602 33.8101 38.2502C33.8801 38.2302 33.9601 38.2202 34.0401 38.2202C34.1101 38.2202 34.1701 38.2202 34.2401 38.2302C34.3101 38.2302 34.3601 38.2602 34.4201 38.2902C34.4701 38.3202 34.5201 38.3602 34.5501 38.4102C34.5801 38.4602 34.6001 38.5302 34.6001 38.6202V39.3802C34.6001 39.4402 34.6001 39.4802 34.6001 39.5102C34.6001 39.5402 34.6301 39.5502 34.6701 39.5502C34.6901 39.5502 34.7201 39.5502 34.7401 39.5402V39.7302L34.7601 39.7002ZM34.3601 38.9402C34.3601 38.9402 34.3101 38.9702 34.2701 38.9802C34.2401 38.9802 34.2001 39.0002 34.1601 39.0002C34.1201 39.0002 34.0801 39.0102 34.0401 39.0202C34.0001 39.0202 33.9601 39.0302 33.9201 39.0402C33.8801 39.0502 33.8401 39.0602 33.8101 39.0702C33.7701 39.0802 33.7401 39.1002 33.7201 39.1202C33.6901 39.1402 33.6701 39.1702 33.6601 39.2002C33.6401 39.2302 33.6401 39.2702 33.6401 39.3102C33.6401 39.3502 33.6401 39.3802 33.6601 39.4102C33.6801 39.4402 33.7001 39.4602 33.7201 39.4802C33.7501 39.5002 33.7801 39.5102 33.8101 39.5202C33.8401 39.5302 33.8801 39.5302 33.9201 39.5302C34.0001 39.5302 34.0701 39.5202 34.1301 39.5002C34.1901 39.4802 34.2301 39.4502 34.2701 39.4202C34.3101 39.3902 34.3301 39.3502 34.3501 39.3102C34.3701 39.2702 34.3801 39.2302 34.3801 39.2002V38.9502L34.3601 38.9402Z" fill="#191970"/>
<path d="M35.0503 37.6702H35.2903V39.7002H35.0503V37.6702Z" fill="#191970"/>
<path d="M6.94995 30.1901C6.58995 29.9801 6.19996 29.8001 5.76996 29.6701C5.33996 29.5401 4.91995 29.4201 4.50995 29.3301C4.06995 29.2201 3.69996 29.1101 3.39996 29.0001C3.09996 28.8901 2.87993 28.7501 2.73993 28.6001C2.59993 28.4501 2.52997 28.2501 2.52997 28.0101C2.52997 27.6801 2.68994 27.4101 2.99994 27.2201C3.30994 27.0301 3.69992 26.9301 4.16992 26.9301C4.65992 26.9301 5.11992 27.0301 5.53992 27.2301C5.95992 27.4301 6.29995 27.7501 6.56995 28.1901L7.78992 27.2501C7.43992 26.6401 6.95996 26.1701 6.32996 25.8601C5.69996 25.5501 5.00994 25.3901 4.24994 25.3901C3.17994 25.3901 2.32993 25.6501 1.67993 26.1601C1.02993 26.6701 0.709961 27.3501 0.709961 28.1901C0.709961 28.6701 0.809939 29.0701 0.999939 29.4001C1.18994 29.7301 1.44995 29.9901 1.75995 30.2001C2.06995 30.4101 2.41994 30.5801 2.80994 30.7101C3.19994 30.8401 3.57995 30.9601 3.94995 31.0701C4.35995 31.1601 4.73997 31.2701 5.08997 31.4001C5.43997 31.5301 5.71993 31.6901 5.92993 31.8801C6.13993 32.0701 6.24994 32.3301 6.24994 32.6501C6.24994 33.0501 6.07993 33.3701 5.73993 33.6201C5.39993 33.8701 4.93991 33.9901 4.34991 33.9901C3.67991 33.9901 3.10995 33.8301 2.63995 33.5001C2.16995 33.1701 1.79993 32.7801 1.54993 32.3301L0.209961 33.4901C0.439961 33.8401 0.739934 34.1701 1.11993 34.5001C1.49993 34.8301 1.95993 35.0901 2.48993 35.3001C3.01993 35.5101 3.63996 35.6101 4.32996 35.6101C5.09996 35.6101 5.77991 35.4801 6.34991 35.2101C6.91991 34.9401 7.36994 34.5701 7.68994 34.1001C8.00994 33.6301 8.16992 33.0801 8.16992 32.4501C8.16992 31.8801 8.05996 31.4101 7.82996 31.0501C7.59996 30.6901 7.30995 30.4001 6.94995 30.1901Z" fill="#191970"/>
<path d="M14.0497 25.3901C13.2097 25.3901 12.4297 25.5301 11.7197 25.8201C11.0097 26.1101 10.3598 26.5601 9.76978 27.1701L10.9897 28.4301C11.4297 27.9501 11.8898 27.6001 12.3798 27.3901C12.8698 27.1801 13.3797 27.0701 13.9097 27.0701C14.6697 27.0701 15.2498 27.2601 15.6498 27.6301C16.0498 28.0001 16.2498 28.5401 16.2498 29.2301V29.5501H13.2897C12.7997 29.5501 12.3298 29.5901 11.8998 29.6801C11.4698 29.7701 11.0798 29.9201 10.7498 30.1301C10.3898 30.3401 10.0998 30.6501 9.86975 31.0401C9.63975 31.4301 9.52979 31.9001 9.52979 32.4501C9.52979 33.0801 9.67975 33.6301 9.98975 34.1001C10.2997 34.5701 10.7297 34.9401 11.2897 35.2101C11.8497 35.4801 12.4997 35.6101 13.2297 35.6101C13.8697 35.6101 14.4498 35.4801 14.9598 35.2101C15.4698 34.9401 15.8998 34.5501 16.2498 34.0401C16.2598 34.0201 16.2698 34.0001 16.2798 33.9801V35.6101H18.2098V29.2301C18.2098 28.0201 17.8498 27.0701 17.1198 26.4001C16.3898 25.7301 15.3697 25.3901 14.0497 25.3901ZM16.2498 31.3101C16.2498 31.8301 16.1198 32.2901 15.8698 32.7001C15.6198 33.1101 15.2797 33.4301 14.8597 33.6601C14.4397 33.8901 13.9797 34.0101 13.4697 34.0101C12.8697 34.0101 12.3898 33.8701 12.0298 33.5901C11.6698 33.3101 11.4897 32.9401 11.4897 32.4701C11.4897 32.2301 11.5398 32.0201 11.6298 31.8401C11.7198 31.6601 11.8498 31.5101 12.0098 31.3901C12.2098 31.2401 12.4497 31.1501 12.7397 31.1001C13.0297 31.0501 13.2998 31.0301 13.5698 31.0301H16.2498V31.3101Z" fill="#191970"/>
<path d="M26.1098 26.0502C25.8198 25.8802 25.5298 25.7502 25.2398 25.6802C24.9498 25.6102 24.6498 25.5702 24.3298 25.5702C23.8798 25.5702 23.4198 25.6902 22.9498 25.9402C22.4798 26.1902 22.0798 26.5302 21.7398 26.9602C21.6698 27.0502 21.6098 27.1402 21.5498 27.2402V25.4202H19.5698V35.6102H21.5498V31.1102C21.5498 30.5902 21.5698 30.1802 21.5998 29.8802C21.6298 29.5802 21.6798 29.3402 21.7298 29.1502C21.8498 28.7602 22.0298 28.4502 22.2598 28.2102C22.4898 27.9702 22.7598 27.8002 23.0498 27.6902C23.3398 27.5802 23.6398 27.5302 23.9498 27.5302C24.1498 27.5302 24.3598 27.5602 24.5898 27.6102C24.8198 27.6602 24.9998 27.7302 25.1498 27.8102L26.1098 26.0502Z" fill="#191970"/>
<path d="M34.4001 26.4001C33.6701 25.7301 32.6501 25.3901 31.3301 25.3901C31.3301 25.3901 31.3201 25.3901 31.3101 25.3901C31.3101 25.3901 31.31 25.3901 31.3 25.3901C30.46 25.3901 29.68 25.5301 28.97 25.8201C28.26 26.1101 27.6101 26.5601 27.0201 27.1701L28.2401 28.4301C28.2401 28.4301 28.2501 28.4201 28.2601 28.4101L28.2801 28.4301C28.7201 27.9501 29.18 27.6001 29.67 27.3901C30.15 27.1801 30.6601 27.0701 31.1901 27.0701C31.9401 27.0701 32.51 27.2601 32.91 27.6301C33.31 28.0001 33.5101 28.5401 33.5101 29.2301V29.5501H30.55C30.06 29.5501 29.59 29.5901 29.16 29.6801C28.73 29.7701 28.3401 29.9201 28.0101 30.1301C27.6501 30.3401 27.3601 30.6501 27.1301 31.0401C26.9001 31.4301 26.79 31.9001 26.79 32.4501C26.79 33.0801 26.9401 33.6301 27.2501 34.1001C27.5601 34.5701 27.99 34.9401 28.55 35.2101C29.11 35.4801 29.7601 35.6101 30.4901 35.6101C30.4901 35.6101 30.4901 35.6101 30.5001 35.6101C30.5001 35.6101 30.5101 35.6101 30.5201 35.6101C31.1601 35.6101 31.7401 35.4801 32.2501 35.2101C32.7601 34.9401 33.19 34.5501 33.54 34.0401L33.5701 34.3601V35.6201H35.5001V29.2401C35.5001 28.0301 35.14 27.0801 34.41 26.4101L34.4001 26.4001ZM33.5001 31.0301V31.3101C33.5001 31.8301 33.3701 32.2901 33.1201 32.7001C32.8701 33.1101 32.53 33.4301 32.11 33.6601C31.69 33.8901 31.2401 34.0101 30.7401 34.0101C30.1501 34.0101 29.6701 33.8701 29.3201 33.5901C28.9601 33.3101 28.7801 32.9401 28.7801 32.4701C28.7801 32.2301 28.83 32.0201 28.92 31.8401C29.01 31.6601 29.14 31.5101 29.3 31.3901C29.5 31.2401 29.7401 31.1501 30.0301 31.1001C30.3201 31.0501 30.59 31.0301 30.86 31.0301H33.5101H33.5001Z" fill="#191970"/>
<path d="M37.2598 25.3901L37.0098 26.1001L36.7498 25.3901H36.4897V26.4101H36.6498V25.5601L36.9498 26.3401H37.0598L37.3597 25.5701V26.4101H37.5198V25.3901H37.2598Z" fill="#191970"/>
<path d="M35.4897 25.5401H35.7897V26.4101H35.9598V25.5401H36.2598V25.3901H35.4897V25.5401Z" fill="#191970"/>
<path d="M12.9093 8.52382L11.2617 10.1714L17.852 16.7616L19.4995 15.1141L12.9093 8.52382Z" fill="#F09100"/>
<path d="M24.4398 16.7701L17.8497 23.3701L11.2598 16.7701L12.9097 15.1301L17.8497 20.0701L22.7897 15.1301L24.4398 16.7701Z" fill="#F09100"/>
<path d="M24.4398 6.89005L22.7897 8.54004L17.8497 3.60004L12.9097 8.54004L11.2598 6.89005L17.8497 0.300049L24.4398 6.89005Z" fill="#F09100"/>
<path d="M17.8639 6.92326L16.2178 8.57227L22.8138 15.1568L24.4599 13.5077L17.8639 6.92326Z" fill="#F09100"/>
</svg>
