<svg width="39" height="42" viewBox="0 0 39 42" fill="none" xmlns="http://www.w3.org/2000/svg">
<path d="M20.8301 6.51999C20.8301 4.68999 20.9901 1 16.2301 1C12.4401 1 8.99013 5.04999 8.87013 7.43999C6.01013 7.81999 3.29018 10.62 3.67018 14.18C0.950175 15.51 -1.01984 22.63 2.53016 26C1.89016 28.9 3.87017 35.55 9.79017 35.02C11.2302 42.77 20.8301 42.54 20.8301 36.86V32.26" stroke="#2A0944" stroke-width="0.75" stroke-miterlimit="10"/>
<path d="M15.3102 12.9599C11.9702 12.9599 8.87012 12.4399 8.87012 7.43994" stroke="#2A0944" stroke-width="0.75" stroke-miterlimit="10"/>
<path d="M9.2002 19.28C10.7502 20.29 13.3703 19.89 14.7803 18.41C15.8203 17.32 16.9302 15.59 18.0702 15.71H32.7803" stroke="#2A0944" stroke-width="0.75" stroke-miterlimit="10"/>
<path d="M16.23 32.4199C16.91 30.8399 18.53 30.4299 20.83 30.4299H32.79" stroke="#2A0944" stroke-width="0.75" stroke-miterlimit="10"/>
<path d="M11.1403 29.8199C9.60026 29.5799 8.24023 28.1299 8.24023 26.9199" stroke="#2A0944" stroke-width="0.75" stroke-miterlimit="10"/>
<path d="M9.80029 35.0299C9.80029 31.4899 11.8102 26.9199 16.9402 26.9199" stroke="#2A0944" stroke-width="0.75" stroke-miterlimit="10"/>
<path d="M6.30029 16.54C7.90029 16.54 9.2002 17.67 9.2002 19.28C9.2002 20.54 8.39026 21.78 7.27026 22.18" stroke="#2A0944" stroke-width="0.75" stroke-miterlimit="10"/>
<path d="M26.35 8.36009H20.83C18.33 8.36009 15.87 7.98009 15 5.84009" stroke="#2A0944" stroke-width="0.75" stroke-miterlimit="10"/>
<path d="M20.8301 10.2V15.7099" stroke="#2A0944" stroke-width="0.75" stroke-miterlimit="10"/>
<path d="M20.8301 18.47V28.59" stroke="#2A0944" stroke-width="0.75" stroke-miterlimit="10"/>
<path d="M20.8301 23.0701H26.3501" stroke="#2A0944" stroke-width="0.75" stroke-miterlimit="10"/>
<path d="M22.6699 37.79H26.3499" stroke="#2A0944" stroke-width="0.75" stroke-miterlimit="10"/>
<path d="M35.55 18.47C37.0744 18.47 38.3101 17.2343 38.3101 15.7099C38.3101 14.1856 37.0744 12.95 35.55 12.95C34.0257 12.95 32.79 14.1856 32.79 15.7099C32.79 17.2343 34.0257 18.47 35.55 18.47Z" stroke="#2A0944" stroke-width="0.75" stroke-miterlimit="10"/>
<path d="M29.1101 11.1201C30.6344 11.1201 31.8701 9.88441 31.8701 8.36011C31.8701 6.8358 30.6344 5.6001 29.1101 5.6001C27.5858 5.6001 26.3501 6.8358 26.3501 8.36011C26.3501 9.88441 27.5858 11.1201 29.1101 11.1201Z" stroke="#2A0944" stroke-width="0.75" stroke-miterlimit="10"/>
<path d="M29.1101 25.8301C30.6344 25.8301 31.8701 24.5944 31.8701 23.0701C31.8701 21.5457 30.6344 20.3101 29.1101 20.3101C27.5858 20.3101 26.3501 21.5457 26.3501 23.0701C26.3501 24.5944 27.5858 25.8301 29.1101 25.8301Z" stroke="#2A0944" stroke-width="0.75" stroke-miterlimit="10"/>
<path d="M29.1101 40.55C30.6344 40.55 31.8701 39.3143 31.8701 37.79C31.8701 36.2657 30.6344 35.03 29.1101 35.03C27.5858 35.03 26.3501 36.2657 26.3501 37.79C26.3501 39.3143 27.5858 40.55 29.1101 40.55Z" stroke="#2A0944" stroke-width="0.75" stroke-miterlimit="10"/>
<path d="M35.55 33.1899C37.0744 33.1899 38.3101 31.9542 38.3101 30.4299C38.3101 28.9056 37.0744 27.6699 35.55 27.6699C34.0257 27.6699 32.79 28.9056 32.79 30.4299C32.79 31.9542 34.0257 33.1899 35.55 33.1899Z" stroke="#2A0944" stroke-width="0.75" stroke-miterlimit="10"/>
</svg>
