<svg width="41" height="38" viewBox="0 0 41 38" fill="none" xmlns="http://www.w3.org/2000/svg">
<path d="M25.7436 29.1138L24.2021 30.6553L25.7437 32.1968L27.2851 30.6553L25.7436 29.1138Z" fill="#191970"/>
<path d="M19.0698 30.66L25.7599 37.35L32.4498 30.66L25.7599 23.97L19.0698 30.66ZM29.3599 30.66L25.7599 34.26L22.1599 30.66L25.7599 27.06L29.3599 30.66Z" fill="#191970"/>
<path d="M25.75 29.1099V32.1999H25.76L27.3 30.6599L25.75 29.1099Z" fill="#D2D204"/>
<path d="M25.76 23.97H25.75V27.06H25.76L29.36 30.66L25.76 34.26L25.75 34.25V37.34H25.76L32.4399 30.66L25.76 23.97Z" fill="#D2D204"/>
<path d="M15.98 30.6499L22.52 24.1099H22.46H9.90002V26.2899H17.26L12.89 30.6499L17.26 35.0199H7.70996V37.1999H22.41H22.52L15.98 30.6499Z" fill="#191970"/>
<path d="M40.08 14.1401C40.08 13.1401 39.27 12.3301 38.27 12.3301H32.8V16.3701C32.8 17.3701 33.61 18.1801 34.61 18.1801H38.62V19.6101C38.62 20.0101 38.29 20.3401 37.89 20.3401H28.4399V21.7901H38.26C38.76 21.7901 39.22 21.5901 39.55 21.2601C39.88 20.9301 40.08 20.4801 40.08 19.9701V14.1401ZM34.26 16.0001V13.7901H37.9C38.3 13.7901 38.62 14.1101 38.62 14.5101V16.7201H34.98C34.58 16.7201 34.26 16.4001 34.26 16.0001Z" fill="#191970"/>
<path d="M28.7999 12.3301V15.9901C28.7999 16.3901 28.4798 16.7201 28.0698 16.7201H24.4299V12.3301H22.9799V16.7201H20.0698V12.3301H18.6199V16.7201H11.7098V14.1401C11.7098 13.1401 10.8999 12.3301 9.8999 12.3301H1.88989C1.38989 12.3301 0.929854 12.5301 0.599854 12.8601C0.269854 13.1901 0.0698242 13.6401 0.0698242 14.1501V21.7901H1.5199V14.5201C1.5199 14.1201 1.83988 13.7901 2.24988 13.7901H4.42993V16.3701C4.42993 17.3701 5.23987 18.1801 6.23987 18.1801H28.4299C29.4299 18.1801 30.2399 17.3701 30.2399 16.3701V12.3401H28.7899L28.7999 12.3301ZM10.2599 16.7201H6.61987C6.21987 16.7201 5.8999 16.4001 5.8999 16.0001V13.7901H9.53992C9.93992 13.7901 10.2599 14.1101 10.2599 14.5101V16.7201Z" fill="#191970"/>
<path d="M28.4399 2.14996V10.15H29.89V2.14996H32.8V10.15H34.25V2.14996H37.89C38.29 2.14996 38.62 2.46994 38.62 2.87994V10.15H40.0699V2.50995C40.0699 1.50995 39.26 0.699951 38.26 0.699951H28.4399V2.14996Z" fill="#191970"/>
<path d="M11.7098 8.69995V0.699951H10.2599V8.69995H5.8999V0.699951H4.44983V8.69995H2.2699C1.8699 8.69995 1.53992 8.37994 1.53992 7.96994V0.699951H0.0898438V8.33994C0.0898438 9.33994 0.899902 10.15 1.8999 10.15H11.7198V8.69995H11.7098Z" fill="#191970"/>
<path d="M20.8 5.08994C20.4 5.08994 20.08 4.76993 20.08 4.36993V2.15994H25.9V0.709961H18.63V4.74994C18.63 5.74994 19.4399 6.55994 20.4399 6.55994H24.45V7.98996C24.45 8.38996 24.12 8.71994 23.72 8.71994H14.27V10.17H24.09C24.59 10.17 25.05 9.96995 25.38 9.63995C25.71 9.30995 25.91 8.85995 25.91 8.34995V5.09995H20.8199L20.8 5.08994Z" fill="#191970"/>
</svg>
