<svg width="41" height="18" viewBox="0 0 41 18" fill="none" xmlns="http://www.w3.org/2000/svg">
<path d="M17.86 6.56982H0.689941V9.31982H19.5601L17.86 6.56982Z" fill="#2A0944"/>
<path d="M17.86 1.05981H0.689941V3.81981H19.5601L17.86 1.05981Z" fill="#2A0944"/>
<path d="M17.86 12.0798H0.689941V14.8298H19.5601L17.86 12.0798Z" fill="#2A0944"/>
<path d="M34.7098 1.05981L28.8999 10.5798L23.0898 1.05981H19.8599L28.8999 15.8798L37.9398 1.05981H34.7098Z" fill="#2A0944"/>
<path d="M38.9902 0.599915H39.2603V1.46992H39.4502V0.599915H39.7202V0.419922H38.9902V0.599915Z" fill="#2A0944"/>
<path d="M40.4501 0.419922L40.2601 1.05992L40.0701 0.419922H39.8301V1.46992H39.9901V0.719925L40.1802 1.28992H40.3401L40.5201 0.699921V1.46992H40.6901V0.419922H40.4501Z" fill="#2A0944"/>
<path d="M1.29004 16.9299H1.63V16.9499C1.63 17.0299 1.61997 17.0999 1.58997 17.1599C1.55997 17.2199 1.51997 17.2599 1.46997 17.2899C1.41997 17.3199 1.36004 17.3399 1.29004 17.3399C1.22004 17.3399 1.15999 17.3299 1.10999 17.2999C1.05999 17.2699 1.01999 17.2299 0.98999 17.1799C0.95999 17.1299 0.949951 17.0699 0.949951 16.9999V16.5199C0.949951 16.4399 0.95999 16.3799 0.98999 16.3199C1.01999 16.2599 1.05999 16.2199 1.10999 16.1899C1.15999 16.1599 1.22004 16.1399 1.29004 16.1399C1.34004 16.1399 1.38004 16.1499 1.42004 16.1699C1.46004 16.1899 1.50003 16.2199 1.53003 16.2599C1.56003 16.2999 1.57998 16.3499 1.59998 16.3999V16.4499H1.87V16.3899C1.85 16.2899 1.81001 16.1999 1.76001 16.1299C1.71001 16.0499 1.64005 15.9999 1.55005 15.9499C1.47005 15.9099 1.38003 15.8899 1.28003 15.8899C1.16003 15.8899 1.05997 15.9199 0.969971 15.9699C0.879971 16.0199 0.81001 16.0999 0.76001 16.1899C0.71001 16.2799 0.689941 16.3999 0.689941 16.5199V17.0099C0.689941 17.1299 0.72001 17.2299 0.76001 17.3199C0.81001 17.4099 0.879971 17.4799 0.969971 17.5299C1.05997 17.5799 1.16003 17.5999 1.28003 17.5999C1.40003 17.5999 1.49997 17.5699 1.58997 17.5199C1.67997 17.4699 1.75005 17.3899 1.80005 17.2999C1.85005 17.1999 1.87 17.0899 1.87 16.9699V16.6999H1.27002V16.9499L1.29004 16.9299Z" fill="#2A0944"/>
<path d="M4.83984 16.1099H5.31982V17.5899H5.56982V16.1099H6.04993V15.8699H4.83984V16.1099Z" fill="#2A0944"/>
<path d="M7.90002 16.1099V15.8699H6.79004V17.5899H7.90002V17.3399H7.05005V16.8599H7.77002V16.6099H7.05005V16.1099H7.90002Z" fill="#2A0944"/>
<path d="M3.47009 15.8699H3.25012L2.62012 17.5699L2.90015 17.5799L3.03015 17.2099H3.70007L3.83008 17.5799H4.11011L3.4801 15.8699H3.47009ZM3.61011 16.9699H3.1001L3.3501 16.2399L3.6001 16.9699H3.61011Z" fill="#2A0944"/>
</svg>
