<svg width="49" height="51" viewBox="0 0 49 51" fill="none" xmlns="http://www.w3.org/2000/svg">
<path d="M36.6361 6.39783C42.3577 9.57172 46.4385 15.0127 47.4209 21.3712" stroke="white" stroke-miterlimit="10"/>
<path d="M12.8751 6.39783C7.15344 9.57172 3.07273 15.0127 2.09033 21.3712" stroke="white" stroke-miterlimit="10"/>
<path d="M34.8872 47.0647C31.8428 48.6732 28.3991 49.5801 24.7502 49.5801C21.1013 49.5801 17.6575 48.6732 14.6132 47.0647" stroke="white" stroke-miterlimit="10"/>
<path d="M8.55688 33.3866C11.9575 33.3866 16.1138 35.6645 16.1138 37.2298V40.9435C13.5336 42.6816 11.2666 43.1026 8.55688 43.1026C5.8472 43.1026 3.58014 42.6816 1 40.9435V37.2298C1 35.6753 5.15628 33.3866 8.55688 33.3866Z" stroke="white" stroke-miterlimit="10"/>
<path d="M8.55687 22.5911C10.7915 22.5911 12.8751 24.3291 12.8751 26.4775V29.5002C12.8751 31.6485 10.7915 33.3866 8.55687 33.3866C6.32219 33.3866 4.23865 31.6485 4.23865 29.5002V26.4775C4.23865 24.3291 6.32219 22.5911 8.55687 22.5911Z" stroke="white" stroke-miterlimit="10"/>
<path d="M24.7502 11.7955C28.1508 11.7955 32.3071 14.0734 32.3071 15.6387V19.3524C30.148 21.0905 27.4599 21.5115 24.7502 21.5115C22.0406 21.5115 19.3525 21.0905 17.1934 19.3524V15.6387C17.1934 14.0842 21.3496 11.7955 24.7502 11.7955Z" stroke="white" stroke-miterlimit="10"/>
<path d="M24.7502 1C26.9849 1 29.0684 2.73808 29.0684 4.8864V7.90915C29.0684 10.0575 26.9849 11.7955 24.7502 11.7955C22.5155 11.7955 20.432 10.0575 20.432 7.90915V4.8864C20.432 2.73808 22.5155 1 24.7502 1Z" stroke="white" stroke-miterlimit="10"/>
<path d="M40.9435 33.3866C44.3441 33.3866 48.5004 35.6645 48.5004 37.2298V40.9435C45.9202 42.6816 43.6532 43.1026 40.9435 43.1026C38.2338 43.1026 35.9667 42.6816 33.3866 40.9435V37.2298C33.3866 35.6753 37.5429 33.3866 40.9435 33.3866Z" stroke="white" stroke-miterlimit="10"/>
<path d="M40.9435 22.5911C43.1781 22.5911 45.2617 24.3291 45.2617 26.4775V29.5002C45.2617 31.6485 43.1781 33.3866 40.9435 33.3866C38.7088 33.3866 36.6252 31.6485 36.6252 29.5002V26.4775C36.6252 24.3291 38.7088 22.5911 40.9435 22.5911Z" stroke="white" stroke-miterlimit="10"/>
</svg>
