<svg width="173" height="72" viewBox="0 0 173 72" fill="none" xmlns="http://www.w3.org/2000/svg">
<path d="M144.154 58.2109H142.172V51.7863H144.242C144.865 51.7863 145.398 51.9149 145.842 52.1722C146.285 52.4273 146.625 52.7943 146.861 53.2733C147.098 53.7501 147.216 54.321 147.216 54.9861C147.216 55.6553 147.097 56.2315 146.858 56.7146C146.62 57.1956 146.273 57.5658 145.817 57.8251C145.361 58.0823 144.807 58.2109 144.154 58.2109ZM142.95 57.5208H144.104C144.635 57.5208 145.075 57.4183 145.425 57.2134C145.774 57.0084 146.034 56.7167 146.206 56.3381C146.377 55.9596 146.463 55.5089 146.463 54.9861C146.463 54.4674 146.378 54.0209 146.209 53.6466C146.039 53.2701 145.786 52.9815 145.45 52.7807C145.113 52.5779 144.694 52.4765 144.192 52.4765H142.95V57.5208ZM148.597 58.2109V53.3925H149.338V58.2109H148.597ZM148.974 52.5894C148.829 52.5894 148.705 52.5402 148.6 52.4419C148.498 52.3437 148.447 52.2255 148.447 52.0875C148.447 51.9494 148.498 51.8313 148.6 51.733C148.705 51.6347 148.829 51.5855 148.974 51.5855C149.118 51.5855 149.241 51.6347 149.344 51.733C149.448 51.8313 149.501 51.9494 149.501 52.0875C149.501 52.2255 149.448 52.3437 149.344 52.4419C149.241 52.5402 149.118 52.5894 148.974 52.5894ZM152.815 60.1182C152.457 60.1182 152.15 60.0722 151.893 59.9802C151.636 59.8903 151.421 59.7711 151.25 59.6226C151.08 59.4762 150.945 59.3194 150.845 59.152L151.435 58.738C151.502 58.8258 151.586 58.9262 151.689 59.0391C151.791 59.1541 151.932 59.2535 152.109 59.3371C152.289 59.4229 152.524 59.4657 152.815 59.4657C153.204 59.4657 153.525 59.3716 153.778 59.1834C154.031 58.9952 154.158 58.7003 154.158 58.2988V57.32H154.095C154.041 57.4079 153.963 57.5166 153.863 57.6463C153.765 57.7738 153.622 57.8878 153.436 57.9882C153.252 58.0865 153.003 58.1356 152.69 58.1356C152.301 58.1356 151.951 58.0436 151.642 57.8596C151.334 57.6756 151.091 57.4079 150.911 57.0565C150.733 56.7052 150.644 56.2785 150.644 55.7766C150.644 55.283 150.731 54.8533 150.905 54.4873C151.078 54.1192 151.32 53.8348 151.629 53.634C151.939 53.4312 152.296 53.3297 152.702 53.3297C153.016 53.3297 153.265 53.382 153.449 53.4866C153.635 53.5891 153.777 53.7062 153.875 53.8379C153.976 53.9676 154.053 54.0742 154.108 54.1579H154.183V53.3925H154.898V58.349C154.898 58.7631 154.804 59.0998 154.616 59.3591C154.43 59.6205 154.179 59.8119 153.863 59.9332C153.549 60.0566 153.2 60.1182 152.815 60.1182ZM152.79 57.4706C153.087 57.4706 153.338 57.4026 153.543 57.2667C153.748 57.1308 153.904 56.9352 154.01 56.6801C154.117 56.4249 154.17 56.1196 154.17 55.7641C154.17 55.4169 154.118 55.1105 154.013 54.8449C153.909 54.5793 153.754 54.3712 153.549 54.2206C153.344 54.0701 153.091 53.9948 152.79 53.9948C152.476 53.9948 152.215 54.0742 152.006 54.2332C151.799 54.3921 151.643 54.6055 151.538 54.8731C151.436 55.1408 151.385 55.4378 151.385 55.7641C151.385 56.0987 151.437 56.3946 151.541 56.6518C151.648 56.907 151.805 57.1078 152.012 57.2541C152.221 57.3984 152.48 57.4706 152.79 57.4706ZM156.43 58.2109V53.3925H157.17V58.2109H156.43ZM156.806 52.5894C156.662 52.5894 156.538 52.5402 156.433 52.4419C156.331 52.3437 156.279 52.2255 156.279 52.0875C156.279 51.9494 156.331 51.8313 156.433 51.733C156.538 51.6347 156.662 51.5855 156.806 51.5855C156.951 51.5855 157.074 51.6347 157.177 51.733C157.281 51.8313 157.333 51.9494 157.333 52.0875C157.333 52.2255 157.281 52.3437 157.177 52.4419C157.074 52.5402 156.951 52.5894 156.806 52.5894ZM160.798 53.3925V54.0199H158.301V53.3925H160.798ZM159.029 52.238H159.77V56.8306C159.77 57.0398 159.8 57.1966 159.861 57.3012C159.923 57.4037 160.003 57.4727 160.099 57.5082C160.197 57.5417 160.301 57.5584 160.41 57.5584C160.491 57.5584 160.558 57.5543 160.61 57.5459C160.663 57.5354 160.704 57.5271 160.736 57.5208L160.886 58.1858C160.836 58.2047 160.766 58.2235 160.676 58.2423C160.586 58.2632 160.472 58.2737 160.334 58.2737C160.125 58.2737 159.92 58.2287 159.719 58.1388C159.521 58.0489 159.355 57.9119 159.224 57.7278C159.094 57.5438 159.029 57.3117 159.029 57.0314V52.238ZM163.507 58.3239C163.201 58.3239 162.924 58.2664 162.675 58.1513C162.427 58.0342 162.229 57.8659 162.083 57.6463C161.936 57.4246 161.863 57.1569 161.863 56.8432C161.863 56.5671 161.917 56.3434 162.026 56.1719C162.135 55.9983 162.28 55.8624 162.462 55.7641C162.644 55.6658 162.845 55.5926 163.064 55.5445C163.286 55.4943 163.509 55.4545 163.733 55.4253C164.025 55.3876 164.263 55.3594 164.445 55.3406C164.629 55.3196 164.763 55.2851 164.846 55.237C164.932 55.1889 164.975 55.1053 164.975 54.9861V54.961C164.975 54.6515 164.89 54.411 164.721 54.2395C164.553 54.068 164.299 53.9822 163.958 53.9822C163.605 53.9822 163.328 54.0596 163.127 54.2144C162.926 54.3691 162.785 54.5343 162.704 54.71L162.001 54.4591C162.126 54.1663 162.294 53.9383 162.503 53.7752C162.714 53.61 162.944 53.4949 163.193 53.4301C163.444 53.3632 163.691 53.3297 163.933 53.3297C164.088 53.3297 164.266 53.3485 164.467 53.3862C164.67 53.4217 164.865 53.496 165.053 53.6089C165.244 53.7219 165.402 53.8923 165.527 54.1203C165.652 54.3482 165.715 54.6536 165.715 55.0363V58.2109H164.975V57.5584H164.937C164.887 57.663 164.803 57.7749 164.686 57.8941C164.569 58.0133 164.413 58.1147 164.219 58.1984C164.024 58.282 163.787 58.3239 163.507 58.3239ZM163.62 57.6588C163.912 57.6588 164.159 57.6013 164.36 57.4863C164.563 57.3713 164.716 57.2228 164.818 57.0408C164.923 56.8589 164.975 56.6675 164.975 56.4668V55.7892C164.944 55.8268 164.874 55.8613 164.768 55.8927C164.663 55.922 164.542 55.9481 164.404 55.9711C164.268 55.992 164.135 56.0108 164.006 56.0276C163.878 56.0422 163.774 56.0548 163.695 56.0652C163.503 56.0903 163.323 56.1311 163.155 56.1876C162.99 56.2419 162.856 56.3245 162.754 56.4354C162.653 56.5441 162.603 56.6926 162.603 56.8808C162.603 57.1381 162.698 57.3326 162.889 57.4643C163.081 57.594 163.325 57.6588 163.62 57.6588ZM167.984 51.7863V58.2109H167.243V51.7863H167.984Z" fill="#191970"/>
<path d="M78.6914 28.5237C77.5854 27.8628 76.3755 27.3247 75.0645 26.9119C73.7515 26.4988 72.4604 26.1467 71.1904 25.8567C69.8374 25.5256 68.6997 25.1858 67.7778 24.8337C66.8555 24.4827 66.1787 24.0688 65.7485 23.5938C65.3184 23.1187 65.1025 22.5078 65.1025 21.7637C65.1025 20.7307 65.5845 19.9138 66.5474 19.3137C67.5107 18.7148 68.7095 18.4148 70.1455 18.4148C71.6606 18.4148 73.0654 18.7249 74.3564 19.3447C75.6475 19.9648 76.7026 20.9568 77.5234 22.3218L81.2744 19.4067C80.2075 17.5059 78.7114 16.0679 76.7856 15.0957C74.8584 14.1257 72.7275 13.6387 70.3906 13.6387C67.1118 13.6387 64.4766 14.4348 62.4897 16.0269C60.5015 17.6187 59.5078 19.7168 59.5078 22.3218C59.5078 23.8098 59.8047 25.0608 60.3994 26.0737C60.9927 27.0876 61.7715 27.9138 62.7358 28.5547C63.6978 29.1958 64.7744 29.7236 65.9634 30.1357C67.1528 30.5508 68.3208 30.9219 69.4688 31.2527C70.7388 31.5427 71.9067 31.8838 72.9736 32.2756C74.0386 32.6697 74.8994 33.1658 75.5557 33.7637C76.2114 34.3647 76.5396 35.1597 76.5396 36.1519C76.5396 37.3928 76.0176 38.3958 74.9717 39.1597C73.9268 39.9258 72.5015 40.3079 70.6987 40.3079C68.6484 40.3079 66.8955 39.8018 65.4414 38.7878C63.9858 37.7756 62.8677 36.5657 62.0898 35.1597L57.9707 38.7568C58.6675 39.8328 59.5996 40.8767 60.7676 41.8887C61.9365 42.9028 63.3408 43.7288 64.9805 44.3699C66.6187 45.0107 68.5054 45.3308 70.6367 45.3308C73.0137 45.3308 75.0835 44.9167 76.8477 44.0908C78.6084 43.2637 79.9824 42.1167 80.9668 40.6487C81.9507 39.1807 82.4424 37.4758 82.4424 35.5327C82.4424 33.7546 82.0938 32.3066 81.3975 31.1907C80.7007 30.0737 79.7988 29.1858 78.6914 28.5237Z" fill="#191970"/>
<path d="M100.511 13.6387C97.9292 13.6387 95.54 14.0837 93.3472 14.9727C91.1543 15.8618 89.1562 17.2568 87.3521 19.1587L91.103 23.0657C92.4561 21.5776 93.8789 20.5027 95.377 19.8408C96.8721 19.1797 98.4399 18.8486 100.08 18.8486C102.417 18.8486 104.2 19.4287 105.43 20.5847C106.659 21.7427 107.275 23.3967 107.275 25.5469V26.5388H98.1743C96.6572 26.5388 95.2319 26.6738 93.8999 26.9429C92.5679 27.2107 91.3892 27.6768 90.3652 28.3376C89.2583 28.9998 88.356 29.9397 87.6602 31.1597C86.9619 32.3796 86.6143 33.8376 86.6143 35.5327C86.6143 37.4758 87.085 39.1807 88.0293 40.6487C88.9712 42.1167 90.3032 43.2637 92.0249 44.0908C93.7471 44.9167 95.7349 45.3308 97.9902 45.3308C99.957 45.3308 101.73 44.9167 103.308 44.0908C104.886 43.2637 106.208 42.0537 107.275 40.4626C107.311 40.4077 107.34 40.3467 107.376 40.2908V45.3308H113.3V25.5469C113.3 21.7847 112.183 18.8586 109.949 16.7708C107.714 14.6838 104.569 13.6387 100.511 13.6387ZM107.275 31.9968C107.275 33.6099 106.884 35.0457 106.106 36.3066C105.327 37.5688 104.292 38.5608 103.001 39.2847C101.71 40.0078 100.285 40.3687 98.7271 40.3687C96.8833 40.3687 95.4082 39.9348 94.3003 39.0667C93.1938 38.1987 92.6401 37.0417 92.6401 35.5938C92.6401 34.8499 92.7832 34.1978 93.0703 33.6409C93.3569 33.0828 93.7471 32.6177 94.2393 32.2449C94.854 31.7908 95.6021 31.4907 96.4829 31.3447C97.3643 31.2007 98.2139 31.1287 99.0352 31.1287H107.275V31.9968Z" fill="#191970"/>
<path d="M137.578 15.6846C136.676 15.1484 135.785 14.7656 134.904 14.5376C134.021 14.3105 133.09 14.1956 132.105 14.1956C130.711 14.1956 129.297 14.5786 127.863 15.3435C126.428 16.1096 125.188 17.1636 124.143 18.5066C123.927 18.7854 123.74 19.0806 123.559 19.3784V13.7246H117.471V45.3306H123.559V31.3755C123.559 29.7634 123.609 28.4915 123.712 27.5615C123.814 26.6316 123.949 25.8774 124.113 25.2976C124.48 24.0996 125.023 23.1274 125.742 22.3826C126.458 21.6394 127.268 21.1016 128.17 20.7705C129.072 20.4404 129.995 20.2744 130.938 20.2744C131.553 20.2744 132.208 20.3574 132.906 20.5225C133.602 20.6875 134.175 20.8945 134.626 21.1426L137.578 15.6846Z" fill="#191970"/>
<path d="M163.074 16.7708C160.838 14.6838 157.693 13.6387 153.636 13.6387C153.616 13.6387 153.596 13.6396 153.577 13.6396L153.538 13.6387C150.955 13.6387 148.566 14.0837 146.374 14.9727C144.181 15.8618 142.182 17.2568 140.378 19.1587L144.129 23.0657C144.146 23.0479 144.162 23.0317 144.178 23.0146L144.228 23.0657C145.581 21.5776 147.003 20.5027 148.501 19.8408C149.984 19.1848 151.541 18.8557 153.167 18.8499C155.474 18.8608 157.238 19.4387 158.456 20.5847C159.687 21.7427 160.302 23.3967 160.302 25.5469V26.5388H151.299H151.201C149.684 26.5388 148.259 26.6738 146.927 26.9429C145.595 27.2107 144.416 27.6768 143.392 28.3376C142.285 28.9998 141.383 29.9397 140.687 31.1597C139.989 32.3796 139.642 33.8376 139.642 35.5327C139.642 37.4758 140.112 39.1807 141.055 40.6487C141.998 42.1167 143.331 43.2637 145.052 44.0908C146.773 44.9167 148.761 45.3308 151.017 45.3308L151.062 45.3298C151.08 45.3298 151.097 45.3308 151.115 45.3308C153.082 45.3308 154.854 44.9167 156.433 44.0908C158.011 43.2637 159.333 42.0537 160.398 40.4626L160.416 40.4358L160.5 41.4138V45.3308H166.425V25.5469C166.425 21.7847 165.308 18.8586 163.074 16.7708ZM160.302 31.1287V31.9968C160.302 33.6099 159.911 35.0457 159.133 36.3066C158.354 37.5688 157.318 38.5608 156.028 39.2847C154.75 39.9998 153.342 40.3599 151.804 40.3677C149.981 40.3599 148.521 39.9277 147.425 39.0667C146.317 38.1987 145.765 37.0417 145.765 35.5938C145.765 34.8499 145.908 34.1978 146.195 33.6409C146.481 33.0828 146.872 32.6177 147.364 32.2449C147.979 31.7908 148.726 31.4907 149.607 31.3447C150.489 31.2007 151.338 31.1287 152.16 31.1287H160.302Z" fill="#191970"/>
<path d="M171.869 13.6367L171.097 15.8396L170.315 13.6367H169.493V16.7922H169.994V14.1431L170.927 16.564H171.258L172.17 14.1826V16.7922H172.682V13.6367H171.869Z" fill="#191970"/>
<path d="M166.425 14.1033H167.357V16.7922H167.869V14.1033H168.791V13.6367H166.425V14.1033Z" fill="#191970"/>
<path d="M26.0269 46.1458L20.9653 51.2507L0.702148 30.8213L5.76318 25.707L26.0269 46.1458Z" fill="#F09100"/>
<path d="M41.2197 51.2495L20.9653 71.688L0.702148 51.2495L5.76318 46.1445H5.77246L20.9653 61.4688L36.1582 46.1445L41.2197 51.2495Z" fill="#F09100"/>
<path d="M41.2197 20.6006L36.1582 25.7058L20.9653 10.3813L5.76318 25.7058L0.702148 20.6006L20.9565 0.162109L41.2197 20.6006Z" fill="#F09100"/>
<path d="M41.2192 41.031L36.1577 46.1455L15.8945 25.7068L20.9648 20.6016L41.2192 41.031Z" fill="#F09100"/>
</svg>
