<svg width="104" height="45" viewBox="0 0 104 45" fill="none" xmlns="http://www.w3.org/2000/svg">
<g clip-path="url(#clip0_27_7190)">
<path d="M44.6403 15.9121H0V23.03H49.0645L44.6403 15.9121Z" fill="#2A0944"/>
<path d="M44.6403 1.67383H0V8.79393H49.0645L44.6403 1.67383Z" fill="#2A0944"/>
<path d="M44.6403 30.1504H0V37.2682H49.0645L44.6403 30.1504Z" fill="#2A0944"/>
<path d="M88.4378 1.67383L73.3444 26.2905L58.2464 1.67383H49.8398L73.3444 39.9906L96.8444 1.67383H88.4378Z" fill="#2A0944"/>
<path d="M99.5781 0.463916H100.279V2.7185H100.764V0.463916H101.462V0H99.5781V0.463916Z" fill="#2A0944"/>
<path d="M103.362 0L102.873 1.67637L102.384 0H101.746V2.7185H102.186V0.775434L102.659 2.27027H103.087L103.56 0.739576V2.7185H104V0H103.362Z" fill="#2A0944"/>
<path d="M1.54578 42.6988H2.4225V42.7593C2.4225 42.9655 2.38644 43.1426 2.31657 43.2905C2.2467 43.4361 2.14303 43.5504 2.01457 43.6289C1.88385 43.7051 1.72834 43.7454 1.55705 43.7454C1.38576 43.7454 1.22349 43.7073 1.09052 43.6334C0.957549 43.5594 0.851623 43.4518 0.779502 43.3196C0.707382 43.1851 0.669068 43.026 0.669068 42.8445V41.5939C0.669068 41.3945 0.705128 41.2197 0.774995 41.0695C0.847115 40.9216 0.948534 40.805 1.07925 40.7221C1.20997 40.6392 1.36323 40.5989 1.53677 40.5989C1.65622 40.5989 1.77341 40.6258 1.88385 40.6773C1.99428 40.7288 2.09345 40.8073 2.17684 40.9081C2.26023 41.009 2.31882 41.13 2.35263 41.269L2.37291 41.4012L3.06257 41.3922L3.05806 41.2488C3.00848 40.9911 2.91156 40.7625 2.76958 40.5675C2.62759 40.3725 2.44954 40.2201 2.23543 40.1125C2.02358 40.005 1.78919 39.9512 1.53902 39.9512C1.23476 39.9512 0.962057 40.0184 0.732173 40.1551C0.500035 40.2896 0.31748 40.4823 0.191269 40.7288C0.0650586 40.9731 0.00195312 41.2622 0.00195312 41.5827V42.8512C0.00195312 43.156 0.0673123 43.4272 0.195777 43.658C0.324242 43.8889 0.50905 44.0704 0.743442 44.1981C0.97558 44.3259 1.25054 44.3886 1.5593 44.3886C1.86807 44.3886 2.13401 44.3214 2.36615 44.1847C2.59829 44.0502 2.78085 43.8575 2.90706 43.611C3.03327 43.3644 3.09637 43.0776 3.09637 42.7548V42.0466H1.54804V42.6966L1.54578 42.6988Z" fill="#2A0944"/>
<path d="M10.7754 40.5854H12.0217V44.3909H12.6911V40.5854H13.9374V39.9512H10.7754V40.5854Z" fill="#2A0944"/>
<path d="M18.7422 40.5854V39.9512H15.8574V44.3909H18.7422V43.7566H16.5245V42.5038H18.4087V41.8696H16.5245V40.5854H18.7422Z" fill="#2A0944"/>
<path d="M7.22063 39.9512H6.64818L5.0142 44.3573L5.00293 44.3886H5.72413L6.05769 43.4227H7.80887L8.13566 44.3729L8.14017 44.3886H8.86138L7.22289 39.9669L7.21613 39.9512H7.22063ZM7.59025 42.7885H6.27631L6.93215 40.888L7.588 42.7885H7.59025Z" fill="#2A0944"/>
</g>
<defs>
<clipPath id="clip0_27_7190">
<rect width="104" height="44.3902" fill="white"/>
</clipPath>
</defs>
</svg>
