<svg width="172" height="71" viewBox="0 0 172 71" fill="none" xmlns="http://www.w3.org/2000/svg">
<g clip-path="url(#clip0_27_4874)">
<path d="M129.74 51.0996H134.06V51.7996H130.57V53.7896H133.82V54.4896H130.57V56.6496H134.08V57.3496H129.74V51.0996Z" fill="#191970"/>
<path d="M135.189 51.0996H135.929V57.3496H135.189V51.0996Z" fill="#191970"/>
<path d="M141.13 55.9205C141.03 56.4205 140.81 56.8005 140.47 57.0705C140.13 57.3305 139.7 57.4605 139.19 57.4605C138.83 57.4605 138.51 57.4005 138.25 57.2805C137.99 57.1605 137.76 57.0005 137.58 56.7905C137.4 56.5805 137.26 56.3305 137.17 56.0405C137.08 55.7505 137.03 55.4305 137.02 55.0905C137.02 54.7505 137.07 54.4405 137.18 54.1505C137.28 53.8605 137.43 53.6105 137.62 53.4005C137.81 53.1905 138.03 53.0305 138.29 52.9105C138.55 52.7905 138.83 52.7305 139.14 52.7305C139.54 52.7305 139.88 52.8105 140.14 52.9805C140.4 53.1505 140.62 53.3605 140.78 53.6105C140.94 53.8605 141.05 54.1505 141.11 54.4505C141.17 54.7505 141.2 55.0405 141.18 55.3205H137.79C137.79 55.5205 137.81 55.7105 137.86 55.8905C137.91 56.0705 138 56.2205 138.11 56.3605C138.23 56.5005 138.38 56.6105 138.56 56.6905C138.74 56.7705 138.95 56.8105 139.2 56.8105C139.51 56.8105 139.77 56.7405 139.97 56.5905C140.17 56.4405 140.31 56.2205 140.37 55.9205H141.11H141.13ZM140.41 54.6605C140.4 54.4905 140.36 54.3205 140.29 54.1605C140.22 54.0005 140.13 53.8705 140.02 53.7505C139.91 53.6305 139.77 53.5505 139.61 53.4805C139.45 53.4105 139.28 53.3805 139.1 53.3805C138.91 53.3805 138.73 53.4105 138.58 53.4805C138.43 53.5505 138.29 53.6405 138.18 53.7605C138.07 53.8805 137.98 54.0105 137.92 54.1705C137.86 54.3205 137.82 54.4905 137.81 54.6605H140.41Z" fill="#191970"/>
<path d="M145.22 54.279C145.16 53.989 145.04 53.769 144.85 53.609C144.66 53.449 144.41 53.369 144.1 53.369C143.83 53.369 143.61 53.419 143.43 53.519C143.25 53.619 143.1 53.749 143 53.909C142.89 54.069 142.81 54.259 142.77 54.479C142.72 54.689 142.7 54.909 142.7 55.139C142.7 55.349 142.72 55.559 142.77 55.749C142.82 55.949 142.9 56.129 143 56.279C143.1 56.429 143.24 56.559 143.41 56.649C143.58 56.739 143.78 56.789 144.02 56.789C144.38 56.789 144.67 56.689 144.88 56.499C145.09 56.299 145.22 56.029 145.27 55.689H146.03C145.95 56.239 145.74 56.679 145.4 56.989C145.06 57.299 144.61 57.449 144.03 57.449C143.69 57.449 143.38 57.389 143.11 57.279C142.84 57.169 142.62 57.009 142.44 56.799C142.26 56.599 142.13 56.349 142.04 56.069C141.95 55.789 141.9 55.479 141.9 55.139C141.9 54.799 141.94 54.489 142.03 54.189C142.12 53.899 142.25 53.639 142.43 53.419C142.61 53.199 142.83 53.029 143.1 52.899C143.37 52.769 143.68 52.709 144.04 52.709C144.3 52.709 144.54 52.739 144.76 52.799C144.98 52.859 145.18 52.959 145.36 53.089C145.53 53.219 145.68 53.379 145.78 53.579C145.89 53.779 145.96 54.009 145.99 54.279H145.22Z" fill="#191970"/>
<path d="M148.049 52.8288H148.949V53.4888H148.049V56.2987C148.049 56.3887 148.049 56.4587 148.069 56.5087C148.079 56.5587 148.109 56.5987 148.149 56.6287C148.189 56.6588 148.249 56.6787 148.319 56.6887C148.389 56.6887 148.489 56.6987 148.599 56.6987H148.939V57.3587H148.369C148.179 57.3587 148.009 57.3487 147.879 57.3187C147.739 57.2887 147.629 57.2487 147.549 57.1787C147.469 57.1087 147.399 57.0087 147.359 56.8787C147.319 56.7487 147.299 56.5787 147.299 56.3687V53.4888H146.529V52.8288H147.299V51.4688H148.039V52.8288H148.049Z" fill="#191970"/>
<path d="M149.93 52.8293H150.63V53.7893H150.65C150.83 53.4193 151.05 53.1493 151.32 52.9793C151.58 52.7993 151.92 52.7193 152.32 52.7293V53.5193C152.02 53.5193 151.77 53.5593 151.56 53.6393C151.35 53.7193 151.18 53.8393 151.05 53.9993C150.92 54.1593 150.83 54.3493 150.77 54.5793C150.71 54.8093 150.68 55.0693 150.68 55.3493V57.3593H149.94V52.8293H149.93Z" fill="#191970"/>
<path d="M153.83 52.0096H153.09V51.0996H153.83V52.0096ZM153.09 52.8296H153.83V57.3596H153.09V52.8296Z" fill="#191970"/>
<path d="M158.24 54.279C158.18 53.989 158.06 53.769 157.87 53.609C157.68 53.449 157.43 53.369 157.12 53.369C156.85 53.369 156.63 53.419 156.45 53.519C156.27 53.619 156.12 53.749 156.02 53.909C155.91 54.069 155.83 54.259 155.79 54.479C155.74 54.689 155.72 54.909 155.72 55.139C155.72 55.349 155.74 55.559 155.79 55.749C155.84 55.949 155.92 56.129 156.02 56.279C156.12 56.429 156.26 56.559 156.43 56.649C156.6 56.739 156.8 56.789 157.04 56.789C157.4 56.789 157.69 56.689 157.9 56.499C158.11 56.299 158.24 56.029 158.29 55.689H159.05C158.97 56.239 158.76 56.679 158.42 56.989C158.08 57.299 157.63 57.449 157.05 57.449C156.71 57.449 156.4 57.389 156.13 57.279C155.86 57.169 155.64 57.009 155.46 56.799C155.28 56.599 155.15 56.349 155.06 56.069C154.97 55.789 154.92 55.479 154.92 55.139C154.92 54.799 154.96 54.489 155.05 54.189C155.14 53.899 155.27 53.639 155.45 53.419C155.63 53.199 155.85 53.029 156.12 52.899C156.39 52.769 156.7 52.709 157.06 52.709C157.32 52.709 157.56 52.739 157.78 52.799C158 52.859 158.2 52.959 158.38 53.089C158.55 53.219 158.7 53.379 158.8 53.579C158.91 53.779 158.98 54.009 159.01 54.279H158.24Z" fill="#191970"/>
<path d="M164.051 57.3387C163.921 57.4187 163.741 57.4587 163.521 57.4587C163.331 57.4587 163.171 57.3987 163.061 57.2887C162.951 57.1787 162.891 56.9987 162.891 56.7487C162.691 56.9987 162.451 57.1687 162.181 57.2887C161.911 57.3987 161.621 57.4587 161.301 57.4587C161.101 57.4587 160.901 57.4387 160.721 57.3887C160.541 57.3387 160.381 57.2687 160.241 57.1687C160.111 57.0687 160.001 56.9387 159.921 56.7787C159.841 56.6187 159.801 56.4287 159.801 56.1987C159.801 55.9387 159.841 55.7287 159.931 55.5687C160.021 55.4087 160.131 55.2787 160.281 55.1787C160.421 55.0787 160.591 54.9987 160.771 54.9487C160.951 54.8887 161.141 54.8488 161.331 54.8088C161.531 54.7688 161.731 54.7387 161.911 54.7188C162.091 54.6988 162.261 54.6687 162.401 54.6287C162.541 54.5887 162.651 54.5387 162.731 54.4587C162.811 54.3887 162.851 54.2787 162.851 54.1387C162.851 53.9787 162.821 53.8487 162.761 53.7487C162.701 53.6487 162.621 53.5787 162.521 53.5187C162.421 53.4687 162.321 53.4287 162.201 53.4087C162.081 53.3887 161.961 53.3787 161.851 53.3787C161.531 53.3787 161.271 53.4388 161.061 53.5588C160.851 53.6788 160.741 53.9088 160.721 54.2388H159.981C159.991 53.9588 160.051 53.7187 160.161 53.5287C160.261 53.3387 160.411 53.1788 160.581 53.0588C160.761 52.9388 160.961 52.8487 161.181 52.7987C161.411 52.7487 161.651 52.7188 161.901 52.7188C162.101 52.7188 162.311 52.7387 162.511 52.7587C162.711 52.7887 162.891 52.8487 163.061 52.9387C163.231 53.0287 163.351 53.1587 163.451 53.3187C163.551 53.4787 163.601 53.6987 163.601 53.9587V56.2887C163.601 56.4587 163.611 56.5887 163.631 56.6687C163.651 56.7487 163.721 56.7887 163.841 56.7887C163.911 56.7887 163.991 56.7687 164.071 56.7487V57.3288L164.051 57.3387ZM162.851 55.0187C162.781 55.0687 162.691 55.1087 162.591 55.1387C162.481 55.1687 162.371 55.1887 162.261 55.2087C162.151 55.2287 162.021 55.2487 161.891 55.2587C161.761 55.2687 161.631 55.2887 161.511 55.3187C161.391 55.3387 161.271 55.3687 161.161 55.4087C161.051 55.4487 160.951 55.4887 160.871 55.5487C160.791 55.6087 160.721 55.6887 160.671 55.7787C160.621 55.8687 160.601 55.9887 160.601 56.1287C160.601 56.2487 160.621 56.3587 160.671 56.4387C160.721 56.5187 160.781 56.5888 160.861 56.6488C160.941 56.7088 161.031 56.7387 161.141 56.7587C161.251 56.7787 161.361 56.7987 161.471 56.7987C161.721 56.7987 161.931 56.7687 162.101 56.6987C162.281 56.6287 162.421 56.5487 162.531 56.4487C162.641 56.3487 162.721 56.2387 162.781 56.1187C162.831 55.9987 162.861 55.8887 162.861 55.7787V55.0187H162.851Z" fill="#191970"/>
<path d="M164.971 51.0996H165.711V57.3496H164.971V51.0996Z" fill="#191970"/>
<path d="M77.9895 28.1194C76.8795 27.4594 75.6695 26.9294 74.3595 26.5194C73.0495 26.1094 71.7595 25.7594 70.4895 25.4694C69.1395 25.1394 67.9995 24.7994 67.0795 24.4594C66.1595 24.1094 65.4795 23.6994 65.0495 23.2294C64.6195 22.7594 64.3995 22.1494 64.3995 21.4194C64.3995 20.3994 64.8795 19.5894 65.8495 18.9894C66.8095 18.3994 68.0095 18.0994 69.4495 18.0994C70.9695 18.0994 72.3695 18.4094 73.6595 19.0194C74.9495 19.6394 76.0095 20.6194 76.8295 21.9694L80.5795 19.0794C79.5095 17.1994 78.0195 15.7694 76.0895 14.8094C74.1595 13.8494 72.0295 13.3594 69.6995 13.3594C66.4195 13.3594 63.7895 14.1494 61.7995 15.7294C59.8095 17.3094 58.8195 19.3894 58.8195 21.9694C58.8195 23.4494 59.1195 24.6894 59.7095 25.6894C60.2995 26.6894 61.0795 27.5094 62.0495 28.1494C63.0095 28.7894 64.0895 29.3094 65.2795 29.7194C66.4695 30.1294 67.6395 30.4994 68.7795 30.8294C70.0495 31.1194 71.2195 31.4594 72.2795 31.8394C73.3495 32.2294 74.2095 32.7194 74.8595 33.3194C75.5195 33.9194 75.8395 34.6994 75.8395 35.6894C75.8395 36.9194 75.3195 37.9094 74.2695 38.6694C73.2195 39.4294 71.7995 39.8094 69.9995 39.8094C67.9495 39.8094 66.1995 39.3094 64.7395 38.2994C63.2795 37.2994 62.1695 36.0994 61.3895 34.6994L57.2695 38.2694C57.9695 39.3394 58.8995 40.3694 60.0695 41.3794C61.2395 42.3894 62.6395 43.1994 64.2795 43.8394C65.9195 44.4794 67.7995 44.7894 69.9395 44.7894C72.3195 44.7894 74.3895 44.3794 76.1495 43.5594C77.9095 42.7394 79.2895 41.5994 80.2695 40.1494C81.2495 38.6994 81.7495 36.9994 81.7495 35.0794C81.7495 33.3194 81.3995 31.8794 80.6995 30.7794C79.9995 29.6694 79.0995 28.7894 77.9895 28.1394V28.1194Z" fill="#191970"/>
<path d="M99.8106 13.3596C97.2306 13.3596 94.8406 13.7996 92.6506 14.6796C90.4606 15.5596 88.4606 16.9396 86.6506 18.8296L90.4006 22.6996C91.7506 21.2196 93.1806 20.1596 94.6706 19.4996C96.1706 18.8396 97.7306 18.5196 99.3706 18.5196C101.711 18.5196 103.491 19.0996 104.721 20.2396C105.951 21.3896 106.561 23.0296 106.561 25.1596V26.1396H97.4606C95.9406 26.1396 94.5206 26.2696 93.1906 26.5396C91.8606 26.8096 90.6806 27.2696 89.6506 27.9196C88.5406 28.5796 87.6406 29.5096 86.9406 30.7196C86.2406 31.9296 85.8906 33.3696 85.8906 35.0596C85.8906 36.9896 86.3606 38.6796 87.3006 40.1296C88.2406 41.5896 89.5706 42.7196 91.3006 43.5396C93.0206 44.3596 95.0106 44.7696 97.2606 44.7696C99.2306 44.7696 101.001 44.3596 102.581 43.5396C104.161 42.7196 105.481 41.5196 106.551 39.9396C106.591 39.8896 106.621 39.8196 106.651 39.7696V44.7696H112.571V25.1596C112.571 21.4296 111.451 18.5296 109.221 16.4596C106.991 14.3896 103.841 13.3496 99.7806 13.3496L99.8106 13.3596ZM106.571 31.5596C106.571 33.1596 106.181 34.5796 105.401 35.8296C104.621 37.0796 103.591 38.0696 102.301 38.7796C101.011 39.4996 99.5806 39.8596 98.0306 39.8596C96.1906 39.8596 94.7106 39.4296 93.6006 38.5696C92.4906 37.7096 91.9406 36.5596 91.9406 35.1296C91.9406 34.3896 92.0806 33.7496 92.3706 33.1896C92.6606 32.6296 93.0506 32.1796 93.5406 31.8096C94.1606 31.3596 94.9006 31.0596 95.7806 30.9196C96.6606 30.7796 97.5106 30.7096 98.3306 30.7096H106.571V31.5696V31.5596Z" fill="#191970"/>
<path d="M136.879 15.3895C135.979 14.8595 135.089 14.4795 134.209 14.2495C133.329 14.0295 132.399 13.9095 131.409 13.9095C130.019 13.9095 128.599 14.2895 127.169 15.0495C125.729 15.8095 124.499 16.8495 123.449 18.1895C123.229 18.4695 123.049 18.7595 122.869 19.0495V13.4395H116.779V44.7695H122.869V30.9395C122.869 29.3395 122.919 28.0795 123.019 27.1595C123.119 26.2395 123.259 25.4895 123.419 24.9195C123.789 23.7295 124.329 22.7695 125.049 22.0295C125.769 21.2895 126.579 20.7595 127.479 20.4295C128.379 20.0995 129.299 19.9395 130.249 19.9395C130.869 19.9395 131.519 20.0195 132.219 20.1895C132.919 20.3495 133.489 20.5595 133.939 20.7995L136.889 15.3895H136.879Z" fill="#191970"/>
<path d="M162.37 16.4694C160.14 14.3994 156.99 13.3594 152.93 13.3594C152.91 13.3594 152.89 13.3594 152.87 13.3594C152.86 13.3594 152.84 13.3594 152.83 13.3594C150.25 13.3594 147.86 13.7994 145.67 14.6794C143.48 15.5594 141.48 16.9394 139.67 18.8294L143.42 22.6994C143.42 22.6994 143.45 22.6694 143.47 22.6494L143.52 22.6994C144.87 21.2194 146.3 20.1594 147.79 19.4994C149.27 18.8494 150.83 18.5194 152.46 18.5194C154.77 18.5294 156.53 19.0994 157.75 20.2394C158.98 21.3894 159.6 23.0294 159.6 25.1594V26.1394H150.5C148.98 26.1394 147.56 26.2694 146.23 26.5394C144.9 26.8094 143.72 27.2694 142.69 27.9194C141.58 28.5794 140.68 29.5094 139.98 30.7194C139.28 31.9294 138.93 33.3694 138.93 35.0594C138.93 36.9894 139.4 38.6794 140.34 40.1294C141.28 41.5894 142.62 42.7194 144.34 43.5394C146.06 44.3594 148.05 44.7694 150.3 44.7694C150.32 44.7694 150.33 44.7694 150.35 44.7694C150.37 44.7694 150.38 44.7694 150.4 44.7694C152.37 44.7694 154.14 44.3594 155.72 43.5394C157.3 42.7194 158.62 41.5194 159.69 39.9394C159.69 39.9394 159.7 39.9194 159.71 39.9094L159.8 40.8794V44.7594H165.72V25.1494C165.72 21.4194 164.6 18.5194 162.37 16.4494V16.4694ZM159.6 30.6994V31.5594C159.6 33.1594 159.21 34.5794 158.43 35.8294C157.65 37.0794 156.62 38.0694 155.32 38.7794C154.04 39.4894 152.63 39.8494 151.1 39.8494C149.28 39.8494 147.82 39.4094 146.72 38.5594C145.61 37.6994 145.06 36.5494 145.06 35.1194C145.06 34.3794 145.2 33.7394 145.49 33.1794C145.78 32.6294 146.17 32.1694 146.66 31.7994C147.28 31.3494 148.02 31.0494 148.9 30.9094C149.78 30.7694 150.63 30.6994 151.45 30.6994H159.59H159.6Z" fill="#191970"/>
<path d="M171.171 13.3594L170.401 15.5394L169.611 13.3594H168.791V16.4894H169.291V13.8594L170.231 16.2594H170.561L171.471 13.8994V16.4894H171.981V13.3594H171.171Z" fill="white"/>
<path d="M165.721 13.8194H166.661V16.4894H167.171V13.8194H168.091V13.3594H165.721V13.8194Z" fill="white"/>
<path d="M5.06288 25.3258L0 30.3887L20.2586 50.6473L25.3215 45.5844L5.06288 25.3258Z" fill="#FF0000"/>
<path d="M40.52 50.6498L20.26 70.9098L0 50.6498L5.06 45.5898H5.07L20.26 60.7798L35.46 45.5898L40.52 50.6498Z" fill="#FF0000"/>
<path d="M40.52 20.26L35.46 25.32L20.26 10.13L5.06 25.32L0 20.26L20.25 0L40.52 20.26Z" fill="#FF0000"/>
<path d="M40.5195 40.5198L35.4595 45.5898L15.1895 25.3198L20.2595 20.2598L40.5195 40.5198Z" fill="#FF0000"/>
</g>
<defs>
<clipPath id="clip0_27_4874">
<rect width="171.98" height="70.91" fill="white"/>
</clipPath>
</defs>
</svg>
