<svg width="172" height="71" viewBox="0 0 172 71" fill="none" xmlns="http://www.w3.org/2000/svg">
<path d="M80.043 51.0996H84.361V51.8023H80.874V53.7853H84.1243V54.4881H80.874V56.6502H84.387V57.351H80.043V51.0996Z" fill="white"/>
<path d="M85.4453 52.8248H86.1449V53.5417H86.1623C86.3019 53.2814 86.513 53.0664 86.7708 52.922C87.0384 52.7826 87.3368 52.7129 87.6384 52.7194C87.8919 52.7129 88.1443 52.755 88.382 52.8433C88.5683 52.9168 88.734 53.0344 88.8648 53.186C88.99 53.3369 89.078 53.5149 89.1219 53.706C89.1744 53.9257 89.1994 54.1512 89.1963 54.3771V57.3516H88.4527V54.2866C88.4586 54.1647 88.4396 54.0428 88.397 53.9284C88.3544 53.814 88.289 53.7094 88.2048 53.6211C88.115 53.5363 88.009 53.4706 87.8931 53.428C87.7772 53.3854 87.6539 53.3668 87.5306 53.3732C87.3285 53.3694 87.1276 53.4054 86.9394 53.4792C86.7797 53.5453 86.6371 53.6468 86.5223 53.776C86.4096 53.9078 86.3253 54.0613 86.2745 54.2271C86.2184 54.4102 86.1904 54.6008 86.1914 54.7923V57.3485H85.4478L85.4453 52.8248Z" fill="white"/>
<path d="M94.3955 56.9684C94.4409 57.5693 94.2571 58.1651 93.8812 58.636C93.6707 58.8353 93.4204 58.9877 93.1467 59.0832C92.8731 59.1787 92.5823 59.2151 92.2935 59.19C92.0775 59.1895 91.8621 59.1664 91.6509 59.1212C91.4411 59.0771 91.2397 58.9999 91.0541 58.8926C90.8788 58.7888 90.7279 58.6485 90.6117 58.4811C90.4904 58.2969 90.424 58.0819 90.4202 57.8614H91.1638C91.1675 57.9867 91.2126 58.1072 91.2921 58.2041C91.371 58.2989 91.4693 58.3758 91.5803 58.4297C91.6971 58.4908 91.8224 58.534 91.9521 58.5579C92.0781 58.5836 92.2064 58.5971 92.335 58.5982C92.5483 58.6042 92.7602 58.5618 92.9547 58.4743C93.1206 58.3912 93.2644 58.27 93.3743 58.1204C93.4917 57.9608 93.5735 57.7778 93.6141 57.5838C93.6668 57.3544 93.6918 57.1195 93.6884 56.8842V56.5799H93.6742C93.6123 56.7146 93.5285 56.8381 93.4263 56.9455C93.3258 57.046 93.2115 57.1315 93.0867 57.1996C92.9594 57.2668 92.8241 57.3177 92.6839 57.3508C92.546 57.387 92.4039 57.4053 92.2613 57.4053C91.9561 57.4116 91.6535 57.3492 91.3758 57.2225C91.1317 57.1036 90.9164 56.9329 90.7449 56.7224C90.5728 56.5042 90.4439 56.2552 90.365 55.9887C90.2779 55.7038 90.2347 55.4073 90.2368 55.1094C90.2391 54.832 90.2747 54.5559 90.3427 54.287C90.4112 54.0106 90.5303 53.7492 90.6941 53.5161C90.8644 53.2786 91.0859 53.0825 91.3423 52.9423C91.6474 52.7851 91.9877 52.7086 92.3307 52.7198C92.6047 52.7163 92.8754 52.7802 93.1189 52.9057C93.3591 53.0318 93.554 53.2296 93.6767 53.4715H93.694V52.8246H94.3968L94.3955 56.9684ZM92.3109 56.7484C92.5184 56.7556 92.7241 56.7078 92.9071 56.6099C93.0902 56.5119 93.244 56.3673 93.3532 56.1907C93.4621 56.017 93.5403 55.8258 93.5843 55.6256C93.633 55.4196 93.6579 55.2088 93.6587 54.9972C93.6587 54.7992 93.6356 54.6018 93.5899 54.4091C93.5447 54.2248 93.4695 54.0492 93.3674 53.8892C93.2609 53.7238 93.1127 53.5892 92.9379 53.499C92.763 53.4087 92.5676 53.3659 92.371 53.3749C92.1591 53.3688 91.949 53.4159 91.76 53.5118C91.5944 53.5982 91.4515 53.7224 91.3429 53.8743C91.2326 54.0333 91.1532 54.2115 91.1087 54.3998C91.057 54.6023 91.0312 54.8105 91.0318 55.0195C91.0327 55.2247 91.0534 55.4293 91.0938 55.6305C91.131 55.8269 91.2014 56.0155 91.302 56.1882C91.3993 56.3531 91.5357 56.4915 91.6992 56.591C91.884 56.6998 92.096 56.7533 92.3103 56.7453" fill="white"/>
<path d="M96.4809 52.0086H95.7372V51.0977H96.4809V52.0086ZM95.7372 52.8223H96.4809V57.346H95.7372V52.8223Z" fill="white"/>
<path d="M97.8113 52.8248H98.5109V53.5417H98.5283C98.6679 53.2814 98.879 53.0664 99.1368 52.922C99.4043 52.7826 99.7027 52.7129 100.004 52.7194C100.258 52.7129 100.51 52.755 100.748 52.8433C100.934 52.9168 101.1 53.0344 101.231 53.186C101.356 53.3369 101.444 53.5149 101.488 53.706C101.54 53.9257 101.565 54.1512 101.562 54.3771V57.3516H100.819V54.2866C100.825 54.1647 100.806 54.0428 100.763 53.9284C100.72 53.814 100.655 53.7094 100.571 53.6211C100.481 53.5363 100.375 53.4706 100.259 53.428C100.143 53.3854 100.02 53.3668 99.8965 53.3732C99.6944 53.3694 99.4935 53.4054 99.3054 53.4792C99.1457 53.5453 99.0031 53.6468 98.8883 53.776C98.7756 53.9078 98.6912 54.0613 98.6404 54.2271C98.5843 54.4102 98.5563 54.6008 98.5574 54.7923V57.3485H97.8138L97.8113 52.8248Z" fill="white"/>
<path d="M106.716 55.9149C106.649 56.3664 106.414 56.776 106.059 57.0632C105.691 57.336 105.241 57.475 104.783 57.4573C104.459 57.4652 104.138 57.4039 103.84 57.2776C103.583 57.1645 103.355 56.9951 103.172 56.7819C102.985 56.5614 102.846 56.3046 102.764 56.0277C102.669 55.7183 102.618 55.3974 102.61 55.074C102.607 54.7529 102.661 54.4337 102.769 54.1315C102.866 53.8559 103.016 53.6018 103.209 53.3835C103.397 53.1738 103.628 53.0072 103.886 52.8952C104.155 52.7755 104.446 52.7151 104.74 52.718C105.091 52.7056 105.439 52.7928 105.743 52.9695C106.001 53.1294 106.22 53.3462 106.382 53.6035C106.543 53.8609 106.655 54.1454 106.714 54.4432C106.773 54.7284 106.798 55.0196 106.788 55.3107H103.398C103.393 55.5019 103.417 55.6927 103.47 55.8765C103.52 56.0499 103.606 56.2105 103.724 56.3475C103.846 56.4891 103.998 56.6014 104.169 56.6759C104.371 56.7624 104.589 56.8046 104.809 56.7999C105.083 56.8109 105.353 56.7337 105.58 56.5799C105.795 56.4187 105.94 56.18 105.983 55.9143L106.716 55.9149ZM105.999 54.6557C105.988 54.4839 105.949 54.315 105.882 54.1563C105.819 54.0048 105.727 53.8671 105.611 53.751C105.424 53.5711 105.188 53.4494 104.933 53.4008C104.678 53.3521 104.415 53.3786 104.174 53.4771C104.024 53.5421 103.888 53.6363 103.775 53.7541C103.663 53.8735 103.574 54.0118 103.512 54.1625C103.448 54.3208 103.41 54.488 103.398 54.6582L105.999 54.6557Z" fill="white"/>
<path d="M111.596 55.9149C111.529 56.3664 111.294 56.776 110.939 57.0632C110.571 57.336 110.121 57.475 109.663 57.4573C109.34 57.4652 109.018 57.4039 108.72 57.2776C108.463 57.1646 108.235 56.9951 108.052 56.7819C107.866 56.5614 107.727 56.3046 107.644 56.0277C107.55 55.7183 107.498 55.3974 107.49 55.074C107.487 54.7529 107.541 54.4337 107.65 54.1315C107.746 53.8559 107.896 53.6018 108.09 53.3835C108.277 53.1738 108.508 53.0072 108.766 52.8952C109.035 52.7755 109.326 52.7151 109.62 52.718C109.971 52.7056 110.319 52.7928 110.623 52.9695C110.882 53.1294 111.1 53.3462 111.262 53.6035C111.423 53.8609 111.535 54.1454 111.594 54.4432C111.653 54.7284 111.678 55.0196 111.668 55.3107H108.279C108.273 55.5019 108.297 55.6927 108.35 55.8765C108.4 56.0499 108.486 56.2105 108.604 56.3475C108.726 56.4891 108.878 56.6014 109.049 56.6759C109.251 56.7624 109.469 56.8046 109.689 56.7999C109.963 56.8108 110.233 56.7337 110.46 56.5799C110.675 56.4187 110.82 56.18 110.863 55.9143L111.596 55.9149ZM110.879 54.6557C110.869 54.4839 110.829 54.315 110.762 54.1563C110.699 54.0048 110.607 53.8672 110.491 53.751C110.304 53.5711 110.068 53.4494 109.813 53.4008C109.558 53.3521 109.295 53.3786 109.054 53.4771C108.904 53.5421 108.768 53.6363 108.655 53.7541C108.544 53.8735 108.455 54.0118 108.392 54.1625C108.328 54.3208 108.29 54.488 108.278 54.6582L110.879 54.6557Z" fill="white"/>
<path d="M112.585 52.8244H113.284V53.7781H113.302C113.45 53.454 113.679 53.1736 113.967 52.9645C114.267 52.78 114.616 52.6933 114.967 52.7166V53.5049C114.707 53.4985 114.449 53.5406 114.205 53.6288C114.008 53.7032 113.834 53.8272 113.699 53.9888C113.563 54.1575 113.467 54.3548 113.419 54.5658C113.357 54.8179 113.327 55.077 113.33 55.3367V57.35H112.587L112.585 52.8244Z" fill="white"/>
<path d="M116.492 52.0086H115.748V51.0977H116.492V52.0086ZM115.748 52.8223H116.492V57.346H115.748V52.8223Z" fill="white"/>
<path d="M117.823 52.8248H118.523V53.5417H118.54C118.68 53.2814 118.891 53.0664 119.149 52.922C119.416 52.7826 119.714 52.7129 120.016 52.7194C120.27 52.7129 120.522 52.755 120.76 52.8433C120.946 52.9168 121.112 53.0344 121.242 53.186C121.368 53.3369 121.456 53.5149 121.5 53.706C121.552 53.9257 121.577 54.1512 121.574 54.3771V57.3516H120.83V54.2866C120.836 54.1647 120.817 54.0428 120.775 53.9284C120.732 53.814 120.667 53.7094 120.582 53.6211C120.493 53.5363 120.387 53.4706 120.271 53.428C120.155 53.3854 120.032 53.3668 119.908 53.3732C119.706 53.3694 119.505 53.4054 119.317 53.4792C119.157 53.5453 119.015 53.6468 118.9 53.776C118.787 53.9078 118.703 54.0613 118.652 54.2271C118.596 54.4102 118.568 54.6008 118.569 54.7923V57.3485H117.825L117.823 52.8248Z" fill="white"/>
<path d="M126.773 56.9684C126.819 57.5693 126.635 58.1651 126.259 58.636C126.048 58.8353 125.798 58.9877 125.524 59.0832C125.251 59.1787 124.96 59.2151 124.671 59.19C124.455 59.1895 124.24 59.1664 124.029 59.1212C123.819 59.0771 123.617 58.9999 123.432 58.8926C123.256 58.7888 123.106 58.6485 122.989 58.4811C122.868 58.2969 122.802 58.0819 122.798 57.8614H123.542C123.545 57.9867 123.59 58.1072 123.67 58.2041C123.749 58.2989 123.847 58.3758 123.958 58.4297C124.075 58.4908 124.2 58.534 124.33 58.5579C124.456 58.5836 124.584 58.5971 124.713 58.5982C124.926 58.6042 125.138 58.5618 125.332 58.4743C125.498 58.3912 125.642 58.27 125.752 58.1204C125.869 57.9608 125.951 57.7778 125.992 57.5838C126.044 57.3544 126.069 57.1195 126.066 56.8842V56.5799H126.052C125.99 56.7146 125.906 56.8381 125.804 56.9455C125.704 57.046 125.589 57.1315 125.464 57.1996C125.337 57.2668 125.202 57.3177 125.062 57.3508C124.924 57.387 124.782 57.4053 124.639 57.4053C124.334 57.4116 124.031 57.3492 123.753 57.2225C123.509 57.1036 123.294 56.9329 123.123 56.7224C122.95 56.5042 122.822 56.2552 122.743 55.9887C122.656 55.7038 122.612 55.4073 122.614 55.1094C122.617 54.832 122.652 54.5559 122.72 54.287C122.789 54.0106 122.908 53.7492 123.072 53.5161C123.242 53.2786 123.464 53.0825 123.72 52.9423C124.025 52.7851 124.365 52.7086 124.708 52.7198C124.982 52.7163 125.253 52.7802 125.497 52.9057C125.737 53.0318 125.932 53.2296 126.054 53.4715H126.063V52.8246H126.766L126.773 56.9684ZM124.689 56.7484C124.896 56.7556 125.102 56.7078 125.285 56.6099C125.468 56.5119 125.622 56.3673 125.731 56.1907C125.84 56.017 125.918 55.8258 125.962 55.6256C126.011 55.4196 126.036 55.2088 126.036 54.9972C126.036 54.7992 126.013 54.6018 125.968 54.4091C125.922 54.2248 125.847 54.0492 125.745 53.8892C125.639 53.7238 125.49 53.5892 125.316 53.499C125.141 53.4087 124.945 53.3659 124.749 53.3749C124.537 53.3688 124.327 53.4159 124.138 53.5118C123.972 53.5982 123.829 53.7224 123.721 53.8743C123.61 54.0333 123.531 54.2115 123.486 54.3998C123.435 54.6023 123.409 54.8105 123.41 55.0195C123.41 55.2247 123.431 55.4293 123.471 55.6305C123.509 55.8269 123.579 56.0155 123.68 56.1882C123.777 56.3531 123.913 56.4915 124.077 56.591C124.262 56.6998 124.474 56.7533 124.688 56.7453" fill="white"/>
<path d="M134.128 56.571C134.036 56.716 133.922 56.846 133.791 56.9565C133.66 57.0667 133.516 57.1598 133.362 57.2335C133.206 57.3077 133.041 57.3632 132.871 57.3989C132.703 57.4359 132.532 57.455 132.36 57.4559C132.01 57.4707 131.662 57.4032 131.343 57.2589C131.113 57.1474 130.909 56.9876 130.746 56.7904C130.616 56.626 130.523 56.4359 130.472 56.2327C130.433 56.0745 130.411 55.9127 130.406 55.7499C130.401 55.5282 130.441 55.3077 130.524 55.1017C130.602 54.9184 130.709 54.7487 130.841 54.5992C130.978 54.446 131.133 54.3106 131.304 54.1964C131.483 54.0761 131.672 53.9652 131.869 53.8593C131.78 53.7353 131.695 53.6194 131.615 53.5079C131.535 53.4006 131.461 53.2891 131.392 53.1739C131.325 53.0623 131.272 52.9423 131.236 52.8169C131.195 52.6761 131.175 52.5298 131.179 52.3832C131.178 52.218 131.209 52.0542 131.27 51.9004C131.33 51.7447 131.422 51.6035 131.541 51.4865C131.668 51.3621 131.818 51.2649 131.984 51.2008C132.176 51.1292 132.38 51.0943 132.586 51.0979C132.777 51.0971 132.968 51.124 133.151 51.1779C133.328 51.2256 133.494 51.307 133.639 51.4177C133.778 51.5266 133.892 51.664 133.973 51.8205C134.062 51.9916 134.106 52.182 134.102 52.3745C134.102 52.5532 134.069 52.7304 134.004 52.8969C133.941 53.0574 133.852 53.2068 133.742 53.3393C133.63 53.4736 133.503 53.5952 133.365 53.7019C133.226 53.8094 133.08 53.9077 132.928 53.9962L134.059 55.3701C134.175 55.0585 134.242 54.731 134.259 54.399H134.967C134.953 54.5849 134.933 54.7448 134.91 54.8762C134.894 54.9987 134.868 55.1199 134.834 55.2387C134.802 55.3506 134.763 55.4603 134.716 55.5671C134.668 55.6756 134.614 55.7983 134.548 55.9389L135.767 57.3469H134.793L134.128 56.571ZM132.279 54.3265C132.134 54.4095 131.993 54.4951 131.865 54.5806C131.738 54.6657 131.621 54.7653 131.517 54.8774C131.42 54.9891 131.34 55.1143 131.28 55.2492C131.219 55.4038 131.19 55.5686 131.194 55.7344C131.192 55.885 131.226 56.0339 131.294 56.1682C131.359 56.2964 131.45 56.4094 131.562 56.4998C131.675 56.5926 131.804 56.6651 131.942 56.7142C132.083 56.7676 132.233 56.7947 132.384 56.7941C132.653 56.7977 132.917 56.7285 133.15 56.594C133.377 56.4577 133.57 56.2721 133.716 56.0511L132.279 54.3265ZM132.519 53.5042C132.608 53.4422 132.702 53.3802 132.802 53.3127C132.9 53.2428 132.991 53.1633 133.073 53.0753C133.155 52.9877 133.225 52.8886 133.279 52.781C133.331 52.6675 133.357 52.5435 133.356 52.4185C133.357 52.3315 133.34 52.2452 133.308 52.1647C133.275 52.0842 133.226 52.0112 133.164 51.95C133.094 51.8826 133.01 51.8304 132.919 51.7965C132.828 51.7626 132.73 51.7478 132.633 51.7529C132.457 51.7537 132.285 51.8096 132.142 51.9128C132.063 51.9707 132.001 52.0475 131.961 52.1359C131.921 52.2243 131.903 52.3215 131.91 52.4185C131.912 52.5146 131.931 52.6096 131.967 52.6986C132.009 52.7936 132.057 52.8852 132.113 52.9725C132.175 53.0636 132.237 53.1522 132.307 53.2408C132.377 53.3294 132.45 53.4149 132.518 53.5036" fill="white"/>
<path d="M139.102 51.0996H143.42V51.8023H139.933V53.7853H143.183V54.4881H139.933V56.6502H143.446V57.351H139.102V51.0996Z" fill="white"/>
<path d="M144.506 52.8248H145.205V53.5417H145.223C145.362 53.2814 145.573 53.0664 145.831 52.922C146.099 52.7826 146.397 52.7129 146.699 52.7194C146.952 52.7129 147.205 52.755 147.442 52.8433C147.629 52.9168 147.794 53.0344 147.925 53.186C148.05 53.3369 148.138 53.5149 148.182 53.706C148.235 53.9257 148.26 54.1512 148.257 54.3771V57.3516H147.513V54.2866C147.519 54.1647 147.5 54.0428 147.457 53.9284C147.415 53.814 147.349 53.7094 147.265 53.6211C147.175 53.5363 147.069 53.4707 146.953 53.4281C146.837 53.3855 146.714 53.3668 146.591 53.3732C146.389 53.3694 146.188 53.4054 146 53.4792C145.84 53.5453 145.697 53.6468 145.583 53.776C145.47 53.9078 145.386 54.0613 145.335 54.2271C145.279 54.4102 145.251 54.6008 145.252 54.7923V57.3485H144.508L144.506 52.8248Z" fill="white"/>
<path d="M153.41 55.9149C153.342 56.3664 153.108 56.776 152.753 57.0632C152.385 57.336 151.934 57.475 151.476 57.4573C151.153 57.4652 150.832 57.4039 150.534 57.2776C150.277 57.1645 150.049 56.9951 149.866 56.7819C149.679 56.5614 149.54 56.3046 149.458 56.0277C149.363 55.7183 149.311 55.3974 149.303 55.074C149.3 54.7529 149.355 54.4337 149.463 54.1315C149.56 53.8559 149.709 53.6018 149.903 53.3835C150.091 53.1738 150.322 53.0072 150.58 52.8952C150.848 52.7755 151.14 52.7151 151.434 52.718C151.785 52.7056 152.133 52.7928 152.436 52.9695C152.695 53.1294 152.914 53.3462 153.076 53.6035C153.237 53.8609 153.349 54.1454 153.407 54.4432C153.466 54.7284 153.491 55.0196 153.482 55.3107H150.092C150.086 55.5019 150.11 55.6927 150.163 55.8765C150.213 56.0499 150.3 56.2105 150.417 56.3475C150.539 56.4891 150.692 56.6014 150.863 56.6759C151.065 56.7623 151.283 56.8046 151.502 56.7999C151.776 56.8109 152.047 56.7337 152.273 56.5799C152.489 56.4187 152.633 56.18 152.676 55.9143L153.41 55.9149ZM152.693 54.6557C152.682 54.4839 152.642 54.315 152.576 54.1563C152.512 54.0048 152.42 53.8672 152.304 53.751C152.117 53.5711 151.882 53.4494 151.627 53.4008C151.372 53.3521 151.108 53.3786 150.868 53.4771C150.718 53.5421 150.582 53.6363 150.468 53.7541C150.357 53.8735 150.268 54.0118 150.205 54.1625C150.142 54.3208 150.104 54.488 150.091 54.6582L152.693 54.6557Z" fill="white"/>
<path d="M154.403 52.8244H155.103V53.7781H155.12C155.268 53.454 155.497 53.1736 155.786 52.9645C156.085 52.78 156.435 52.6933 156.785 52.7166V53.5049C156.526 53.4984 156.267 53.5405 156.023 53.6288C155.826 53.7032 155.652 53.8272 155.517 53.9888C155.381 54.1575 155.285 54.3548 155.237 54.5658C155.175 54.8179 155.145 55.077 155.148 55.3367V57.35H154.405L154.403 52.8244Z" fill="white"/>
<path d="M161.181 56.9684C161.227 57.5698 161.042 58.1661 160.664 58.636C160.454 58.8356 160.204 58.9882 159.93 59.0838C159.656 59.1793 159.365 59.2155 159.076 59.19C158.862 59.1894 158.647 59.1664 158.437 59.1212C158.227 59.0781 158.025 59.0008 157.84 58.8926C157.664 58.7896 157.513 58.6491 157.398 58.4811C157.276 58.2969 157.21 58.0819 157.206 57.8614H157.946C157.951 57.9864 157.996 58.1065 158.074 58.2041C158.154 58.2983 158.252 58.3751 158.363 58.4297C158.481 58.4906 158.608 58.5338 158.739 58.5579C158.864 58.5838 158.992 58.5972 159.119 58.5982C159.333 58.6042 159.544 58.5618 159.739 58.4743C159.905 58.392 160.049 58.2706 160.158 58.1204C160.276 57.9608 160.358 57.7778 160.398 57.5838C160.452 57.3546 160.477 57.1196 160.473 56.8842V56.5799H160.458C160.396 56.7146 160.313 56.8381 160.211 56.9455C160.11 57.046 159.996 57.1315 159.871 57.1996C159.616 57.3322 159.333 57.4027 159.046 57.4053C158.74 57.4113 158.438 57.3489 158.16 57.2225C157.916 57.1036 157.7 56.933 157.529 56.7224C157.357 56.504 157.23 56.255 157.152 55.9887C157.062 55.7043 157.018 55.4075 157.02 55.1094C157.023 54.832 157.058 54.5559 157.126 54.287C157.196 54.011 157.315 53.7498 157.478 53.5161C157.649 53.2793 157.87 53.0833 158.126 52.9423C158.431 52.7851 158.771 52.7086 159.114 52.7198C159.388 52.7163 159.659 52.7802 159.903 52.9057C160.143 53.031 160.338 53.229 160.46 53.4715H160.469V52.8246H161.174L161.181 56.9684ZM159.096 56.7484C159.303 56.7552 159.509 56.7072 159.691 56.6092C159.874 56.5113 160.027 56.367 160.136 56.1907C160.245 56.0166 160.324 55.8256 160.37 55.6256C160.418 55.4195 160.442 55.2087 160.442 54.9972C160.441 54.7994 160.419 54.6022 160.376 54.4091C160.331 54.2248 160.256 54.0492 160.154 53.8892C160.047 53.7238 159.899 53.5892 159.724 53.499C159.549 53.4087 159.354 53.3659 159.157 53.3749C158.944 53.3688 158.733 53.4159 158.543 53.5118C158.378 53.5976 158.236 53.7219 158.129 53.8743C158.017 54.0324 157.936 54.2109 157.892 54.3998C157.84 54.6023 157.814 54.8105 157.815 55.0195C157.817 55.2246 157.838 55.4291 157.877 55.6305C157.915 55.8266 157.986 56.015 158.085 56.1882C158.183 56.3532 158.32 56.4915 158.485 56.591C158.669 56.7005 158.881 56.7541 159.096 56.7453" fill="white"/>
<path d="M164.254 57.956C164.18 58.1475 164.093 58.3338 163.994 58.5137C163.923 58.6509 163.83 58.7763 163.72 58.8855C163.623 58.9792 163.506 59.0502 163.378 59.0937C163.237 59.1404 163.089 59.1626 162.941 59.1594C162.853 59.1593 162.765 59.1535 162.678 59.1421C162.592 59.1302 162.506 59.1095 162.424 59.0801V58.4034C162.493 58.4263 162.567 58.4492 162.638 58.4722C162.71 58.4948 162.785 58.5063 162.861 58.5063C162.992 58.5123 163.121 58.4762 163.23 58.4034C163.335 58.3203 163.42 58.2143 163.478 58.0935L163.783 57.3226L161.987 52.8262H162.826L164.149 56.5301H164.166L165.437 52.8262H166.225L164.254 57.956Z" fill="white"/>
<path d="M77.9855 28.1185C76.8427 27.4463 75.6255 26.9096 74.3585 26.5191C73.0447 26.1105 71.7539 25.762 70.486 25.4736C69.3292 25.2045 68.1896 24.866 67.0734 24.4598C66.3113 24.2115 65.6165 23.7913 65.0427 23.2316C64.6024 22.7314 64.3713 22.0811 64.397 21.4153C64.3943 20.9175 64.5274 20.4284 64.7821 20.0007C65.0367 19.573 65.4032 19.2229 65.8421 18.9879C66.9346 18.3602 68.1814 18.0515 69.4406 18.0968C70.8955 18.0828 72.3346 18.3983 73.6502 19.0196C74.9765 19.6652 76.0795 20.6927 76.8174 21.9699L80.5672 19.0797C79.5408 17.2315 77.9744 15.7409 76.0775 14.8075C74.0902 13.8302 71.9005 13.3351 69.686 13.3624C66.4045 13.3624 63.7705 14.1517 61.7837 15.7302C60.8275 16.4594 60.0584 17.4055 59.54 18.4906C59.0216 19.5756 58.7688 20.7685 58.8024 21.9705C58.759 23.2676 59.0669 24.5522 59.6935 25.6887C60.2739 26.6762 61.0731 27.5175 62.0297 28.1476C63.036 28.8035 64.1212 29.3295 65.2596 29.7129C66.4477 30.1261 67.6158 30.4954 68.7639 30.8209C69.952 31.0857 71.1224 31.4243 72.2683 31.8348C73.2153 32.1574 74.0917 32.6587 74.8499 33.3115C75.1764 33.6107 75.4335 33.9776 75.6031 34.3867C75.7728 34.7957 75.8509 35.2369 75.8321 35.6793C75.8414 36.2675 75.703 36.8487 75.4295 37.3696C75.1561 37.8904 74.7563 38.3343 74.2668 38.6607C72.9978 39.4828 71.5006 39.8808 69.9909 39.7972C68.1257 39.8516 66.2895 39.3256 64.7359 38.2919C63.3552 37.3678 62.2077 36.136 61.3834 34.6934L57.2662 38.2622C58.0483 39.4228 58.9895 40.4679 60.0622 41.3668C61.316 42.4213 62.7413 43.253 64.2761 43.8258C66.0865 44.4919 68.0051 44.8153 69.9339 44.7795C72.0686 44.8283 74.1879 44.4082 76.1426 43.5488C77.8036 42.8134 79.2296 41.6341 80.2635 40.1405C81.2594 38.6378 81.7729 36.8669 81.7353 35.0646C81.8007 33.56 81.4382 32.0677 80.6899 30.7608C80.0142 29.6746 79.0865 28.7674 77.9855 28.116" fill="white"/>
<path d="M99.8024 13.3584C97.3518 13.334 94.9197 13.7839 92.64 14.6833C90.3662 15.6194 88.3215 17.0357 86.6457 18.8352L90.3955 22.7076C91.5804 21.3554 93.0358 20.2667 94.6676 19.5119C96.1493 18.8581 97.7516 18.5225 99.3711 18.5266C101.707 18.5266 103.49 19.1006 104.72 20.2487C105.95 21.3968 106.565 23.0361 106.565 25.1666V26.1519H97.4662C96.0311 26.1431 94.5988 26.277 93.1903 26.5516C91.9368 26.7875 90.7387 27.2564 89.6581 27.9341C88.527 28.6139 87.5936 29.5778 86.9506 30.7302C86.2253 32.0583 85.8656 33.5553 85.9083 35.068C85.8689 36.8611 86.3607 38.6259 87.3218 40.1402C88.305 41.6317 89.69 42.8148 91.317 43.5528C93.1877 44.4035 95.2256 44.8233 97.2802 44.781C99.1263 44.81 100.951 44.3884 102.598 43.5528C104.203 42.7096 105.567 41.4729 106.564 39.9586C106.601 39.9041 106.63 39.8415 106.664 39.7869V44.7816H112.59V25.1647C112.59 21.435 111.472 18.5353 109.237 16.4655C107.002 14.3957 103.857 13.36 99.8024 13.3584ZM106.565 31.5593C106.589 33.0654 106.184 34.5473 105.397 35.8314C104.634 37.0671 103.565 38.0843 102.292 38.7843C100.984 39.5053 99.5105 39.8753 98.0164 39.8582C96.4377 39.939 94.8779 39.4841 93.59 38.5674C92.8102 37.9391 92.2649 37.0664 92.0421 36.0901C91.8193 35.1139 91.9319 34.091 92.3618 33.1866C92.641 32.643 93.0405 32.1702 93.5299 31.8041C94.196 31.3318 94.9657 31.0262 95.7744 30.913C96.6173 30.7732 97.47 30.7015 98.3244 30.6985H106.566L106.565 31.5593Z" fill="white"/>
<path d="M136.866 15.3894C136.032 14.887 135.132 14.5044 134.192 14.2529C133.277 14.0228 132.337 13.9087 131.394 13.9133C129.907 13.9381 128.449 14.3298 127.15 15.0535C125.702 15.8226 124.434 16.8915 123.432 18.1891C123.22 18.4647 123.026 18.7527 122.849 19.0517V13.4473H116.76V44.7795H122.849V30.9455C122.834 29.6837 122.884 28.4219 123.001 27.1654C123.074 26.4077 123.207 25.6572 123.4 24.9208C123.706 23.8413 124.265 22.8503 125.031 22.0306C125.707 21.3194 126.538 20.7723 127.458 20.4312C128.345 20.1074 129.281 19.941 130.226 19.9398C130.889 19.947 131.549 20.0301 132.193 20.1876C132.791 20.3171 133.37 20.5235 133.915 20.8018L136.866 15.3894Z" fill="white"/>
<path d="M162.361 16.4649C160.125 14.3993 156.978 13.3644 152.922 13.3603H152.825C150.375 13.3365 147.943 13.7855 145.663 14.6827C143.389 15.6199 141.345 17.036 139.668 18.8346L143.418 22.7071L143.466 22.6556L143.515 22.7071C144.701 21.3548 146.158 20.2661 147.791 19.5113C149.26 18.864 150.849 18.5296 152.454 18.5291C154.762 18.5407 156.525 19.1137 157.743 20.2481C158.974 21.3962 159.589 23.0355 159.588 25.166V26.1513H150.489C149.054 26.144 147.622 26.2778 146.213 26.551C144.959 26.7869 143.761 27.2559 142.681 27.9335C141.549 28.6136 140.615 29.5785 139.973 30.7321C139.247 32.06 138.887 33.5571 138.931 35.0699C138.892 36.8629 139.384 38.6275 140.344 40.1421C141.329 41.6316 142.714 42.8129 144.34 43.5504C146.21 44.4019 148.248 44.8225 150.303 44.7811H150.349H150.4C152.247 44.8089 154.073 44.3865 155.721 43.5504C157.325 42.7067 158.69 41.4701 159.687 39.9562L159.704 39.9308L159.79 40.8987V44.7829H165.713V25.1635C165.713 21.4338 164.596 18.5341 162.363 16.4643M159.59 30.698V31.5575C159.614 33.0636 159.209 34.5456 158.421 35.8296C157.66 37.0659 156.59 38.0833 155.317 38.7825C154.024 39.494 152.57 39.8636 151.094 39.8564C149.531 39.9277 147.99 39.4744 146.715 38.5687C145.935 37.9411 145.389 37.0685 145.165 36.0921C144.942 35.1157 145.055 34.0925 145.485 33.1879C145.763 32.6437 146.163 32.1708 146.653 31.8054C147.319 31.334 148.087 31.0276 148.895 30.9112C149.738 30.7714 150.591 30.6997 151.445 30.6967L159.59 30.698Z" fill="white"/>
<path d="M171.153 13.3599L170.382 15.5425L169.599 13.3574H168.777V16.4869H169.277V13.8625L170.21 16.2613H170.542L171.453 13.9021V16.4869H171.964V13.3599H171.153Z" fill="white"/>
<path d="M165.709 13.8217H166.643V16.4863H167.151V13.8217H168.074V13.3594H165.709V13.8217Z" fill="white"/>
<path d="M5.06354 25.3257L0.000610352 30.3887L20.2572 50.6452L25.3201 45.5823L5.06354 25.3257Z" fill="#80C804"/>
<path d="M40.5154 50.647L20.2639 70.9108L0 50.647L5.06287 45.5859H5.07155L20.2651 60.7764L35.4556 45.5859L40.5154 50.647Z" fill="#80C804"/>
<path d="M40.5154 20.2639L35.455 25.3243L20.2645 10.1326L5.06285 25.323L0.00183105 20.2639L20.2527 0L40.5154 20.2639Z" fill="#80C804"/>
<path d="M20.2539 20.266L15.1892 25.3379L35.4709 45.5909L40.5356 40.5191L20.2539 20.266Z" fill="#80C804"/>
</svg>
