<svg width="48" height="51" viewBox="0 0 48 51" fill="none" xmlns="http://www.w3.org/2000/svg">
<path d="M32.2152 41.0572C34.5242 43.464 43.1595 43.9333 46.1879 37.8766C48.4228 33.4067 45.699 27.8194 47.0609 22.4764C38.6784 24.2225 32.1496 29.1813 31.4135 37.3766" stroke="white" stroke-linecap="round" stroke-linejoin="round"/>
<path d="M17.7621 25.5844L12.1747 44.5815L34.5242 19.9971H25.5844L31.1718 1L8.82227 25.5844H17.7621Z" stroke="white" stroke-linecap="round" stroke-linejoin="round"/>
<path d="M8.30549 38.2594C3.83 34.3664 1 28.6296 1 22.232C1 10.5055 10.5055 1 22.232 1C22.5128 1 22.7921 1.00559 23.0701 1.01676" stroke="white" stroke-linecap="round" stroke-linejoin="round"/>
<path d="M41.9415 30.1437C38.8042 37.9506 31.162 43.464 22.232 43.464C21.4302 43.464 20.6396 43.4193 19.8616 43.3327" stroke="white" stroke-linecap="round" stroke-linejoin="round"/>
<path d="M35.1877 5.40979C39.2512 8.54431 42.1482 13.119 43.1134 18.3683" stroke="white" stroke-linecap="round" stroke-linejoin="round"/>
<path d="M42.4331 45.8163C42.6231 46.9659 42.5672 48.3739 42.1454 49.497C37.2229 49.9789 31.8213 48.4731 29.8588 42.0532" stroke="white" stroke-linecap="round" stroke-linejoin="round"/>
</svg>
