<svg width="54" height="51" viewBox="0 0 54 51" fill="none" xmlns="http://www.w3.org/2000/svg">
<path d="M7.93994 12.5667H12.5666L17.1933 19.5067H20.6633" stroke="white" stroke-miterlimit="10"/>
<path d="M7.93994 25.29H25.2899" stroke="white" stroke-miterlimit="10"/>
<path d="M7.94 12.5667C7.94 14.4867 6.39007 16.0367 4.47 16.0367C2.54993 16.0367 1 14.4867 1 12.5667C1 10.6466 2.54993 9.09668 4.47 9.09668C6.39007 9.09668 7.94 10.6466 7.94 12.5667Z" stroke="white" stroke-miterlimit="10"/>
<path d="M7.94 25.2899C7.94 27.21 6.39007 28.7599 4.47 28.7599C2.54993 28.7599 1 27.21 1 25.2899C1 23.3699 2.54993 21.8199 4.47 21.8199C6.39007 21.8199 7.94 23.3699 7.94 25.2899Z" stroke="white" stroke-miterlimit="10"/>
<path d="M17.1934 6.78333L21.82 13.7233H27.6034" stroke="white" stroke-miterlimit="10"/>
<path d="M18.35 4.47C18.35 6.39007 16.8001 7.94 14.88 7.94C12.96 7.94 11.41 6.39007 11.41 4.47C11.41 2.54993 12.96 1 14.88 1C16.8001 1 18.35 2.54993 18.35 4.47Z" stroke="white" stroke-miterlimit="10"/>
<path d="M7.94 38.0133C7.94 36.0933 6.39007 34.5433 4.47 34.5433C2.54993 34.5433 1 36.0933 1 38.0133C1 39.9334 2.54993 41.4833 4.47 41.4833C6.39007 41.4833 7.94 39.9334 7.94 38.0133Z" stroke="white" stroke-miterlimit="10"/>
<path d="M17.1934 43.7967L21.82 36.8567H27.6034" stroke="white" stroke-miterlimit="10"/>
<path d="M18.35 46.11C18.35 44.1899 16.8001 42.64 14.88 42.64C12.96 42.64 11.41 44.1899 11.41 46.11C11.41 48.0301 12.96 49.58 14.88 49.58C16.8001 49.58 18.35 48.0301 18.35 46.11Z" stroke="white" stroke-miterlimit="10"/>
<path d="M27.6034 25.29H25.29" stroke="white" stroke-miterlimit="10"/>
<path d="M7.93994 38.0133H12.5666L17.1933 31.0733H39.1699V34.4161L52.4253 25.4288L39.1699 15.9094V19.5067H27.6033" stroke="white" stroke-miterlimit="10"/>
<path d="M34.5433 25.29H36.8567" stroke="white" stroke-miterlimit="10"/>
<path d="M29.9166 25.29H32.23" stroke="white" stroke-miterlimit="10"/>
<path d="M29.9166 13.7234H32.23" stroke="white" stroke-miterlimit="10"/>
<path d="M29.9166 36.8567H32.23" stroke="white" stroke-miterlimit="10"/>
<path d="M25.29 19.5066H22.9767" stroke="white" stroke-miterlimit="10"/>
</svg>
